<?xml version="1.0" encoding="UTF-8" standalone="no"?>
<svg
   xmlns:dc="http://purl.org/dc/elements/1.1/"
   xmlns:cc="http://creativecommons.org/ns#"
   xmlns:rdf="http://www.w3.org/1999/02/22-rdf-syntax-ns#"
   xmlns:svg="http://www.w3.org/2000/svg"
   xmlns="http://www.w3.org/2000/svg"
   xmlns:sodipodi="http://sodipodi.sourceforge.net/DTD/sodipodi-0.dtd"
   xmlns:inkscape="http://www.inkscape.org/namespaces/inkscape"
   id="svg5131"
   sodipodi:docname="baking powder.svg"
   viewBox="0 0 116.51 162.27"
   version="1.0"
   inkscape:version="0.92.4 (unknown)">
  <defs
     id="defs105" />
  <sodipodi:namedview
     id="namedview105"
     bordercolor="#666666"
     inkscape:pageshadow="2"
     guidetolerance="10"
     pagecolor="#ffffff"
     gridtolerance="10"
     inkscape:window-maximized="1"
     inkscape:zoom="3.5089304"
     objecttolerance="10"
     borderopacity="1"
     inkscape:current-layer="g3241"
     inkscape:cx="44.517307"
     inkscape:cy="102.9761"
     inkscape:window-y="24"
     inkscape:window-x="65"
     inkscape:window-width="1295"
     showgrid="false"
     inkscape:pageopacity="0"
     inkscape:window-height="744" />
  <title
     id="title8342">Old Tin Can</title>
  <g
     id="layer1"
     transform="translate(-1.9617 -3.6777)">
    <g
       id="g3241">
      <path
         id="path3734"
         style="fill:#4d4d4d"
         inkscape:connector-curvature="0"
         d="m95.456 10.684c1.3668 2.1541 0.77362 2.0528 4.3248 1.9691 5.8863 0.1842 16.84 1.2233 17.448 2.9395 0.92324 4.6235-0.5465 5.1109 0.0763 11.931v108.02c2.6582 2.2386 0.2123 6.3051-1.6825 8.3498-2.5961 2.7756-4.5938 6.4453-7.182 9.2124-2.2209 3.6554-5.0361 5.4439-8.2868 8.7684-2.1416 2.2058-5.9982 3.9334-9.42 4.0784-5.2173-0.0673-40.633-2.7723-58.504-3.8519-6.8742-0.60058-13.758-1.3822-20.598-2.0754-3.5811-0.005-6.8957-2.1179-6.1759-1.6616-4.617-1.3 0.5351-8.96-0.4582-6.12 1.0174-19.92-1.0172-51.29-0.4773-68.029-0.2066-15.903 0.2026-31.455 0.3677-47.181-2.2408-4.347-4.7388-9.158-1.0354-12.197 3.1719-2.433 6.5322-4.567 9.9172-6.722 4.097-1.879 7.822-4.436 11.709-6.699-0.77-3.7847 3.853-5.1464 6.836-5.3941 6.213-1.2782 12.548-1.7733 18.855-2.0362 6.865-0.4696 12.594-0.1568 18.687-0.3077 5.223 0.4183 10.329 1.1372 15.387 1.873 2.7226 1.0589 5.7303 1.1852 8.2987 2.9014 0.50372 0.25186 1.411 1.9835 1.9147 2.2353z" />
      <g
         id="g3784"
         style="fill:#ebebeb"
         transform="matrix(.021032 0 0 .021032 -128.16 -25.31)">
        <path
           id="path3786"
           inkscape:connector-curvature="0"
           d="m10586 1799c-75.963-16.856 72.921-92.451 0-59.906v59.9z" />
      </g>
      <g
         id="g3794"
         style="fill:#ebebeb"
         transform="matrix(.021032 0 0 .021032 -128.16 -25.31)">
        <path
           id="path3796"
           inkscape:connector-curvature="0"
           d="m7332 1826c-137.75 55.964-225.94 182.33-363.3 243.02-212.11 128.29-440.69 244.44-624.37 409-105.63 110.95 249.98 193.02 169.08 159.89 140.4 19.614 293.09-12.794 421.59 61.092 290.58-12.228 578.82 11.722 866.06 54.194 831.4 51.251 1662.5 106.59 2493.9 157.81 150.91-41.77 299.94-83.205 426.84-179.46 322.83-157.7 534.95-464.45 840.71-645.59 143.72-80.203-125.86-146.17-194.09-164.52-188.62-15.309-314.7-15.491-502.65-42.431-78.088 24.58-331.94-23.081-142.61-49.876 224.47 16.657 451.63 19.982 674.87 29.051 96.112 42.556 246.68 16.612 260.14 158.71-28.237 106.38-145.73 157.71-213.72 247.63-168.83 109.21-331.77 225.34-480.31 362.86-191.3 151.43-397.58 300.11-635.24 361.59-341.97-32.152-686.02-14.871-1027.8-35.502-533.74-65.835-1072.4-72.293-1607.2-129.4-426.9-33.272-1092-113.23-1279-133.47-99.073-48.078-262.68-103.71-135.46-222.78 104.45-137.88 260.89-150.48 372.5-265.63 215.2-146.6 445.6-270.7 653-429.2 45.478-13.375 20.624 28.78 27 53z" />
      </g>
      <g
         id="g3806"
         style="fill:#ebebeb"
         transform="matrix(.021032 0 0 .021032 -128.16 -25.31)">
        <path
           id="path3808"
           inkscape:connector-curvature="0"
           d="m7649 1852c90.309 30.479 99.706 33.651 0 0z" />
        <path
           id="path3810"
           inkscape:connector-curvature="0"
           d="m10290 1906.1c-48.429 47.309-232.77 69.751-173.44 51.864-89.284 41.072-395.98 111.04-290.75 83.1-145.05 4.2982-289.76 86.878-430.16 22.9-106.25 48.261-224.83 24.8-329.19 0-145.34 21.794-242.91-35.755-40.559-36.459 324.56-23.509 730.99-81.306 1042.8-122.19l351.34-75.965-58.47 49.935z" />
      </g>
      <g
         id="g3818"
         style="fill:#ebebeb"
         transform="matrix(.021032 0 0 .021032 -128.16 -25.31)">
        <path
           id="path3820"
           inkscape:connector-curvature="0"
           d="m7332 2064c-38.405-82.768-17.008-142.67-3.3085-22.189 1.1028 7.3964 2.2057 14.793 3.3085 22.189z" />
        <path
           id="path3822"
           inkscape:connector-curvature="0"
           d="m7940 2064c16.716 90.089 244.43 40.209 58.715 52.879-126.13 2.5652-482.31-153.91-408.17-162.12 118.86 28.967 227.55 91.406 349.45 109.24z" />
        <path
           id="path3824"
           inkscape:connector-curvature="0"
           d="m10428 1985c-28.482 116.96-270.02 113.37-388.66 155.17-187.78 52.987-379.36 97.896-576.08 82.825h-491.25c-141.37-44.148-647.31-82.973-587.14-64.325 304.7-18.328 678.39-24.998 976.71-16.048 356.86-15.116 706.5-92.615 1052.1-176.85 43.52-14.28 91.128-0.2594 14.336 19.221z" />
        <path
           id="path3826"
           inkscape:connector-curvature="0"
           d="m10692 1985c67.64 110.54-91.5 96.305 0 0z" />
        <path
           id="path3828"
           inkscape:connector-curvature="0"
           d="m7305 2302c117.92 210.04 382.12 250.52 597.46 290.99 359.55 51.044 717.62 123.68 1082.4 121.88 174.57 10.24-309.27-35.135-64.408-23.161 500.83-46.691 1025.5 40.22 1503.3-155.24 222.44-77.833 284.44-204.82 237.59-388.11 115.26-127.36 367.81-5.3691 533.8-15.11 107.98-3.0356 167.71 37.471 67.947 120.15-168.56 150.39-342.65 296.64-526.56 428.66-150.88 99.684-322.76 184.06-504.58 197.5-1096.3-111.12-2202.8-121.76-3295-276.99-71.117-17.622-276.33-60.241-287.34-60.178 175.24-134.89 343.19-299.7 566.05-349.73 79.625-137.8 145.09 15.39 126.64 95.435l-15.081 9.0118-22.1 4.9z" />
        <path
           id="path3830"
           inkscape:connector-curvature="0"
           d="m10613 2143c-110.24 35.326-126.38-86.566-9.89-56.878 17.666 14.3 7.839 38.197 9.89 56.878z" />
        <path
           id="path3832"
           inkscape:connector-curvature="0"
           d="m8205 2302c-174.15-53.135-372.81 1.3221-532.56-105.47-60.75-23.367-191.42-133.86-48.934-66.346 173.77 90.682 377.82 90.792 558.12 165.71l23.4 6.1z" />
        <path
           id="path3834"
           inkscape:connector-curvature="0"
           d="m10242 2249c-116.21 129.76-296 86.18-443.57 133.33-185.56 56.543-357.99-34.856-519.23-1.4602-73.259 26.072-448.87-39.359-401.57-26.004 314.08-20.685 632.08-23.807 939.25-102.18 184.3-37.515 365.28-60.369 553.6-69.119 282.63 0.513-98.572 63.319-128.48 65.432z" />
      </g>
      <g
         id="g3846"
         style="fill:#ebebeb"
         transform="matrix(.021032 0 0 .021032 -128.16 -25.31)">
        <path
           id="path3848"
           inkscape:connector-curvature="0"
           d="m8205 2487c-159.91 1.6732-322.72-12.445-476-52-112.9-29.98-350.25-162.51-250.19-133 43.563 16.23 389.34 116.03 298.73 89.628 140.54 39.101 285.3 62.645 427.46 95.372z" />
        <path
           id="path3850"
           inkscape:connector-curvature="0"
           d="m8761 2329c-175.96-13.283-361.11 29.344-530-27 176.44 23.028 352.11 32.075 530 27z" />
        <path
           id="path3852"
           inkscape:connector-curvature="0"
           d="m10586 2329c-99.927-24.038-356.49 86.562-264 79 77.242 1.7177-344.79 187.23-186 106-110.47 30.646-225.69 45.046-340.38 53-6.6006-78.623-264.99-83.568-188.62 0-85.785 45.801-291.94 79.603-257.09 53-57.202-19.421-318.77-81.284-232.41-40.502-44.284 43.281-440.07 5.87-345.1-12.363-193.58-11.022-342.33 7.4273-523.45-80.136 303.56 26.593 616.4 75.86 920.07 23.472 385.54-24.233 766.46-81.681 1144.8-158.89 75.907 5.0107 243.47-81.573 272.22-22.579z" />
      </g>
      <path
         d="m 115.64294,25.90292 c 0.4955,3.940135 0.81121,8.205635 -0.28397,11.956692 -1.73966,1.86007 -3.69574,4.431022 -3.60699,0.28389 V 30.34063 c -0.84439,3.451982 -0.82304,7.127114 0,10.579096 -1.1157,2.640778 -1.06125,-5.4353 -1.11469,-4.292421 0.45117,-1.663884 -0.74998,-6.832245 -0.56787,-2.540876 0.21182,2.645615 -0.52092,5.448129 0.56787,7.948203 -2.14274,2.633838 -1.53906,-6.368279 -1.1147,-4.860285 0.44491,-1.820635 -0.77966,-6.86821 -0.56786,-2.374723 0.18687,2.650453 -0.37145,5.609445 0.28397,8.065772 -0.56383,1.244821 -6.56072,5.18523 -4.72168,4.174852 -2.76256,2.532463 -2.02587,-5.624377 -1.68256,-3.745589 0.0473,-1.315089 -0.56063,-6.928361 -1.06635,-3.630754 0.16613,3.501618 -0.40785,3.783867 -0.59518,0.141472 -0.0491,0.113243 -0.82319,4.71243 -1.398672,0.28389 -0.245359,-0.191623 -0.826936,2.769283 -0.830722,4.486336 0.04785,-3.045644 0.187584,-4.394847 -1.114696,-0.879369 1.02714,3.380053 -0.17913,-4.428919 -1.114696,-0.546832 -0.06411,-1.120059 -1.604153,0.428485 -1.114696,0.145236 -1.6039,-1.053661 -0.448339,1.506207 -2.026118,0.57043 -0.602377,3.38489 0.07599,6.971057 0.36459,10.410209 1.40111,-1.910547 -0.212634,-3.408235 1.114696,0 -2.936908,1.736718 -3.117573,0.244602 -2.797256,-2.866241 0.07342,-2.337076 -1.158106,-9.011581 -0.546832,-6.833507 v 5.546139 c -0.330791,2.120025 -3.131875,6.67135 -1.114696,6.23767 0.0986,29.362775 -0.06751,58.721342 -0.546832,88.079912 2.363156,0.67054 4.169384,-0.49328 3.323056,3.21285 v 3.07383 c -0.796061,-1.69533 -2.213197,-5.99139 -0.836106,-5.44014 -0.645661,4.02006 -0.09679,8.54803 -0.27859,12.76516 -0.04011,3.97421 1.268209,-4.16476 1.114696,0.31151 1.251635,1.72977 0.988883,-5.44035 1.114696,-0.87937 1.190096,1.5619 1.460399,-0.94535 2.229392,-2.22939 2.270404,1.0276 -0.120177,-3.02483 2.084145,-0.8032 0.340298,-1.25838 0.03146,-7.18579 0.145247,-6.26564 -0.203422,1.26716 0.695108,7.14058 0.815768,3.58827 0.462156,-3.69995 0.593756,-7.57026 -0.268936,-11.22478 -0.926565,1.92228 -0.424804,4.42051 -0.546832,6.66715 -0.120997,-1.18764 -1.617592,-2.52469 -0.609676,-4.75176 -0.08049,1.44365 -0.335502,4.14561 -0.50502,5.6311 0.651803,-1.71577 -0.574026,-4.00344 -0.583932,-4.91728 -0.156794,1.1004 -0.520963,2.10762 -0.530764,4.6058 0.311694,-1.98805 1.808563,-7.71328 0.567864,-6.12031 3.048592,-1.60584 4.726522,-5.03002 7.781842,-6.68818 0.18929,3.89786 0.37857,7.79593 0.56786,11.69379 -0.26233,-3.20149 1.08239,-6.31485 0,-9.4644 -0.41145,-3.34408 0.90333,-4.90908 0.54683,-0.67815 0.0775,3.01956 -0.29211,6.08266 0.54684,9.02777 1.20635,-3.72981 -0.089,-7.81002 0.0571,-11.68832 -0.59168,-1.93332 3.15753,-3.86926 3.85495,-4.20787 -0.1108,3.27468 0.10156,6.5317 0.54683,9.77588 1.31267,-1.00217 0.93694,-8.32236 0.56787,-6.37669 0.76525,-2.00999 -2.02717,-4.68614 0.71839,-5.67633 1.7923,-3.32831 2.09731,4.36856 2.05783,2.13181 -0.46066,0.39647 0.32726,3.49089 0.54683,4.9156 0.17287,-3.35987 -0.5235,-6.68103 -0.54683,-10.03227 2.13244,-1.21945 0.88435,8.368 1.1147,5.47716 -0.26536,2.13012 -1.73823,7.84325 -0.56787,6.61835 -0.26849,2.36084 -4.8851,6.49573 -3.79838,4.2268 -3.84717,4.37003 -7.20556,9.14177 -11.601878,13.01397 -2.143371,1.79987 -3.891131,4.60117 -6.304763,5.7451 -2.803986,0.99405 -8.042426,0.60027 -6.120312,0.54683 -3.139026,0.48491 -7.807078,-0.59855 -6.665251,-0.45366 -12.440428,-1.29767 -25.225781,-2.46916 -38.406535,-4.0066 -10.473936,-0.73822 -21.006762,-1.3839 -31.365022,-3.0244 -2.3976478,-0.0631 -3.956119,-0.49846 -3.6953222,-3.33147 V 46.491692 70.426108 C 7.2490321,61.144265 6.5786897,38.329172 7.0764919,37.595156 c 17.8183101,1.358667 35.6387241,3.074878 53.4633441,4.437752 0.346565,-0.358133 6.68439,-0.0077 5.092268,0.0908 9.586385,0.657734 19.292027,1.833191 28.853805,0.456037 4.162022,-0.85514 6.455561,-4.749867 9.748331,-6.951076 3.68628,-2.796835 6.63812,-6.527912 10.842,-8.633636 -0.19404,-0.543172 0.24828,-0.770024 0.56786,-1.093664 z"
         inkscape:connector-curvature="0"
         style="fill:#ff9955;stroke-width:0.021032"
         id="path3872" />
      <g
         id="g3916"
         style="fill:#ebebeb"
         transform="matrix(.021032 0 0 .021032 -128.16 -25.31)">
        <path
           id="path3918"
           inkscape:connector-curvature="0"
           d="m7332 2990c-123.34 0-124.12 0 0 0z" />
      </g>
      <g
         id="g3920"
         transform="matrix(.021032 0 0 .021032 -128.16 -25.31)">
        <path
           id="path3922"
           inkscape:connector-curvature="0"
           d="m11010 3467c16.593-127.54-52.917-247.02 0-371v371z" />
      </g>
      <g
         id="g3928"
         style="fill:#ffffff"
         transform="matrix(.021032 0 0 .021032 -128.16 -25.31)">
        <path
           id="path3930"
           inkscape:connector-curvature="0"
           d="m11512 3202c-362.03 223.02-632.94 575.64-1032 741 3.58 1213.7-7.167 2427.9 5.407 3641.3 7.198 126.89 14.395 253.79 21.593 380.68 177.71-26.848 314.02-241.74 251.5-172.5 108.32-105.91 230.79-193.77 318.26-317.75 163.6-163.09 337.1-315.05 515.24-461.75-241.95 226.56-443.45 492.06-700.7 702.26-98.291 98.519-168.2 235.16-312.33 267.08-140.05 118.69-120.67-256.55-129.23-128.23-30.977-1038-30.635-2076.7 4.26-3114.5-1.174-274.87 9.718-550.28-26-823.62 214.84-51.074 374.57-226.2 560.78-338.18 212.73-133.77 383.24-322.39 576.22-481.82-17.667 35.333-35.333 70.667-53 106z" />
      </g>
      <g
         id="g3984"
         style="fill:#4d4d4d"
         transform="matrix(.021032 0 0 .021032 -128.16 -25.31)">
        <path
           id="path3986"
           style="fill:#4d4d4d"
           inkscape:connector-curvature="0"
           d="m10242 4022c-56.115-43.302 22.241-355.53 0-146.81v146.8z" />
      </g>
      <g
         id="g4054"
         style="fill:#baeded"
         transform="matrix(.021032 0 0 .021032 -128.16 -25.31)">
        <path
           id="path4056"
           inkscape:connector-curvature="0"
           d="m11116 4578z" />
      </g>
      <g
         id="g4058"
         style="fill:#4d4d4d"
         transform="matrix(.021032 0 0 .021032 -128.16 -25.31)">
        <path
           id="path4060"
           style="fill:#4d4d4d"
           inkscape:connector-curvature="0"
           d="m10295 4896c-62.112-131.3 10.477-262.79 0-397v397z" />
      </g>
      <g
         id="g4086"
         style="fill:#4d4d4d"
         transform="matrix(.021032 0 0 .021032 -128.16 -25.31)">
        <path
           id="path4088"
           style="fill:#4d4d4d"
           inkscape:connector-curvature="0"
           d="m10348 4922c-67.521-47.154 19.628-340.73 0-161.62v161.6z" />
      </g>
      <g
         id="g4110"
         style="fill:#4d4d4d"
         transform="matrix(.021032 0 0 .021032 -128.16 -25.31)">
        <path
           id="path4112"
           style="fill:#4d4d4d"
           inkscape:connector-curvature="0"
           d="m10295 8389c-46.383-34.11-62.549-363.51-20.509-262.04-10.862-333.52 2.331-668.32-31.796-1001 38.981-742.76 23.474-1486.5 26.305-2229.9 45.156 1163.8 19.238 2328.6 26 3493z" />
      </g>
      <g
         id="g4130"
         style="fill:#4d4d4d"
         transform="matrix(.021032 0 0 .021032 -128.16 -25.31)">
        <path
           id="path4132"
           style="fill:#4d4d4d"
           inkscape:connector-curvature="0"
           d="m10348 5398c-73.648-132.67 15.292-282.41 0-423v423z" />
      </g>
      <g
         id="g4140"
         style="fill:#4d4d4d"
         transform="matrix(.021032 0 0 .021032 -128.16 -25.31)">
        <path
           id="path4142"
           style="fill:#4d4d4d"
           inkscape:connector-curvature="0"
           d="m10163 5504v-423c-10.71 139.66 73.114 289.51 0 423z" />
      </g>
      <g
         id="g4170"
         style="fill:#baeded"
         transform="matrix(.021032 0 0 .021032 -128.16 -25.31)">
        <path
           id="path4172"
           inkscape:connector-curvature="0"
           d="m6379 5742z" />
      </g>
      <g
         id="g4274"
         style="fill:#4d4d4d"
         transform="matrix(.021032 0 0 .021032 -128.16 -25.31)">
        <path
           id="path4276"
           style="fill:#4d4d4d"
           inkscape:connector-curvature="0"
           d="m10348 8706c-28.355-153.82-34.664-309.64-1.172-461.17-8.276-269.61-16.552-539.22-24.828-808.83 58.24-55.677 21.757-423.27 9.244-324.17-8.64-180.68-10.615-197.75-4.128-7.0521 22.137 533.62 23.161 1067.2 20.884 1601.2z" />
      </g>
      <path
         id="path4288"
         style="fill:#4d4d4d"
         inkscape:connector-curvature="0"
         d="m15.466 127.2c14.871 1.8986 29.868 2.386 44.744 4.2235 6.028 0.53489 12.098 0.48288 18.142 0.78221 0.69561-1.2497 2.9503 2.7706-1.0558 1.5563-9.2829-0.47953-18.437-2.2345-27.709-2.9139-11.752-0.95971-23.526-1.6658-35.236-3.1013-1.08 1.3883-0.93579-2.656 1.1147-0.54684z" />
      <g
         id="g4292"
         style="fill:#baeded"
         transform="matrix(.021032 0 0 .021032 -128.16 -25.31)">
        <path
           id="path4294"
           inkscape:connector-curvature="0"
           d="m6379 7304z" />
      </g>
      <g
         id="g4410"
         style="fill:#ebebeb"
         transform="matrix(.021032 0 0 .021032 -128.16 -25.31)">
        <path
           id="path4412"
           inkscape:connector-curvature="0"
           d="m11374 8182c-131 191.5-331 318.7-497 498 247-273.67 494-547.33 741-821 33.124 118.74-229.93 259.65-159 212-16.626 58.979-94.244 72.18-85.396 110.98z" />
      </g>
      <g
         id="g4438"
         style="fill:#ebebeb"
         transform="matrix(.021032 0 0 .021032 -128.16 -25.31)">
        <path
           id="path4440"
           inkscape:connector-curvature="0"
           d="m6882 8680c352.08 12.576 703.46 58.299 1054.7 88.948 301.27 39.365 602.56 78.58 903.27 122.05-785-70.333-1570-140.67-2355-211 68.628-102.45 140-51.297 204.95-38.442 35.3-2.3 154.4 38.4 192 38.4z" />
      </g>
      <path
         id="path6129"
         d="m90.936 17.588a31.344 8.7439 0 1 1 -62.687 0 31.344 8.7439 0 1 1 62.687 0z"
         style="fill:#ebebeb"
         inkscape:connector-curvature="0"
         transform="matrix(1.0472 0 0 .61538 -2.6789 -.90302)" />
      <path
         style="fill:#4d4d4d;stroke-width:1.00000381"
         d="m 28.801282,61.973891 0.112992,4.37442 -0.216567,-0.01754 c -0.06906,-0.194383 -0.122418,-0.341942 -0.160076,-0.442656 -0.219719,-0.642785 -0.398628,-1.122784 -0.536718,-1.439995 -0.244827,-0.566697 -0.599504,-1.096685 -1.064031,-1.590138 -0.351544,-0.373512 -0.715637,-0.653655 -1.09231,-0.840421 -0.376652,-0.186744 -0.800379,-0.299179 -1.271219,-0.337317 -0.709354,-0.05743 -1.324539,0.05226 -1.845556,0.329073 -0.458252,0.24286 -0.885121,0.610305 -1.280548,1.102393 -0.395486,0.492083 -0.718771,1.063257 -0.969862,1.713438 -0.357819,0.91505 -0.536719,1.974802 -0.536719,3.179264 -3e-6,1.022167 0.122409,1.953325 0.367226,2.793471 0.244817,0.840147 0.602626,1.556033 1.073457,2.147457 0.866277,1.098836 2.015039,1.706155 3.446315,1.822059 0.715618,0.05795 1.359005,-0.01853 1.930297,-0.229435 0.571234,-0.210909 1.013755,-0.538031 1.327681,-0.981359 0.364074,-0.510891 0.627725,-1.218704 0.790953,-2.123472 l 0.216567,0.0566 c -0.119286,1.019026 -0.389212,1.81423 -0.809786,2.385611 -0.401771,0.546904 -0.955742,0.944773 -1.661934,1.193513 -0.706221,0.248799 -1.523873,0.33559 -2.452886,0.260359 -0.866287,-0.07015 -1.694927,-0.270715 -2.485879,-0.601699 -1.261793,-0.531873 -2.247268,-1.388074 -2.956622,-2.568506 -0.709353,-1.180535 -1.06403,-2.548758 -1.06403,-4.104771 -10e-7,-1.191427 0.20715,-2.273302 0.62146,-3.245625 0.41431,-0.972313 0.991858,-1.734468 1.732535,-2.286445 0.571244,-0.42249 1.253937,-0.73993 2.048032,-0.952355 0.794085,-0.212374 1.589761,-0.28629 2.386998,-0.221741 0.75956,0.06152 1.563052,0.276331 2.410565,0.644433 l 0.772119,0.3262 c 0.150649,0.07081 0.282475,0.110783 0.395476,0.119913 0.156924,0.01272 0.285607,-0.04522 0.38606,-0.173822 0.04393,-0.06154 0.09729,-0.164639 0.160076,-0.30931 z"
         inkscape:connector-curvature="0"
         id="path3183" />
      <path
         style="fill:#4d4d4d;stroke-width:1.00000381"
         d="m 30.251608,71.368961 c 0,-1.054655 0.376642,-1.964952 1.129918,-2.730791 0.916503,-0.928387 2.011897,-1.340949 3.286258,-1.237854 1.274264,0.103197 2.366574,0.692962 3.276832,1.769329 0.753286,0.894348 1.129919,1.868914 1.129919,2.923569 -10e-6,1.041721 -0.357819,1.940406 -1.073457,2.696359 -0.878846,0.931447 -1.989901,1.342832 -3.333294,1.234045 -1.343392,-0.108787 -2.457599,-0.700322 -3.34272,-1.774665 -0.34526,-0.418586 -0.610482,-0.876265 -0.795666,-1.373076 -0.185184,-0.496771 -0.277771,-0.999069 -0.277771,-1.506914 z m 1.713779,0.03136 c -2e-6,1.132868 0.244818,2.112942 0.734462,2.940326 0.55241,0.923654 1.227229,1.417801 2.024466,1.482361 0.338975,0.02745 0.668544,-0.04352 0.988715,-0.212908 0.320142,-0.169384 0.596352,-0.420457 0.82862,-0.75322 0.244817,-0.344762 0.442551,-0.786113 0.593219,-1.324052 0.15065,-0.53793 0.225984,-1.064055 0.225984,-1.578449 -8e-6,-0.533856 -0.08005,-1.079061 -0.240114,-1.635645 -0.160076,-0.556585 -0.375081,-1.041126 -0.645007,-1.453653 -0.514752,-0.777366 -1.145629,-1.19631 -1.892591,-1.256799 -0.709353,-0.05743 -1.321396,0.280373 -1.836129,1.013407 -0.521028,0.732566 -0.781536,1.658725 -0.781536,2.778557 z"
         inkscape:connector-curvature="0"
         id="path3185" />
      <path
         style="fill:#4d4d4d;stroke-width:1.00000381"
         d="m 40.233028,72.177252 c -10e-7,-1.054655 0.376642,-1.964953 1.129918,-2.730792 0.916503,-0.928387 2.011897,-1.340949 3.286259,-1.237854 1.274263,0.103198 2.366573,0.692962 3.276832,1.76933 0.753285,0.894347 1.129918,1.868913 1.129918,2.923568 -9e-6,1.041721 -0.357819,1.940406 -1.073457,2.69636 -0.878846,0.931446 -1.989901,1.342832 -3.333293,1.234044 -1.343393,-0.108787 -2.4576,-0.700322 -3.342721,-1.774665 -0.345259,-0.418586 -0.610481,-0.876265 -0.795666,-1.373076 -0.185184,-0.496771 -0.277771,-0.999068 -0.277771,-1.506914 z m 1.71378,0.03136 c -3e-6,1.132868 0.244817,2.112943 0.734451,2.940325 0.55241,0.923654 1.227229,1.417801 2.024466,1.482361 0.338976,0.02745 0.668544,-0.04352 0.988715,-0.212908 0.320142,-0.169383 0.596352,-0.420456 0.82862,-0.75322 0.244808,-0.344762 0.442551,-0.786113 0.59322,-1.324051 0.150649,-0.53793 0.225983,-1.064056 0.225983,-1.57845 -7e-6,-0.533856 -0.08005,-1.079061 -0.240113,-1.635645 -0.160086,-0.556585 -0.375082,-1.041125 -0.645007,-1.453652 -0.514753,-0.777367 -1.14563,-1.196311 -1.892591,-1.2568 -0.709354,-0.05743 -1.321397,0.280373 -1.83613,1.013408 -0.521027,0.732565 -0.781546,1.658723 -0.781536,2.778557 z"
         inkscape:connector-curvature="0"
         id="path3187" />
      <path
         style="fill:#4d4d4d;stroke-width:1.00000381"
         d="m 52.699738,73.361964 1.71378,-1.804631 c 0.351534,-0.381684 0.586935,-0.66699 0.706211,-0.855909 0.119266,-0.18891 0.1789,-0.384278 0.178909,-0.586103 -4e-6,-0.279949 -0.138109,-0.486441 -0.414309,-0.619498 -0.119277,-0.06174 -0.342128,-0.115593 -0.668545,-0.161559 v -0.205085 l 3.625225,0.293569 v 0.205085 c -0.458262,-0.0371 -0.82863,0.01429 -1.111065,0.154167 -0.282495,0.139895 -0.652853,0.44845 -1.111065,0.925667 l -0.376643,0.40896 -1.026324,1.059432 2.42932,3.028793 c 0.200865,0.244133 0.332691,0.401295 0.395476,0.471486 l 0.423727,0.483539 c 0.338975,0.379022 0.583793,0.63973 0.734461,0.782143 0.15065,0.142412 0.329559,0.280595 0.536719,0.414558 0.238533,0.149529 0.546126,0.255818 0.922778,0.318867 v 0.195319 l -4.416177,-0.357619 v -0.195319 c 0.263641,-0.0047 0.448825,-0.03527 0.555552,-0.09173 0.15065,-0.08546 0.225984,-0.216075 0.225984,-0.391861 -7e-6,-0.188801 -0.09103,-0.39474 -0.273068,-0.617826 l -0.197743,-0.250387 -2.27869,-2.801714 -0.574385,0.607788 v 0.712901 l 0.0094,0.742963 c -3e-6,0.442719 0.02511,0.768644 0.07534,0.977797 0.05022,0.209152 0.147516,0.387929 0.291901,0.536341 0.175767,0.19002 0.499051,0.34966 0.969862,0.478933 V 77.41635 L 49.893864,77.080079 V 76.88476 c 0.376643,-0.02158 0.646568,-0.07297 0.809786,-0.154154 0.163208,-0.08119 0.295034,-0.231646 0.395477,-0.451379 0.06905,-0.144154 0.117695,-0.366452 0.145945,-0.666904 0.02825,-0.300452 0.04237,-0.737139 0.04237,-1.310101 v -7.666108 c -2e-6,-0.664058 -0.01569,-1.134037 -0.04708,-1.410121 -0.0324,-0.276574 -0.102122,-0.504231 -0.208171,-0.681873 -0.107032,-0.190961 -0.235666,-0.331733 -0.385903,-0.422316 -0.151218,-0.08964 -0.367245,-0.156021 -0.650044,-0.198271 v -0.205086 l 2.702397,-0.132733 z"
         inkscape:connector-curvature="0"
         id="path3189" />
      <path
         style="fill:#4d4d4d;stroke-width:1.00000381"
         d="m 60.722188,69.373825 -0.20715,-0.01677 -0.461394,-3.074538 c -0.04394,-0.283496 -0.06592,-0.535935 -0.06592,-0.757304 -10e-7,-0.319004 0.05806,-0.582854 0.174196,-0.791571 0.116134,-0.208685 0.258938,-0.306172 0.42843,-0.292456 0.194601,0.01577 0.353106,0.132776 0.475515,0.351013 0.122408,0.218257 0.183613,0.493405 0.183613,0.825423 -2e-6,0.201837 -0.02198,0.453965 -0.06592,0.756395 z"
         inkscape:connector-curvature="0"
         id="path3191" />
      <path
         style="fill:#4d4d4d;stroke-width:1.00000381"
         d="m 62.859871,78.131027 v -2.763734 l 0.150659,0.0122 c 0.175767,0.691327 0.395476,1.249523 0.659127,1.674465 0.48336,0.774834 1.048319,1.188431 1.694927,1.240792 0.395476,0.03203 0.737594,-0.06396 1.026324,-0.287983 0.313867,-0.248024 0.470801,-0.622694 0.470801,-1.123971 -5e-6,-0.410161 -0.113002,-0.777391 -0.338986,-1.101659 -0.125551,-0.172928 -0.284055,-0.335499 -0.475514,-0.487734 -0.191468,-0.152225 -0.513181,-0.370337 -0.965149,-0.654337 -0.790952,-0.500252 -1.318254,-0.90754 -1.581905,-1.221864 -0.376643,-0.447168 -0.564969,-0.944193 -0.564969,-1.491064 -1e-6,-0.585936 0.188316,-1.075253 0.564969,-1.467897 0.433143,-0.446688 1.007568,-0.641064 1.723108,-0.58313 0.320142,0.02593 0.618318,0.10867 0.894528,0.248224 l 0.320152,0.172413 c 0.100432,0.0472 0.188316,0.07385 0.26365,0.07995 0.119267,0.0097 0.232259,-0.07885 0.338986,-0.265523 l 0.188326,0.01525 0.103575,2.22524 -0.197743,-0.01601 c -0.06906,-0.318088 -0.142813,-0.57472 -0.22128,-0.769885 -0.07848,-0.195156 -0.189898,-0.386473 -0.334272,-0.57395 -0.194601,-0.263148 -0.420595,-0.475139 -0.677961,-0.635959 -0.257376,-0.160811 -0.51161,-0.251384 -0.762702,-0.271727 -0.351535,-0.02846 -0.651282,0.0791 -0.899241,0.322696 -0.24796,0.243604 -0.37194,0.557456 -0.37194,0.941577 -1e-6,0.319023 0.111421,0.616131 0.334272,0.891334 0.222842,0.275212 0.566531,0.539048 1.031037,0.791505 l 0.998143,0.549588 c 0.596351,0.328251 1.042034,0.712655 1.337107,1.153259 0.295034,0.44057 0.442551,0.944057 0.442561,1.510481 -6e-6,0.683601 -0.213435,1.232701 -0.640294,1.64735 -0.489644,0.481189 -1.11735,0.690773 -1.883263,0.62875 -0.41431,-0.03355 -0.834904,-0.15225 -1.261793,-0.356087 -0.27621,-0.133047 -0.44256,-0.209995 -0.499051,-0.230844 -0.0565,-0.02085 -0.128693,-0.03483 -0.216567,-0.04195 -0.219709,-0.01779 -0.386059,0.06639 -0.499051,0.25256 z"
         inkscape:connector-curvature="0"
         id="path3193" />
      <path
         style="fill:#4d4d4d;stroke-width:1.00000381"
         d="m 17.2193,99.43476 v -0.224608 c 0.364084,0.01 0.657556,-0.01999 0.880407,-0.08984 0.222842,-0.06984 0.419014,-0.189057 0.588506,-0.357625 0.200876,-0.192068 0.335843,-0.444812 0.404893,-0.758234 0.06905,-0.313422 0.103576,-0.805426 0.103576,-1.476032 v -7.197339 c -2e-6,-0.670576 -0.03452,-1.168151 -0.103576,-1.492807 C 19.023386,87.51387 18.887881,87.239131 18.687565,87.014138 18.51769,86.81198 18.32032,86.659532 18.094474,86.556716 17.868627,86.452881 17.576009,86.377247 17.218583,86.328953 v -0.224608 l 6.186418,0.500973 c 0.627735,0.05085 1.038893,0.09065 1.233513,0.119422 0.715619,0.116559 1.308828,0.340383 1.779668,0.671464 0.408026,0.293477 0.723464,0.660817 0.946316,1.102059 0.222841,0.441242 0.334262,0.925532 0.334272,1.45283 -1.1e-5,0.852888 -0.254244,1.532166 -0.762703,2.037872 -0.182051,0.187094 -0.389211,0.337957 -0.62146,0.452611 -0.232277,0.114662 -0.568111,0.235582 -1.007568,0.362746 0.602626,0.152972 1.070314,0.304784 1.402996,0.455409 0.332691,0.150646 0.634009,0.347574 0.903944,0.590782 0.401741,0.37109 0.714047,0.817927 0.936908,1.34052 0.222842,0.522612 0.334263,1.076937 0.334272,1.662823 -1.2e-5,0.592453 -0.114572,1.12522 -0.343688,1.598146 -0.229136,0.472985 -0.547717,0.842703 -0.955732,1.109143 -0.370378,0.23694 -0.811368,0.386771 -1.322968,0.449515 -0.51162,0.0627 -1.231942,0.0565 -2.160956,-0.01874 z m 4.039505,-12.700256 v 5.800806 l 0.762702,0.06176 c 0.357809,0.02898 0.728177,0.03293 1.111065,0.01185 0.332701,-0.02514 0.601055,-0.06526 0.805073,-0.120358 0.204008,-0.05508 0.390763,-0.137625 0.560256,-0.247605 0.320142,-0.221464 0.56653,-0.518896 0.739165,-0.892306 0.172625,-0.373389 0.258937,-0.794464 0.258947,-1.263233 -9e-6,-0.49479 -0.08946,-0.972413 -0.268364,-1.432928 C 25.04873,88.192049 24.811758,87.826176 24.516734,87.554834 24.259348,87.31916 23.965886,87.148909 23.636327,87.044079 23.306758,86.93928 22.806136,86.859674 22.13445,86.805271 Z m 0,6.103577 v 4.023494 c -5e-6,0.488292 0.03295,0.884848 0.09887,1.189656 0.06591,0.304819 0.174196,0.567505 0.324855,0.78804 0.320142,0.462126 0.86942,0.724707 1.647794,0.787739 1.010613,0.08184 1.809421,-0.13994 2.396424,-0.665326 0.586926,-0.525392 0.880398,-1.282872 0.880408,-2.272451 -10e-6,-0.566414 -0.09104,-1.099504 -0.273068,-1.599309 -0.182052,-0.499765 -0.426869,-0.892325 -0.734462,-1.177679 -0.564978,-0.527516 -1.450128,-0.840088 -2.655362,-0.937697 z"
         inkscape:connector-curvature="0"
         id="path3195" />
      <path
         style="fill:#4d4d4d;stroke-width:1.00000381"
         d="m 38.057049,100.17508 0.160075,0.11062 c -0.225993,0.6653 -0.743878,0.96518 -1.553625,0.89961 -0.445703,-0.0361 -0.816071,-0.18002 -1.111065,-0.43178 -0.194601,-0.1655 -0.395486,-0.44219 -0.602636,-0.830055 -0.420595,0.356565 -0.737604,0.588065 -0.951029,0.694485 -0.408035,0.20133 -0.881978,0.28015 -1.421849,0.23643 -0.69052,-0.0559 -1.238226,-0.2728 -1.64308,-0.65064 -0.404893,-0.377838 -0.60734,-0.859733 -0.60734,-1.44571 -1e-6,-0.540373 0.166351,-0.979377 0.499051,-1.317012 0.188317,-0.186577 0.404894,-0.33017 0.649711,-0.430791 0.244817,-0.100611 0.599494,-0.193965 1.06403,-0.280052 0.546135,-0.099 0.949457,-0.186787 1.209947,-0.263347 0.260508,-0.07656 0.478646,-0.176081 0.654423,-0.298578 0.200876,-0.133468 0.338976,-0.298071 0.41431,-0.493797 0.07532,-0.195716 0.112992,-0.472624 0.112992,-0.830704 -6e-6,-0.761723 -0.13811,-1.329503 -0.41431,-1.703523 -0.125551,-0.172917 -0.287198,-0.31622 -0.484931,-0.429897 -0.197743,-0.113657 -0.403322,-0.179137 -0.616756,-0.196431 -0.257377,-0.02083 -0.486503,0.02897 -0.687378,0.149422 -0.200885,0.120462 -0.351535,0.297064 -0.451977,0.529812 l -0.235401,0.547352 c -0.125551,0.295831 -0.351534,0.430525 -0.677961,0.404092 -0.213434,-0.01728 -0.392344,-0.105005 -0.536718,-0.263194 -0.144385,-0.158168 -0.216577,-0.347937 -0.216567,-0.569306 -1e-6,-0.332029 0.225984,-0.593677 0.677961,-0.784953 0.244817,-0.09735 0.547706,-0.16886 0.908658,-0.214503 0.360951,-0.04563 0.714057,-0.05447 1.059316,-0.02653 0.389192,0.03153 0.794086,0.116396 1.21466,0.254616 0.420585,0.138231 0.772119,0.300169 1.054604,0.485795 0.408025,0.273934 0.662259,0.607028 0.762702,0.999272 0.05022,0.199385 0.07532,0.530199 0.07533,0.992441 v 3.613283 c -7e-6,0.611987 0.0251,1.030719 0.07532,1.256084 0.106708,0.470899 0.364084,0.722859 0.772119,0.755899 0.194591,0.0158 0.346821,-0.008 0.456681,-0.0704 0.109849,-0.0627 0.240104,-0.1954 0.390773,-0.39805 z m -3.10735,-4.099352 c -0.338985,0.265522 -0.712495,0.492442 -1.120491,0.680762 -0.458252,0.216798 -0.775262,0.383197 -0.951029,0.499166 -0.175767,0.115979 -0.335843,0.259269 -0.480227,0.429871 -0.295044,0.35372 -0.442561,0.781234 -0.442561,1.282582 -2e-6,0.429694 0.114563,0.793792 0.343689,1.092261 0.229126,0.29851 0.519456,0.462 0.870991,0.49046 0.307592,0.0249 0.597923,-0.0509 0.87099,-0.22732 0.273058,-0.17645 0.478647,-0.425107 0.616757,-0.745963 0.194591,-0.420443 0.291891,-1.044053 0.291901,-1.870891 z"
         inkscape:connector-curvature="0"
         id="path3197" />
      <path
         style="fill:#4d4d4d;stroke-width:1.00000381"
         d="m 41.060803,97.420151 1.71378,-1.804632 c 0.351534,-0.381683 0.586935,-0.66699 0.706211,-0.855909 0.119267,-0.188909 0.1789,-0.384277 0.17891,-0.586103 -6e-6,-0.279948 -0.13811,-0.486441 -0.41431,-0.619497 -0.119277,-0.06174 -0.342128,-0.115593 -0.668544,-0.161559 v -0.205086 l 3.625224,0.293569 v 0.205086 c -0.458262,-0.0371 -0.82863,0.01429 -1.111065,0.154167 -0.282494,0.139895 -0.652853,0.44845 -1.111065,0.925667 l -0.376643,0.408959 -1.026324,1.059432 2.42932,3.028794 c 0.200866,0.244133 0.332691,0.401295 0.395476,0.471485 l 0.423727,0.483536 c 0.338975,0.37903 0.583793,0.63973 0.734462,0.78215 0.150649,0.14241 0.329558,0.28059 0.536718,0.41455 0.238533,0.14953 0.546126,0.25582 0.922778,0.31887 v 0.19532 l -4.416177,-0.35762 v -0.19532 c 0.263641,-0.005 0.448826,-0.0353 0.555553,-0.0917 0.150649,-0.0854 0.225983,-0.21607 0.225983,-0.39186 -7e-6,-0.1888 -0.09103,-0.39474 -0.273067,-0.61783 l -0.197744,-0.25038 -2.27869,-2.801717 -0.574385,0.607788 v 0.7129 l 0.0094,0.742964 c -3e-6,0.442718 0.02511,0.768645 0.07533,0.977795 0.05022,0.20915 0.147517,0.38793 0.291901,0.53634 0.175767,0.19002 0.499051,0.34966 0.969862,0.47894 v 0.19531 l -4.152526,-0.33626 v -0.19532 c 0.376643,-0.0216 0.646568,-0.073 0.809786,-0.15416 0.163209,-0.0812 0.295034,-0.23164 0.395477,-0.45138 0.06905,-0.14415 0.117695,-0.366448 0.145945,-0.6669 0.02825,-0.300452 0.04237,-0.73714 0.04237,-1.310102 v -7.666107 c -2e-6,-0.664058 -0.01569,-1.134037 -0.04708,-1.410122 -0.0324,-0.275555 -0.102122,-0.503212 -0.208171,-0.680854 -0.107032,-0.190961 -0.235666,-0.331733 -0.385903,-0.422316 -0.151218,-0.08964 -0.367245,-0.156021 -0.650044,-0.198271 v -0.205086 l 2.702397,-0.132733 z"
         inkscape:connector-curvature="0"
         id="path3199" />
      <path
         style="fill:#4d4d4d;stroke-width:1.00000381"
         d="m 48.001155,93.811829 2.702397,-0.132733 v 5.644584 l 0.0094,0.74296 c -3e-6,0.44272 0.02511,0.76865 0.07532,0.9778 0.05022,0.20915 0.147517,0.38793 0.291902,0.53634 0.175767,0.19002 0.499051,0.34966 0.969862,0.47893 v 0.19532 l -4.152526,-0.33627 v -0.19532 c 0.376642,-0.0216 0.646568,-0.073 0.809786,-0.15415 0.163208,-0.0812 0.295034,-0.23165 0.395476,-0.45138 0.06905,-0.14415 0.117696,-0.36645 0.145956,-0.6669 0.02825,-0.30045 0.04237,-0.737141 0.04237,-1.310103 v -2.412183 c -10e-7,-0.670575 -0.01569,-1.142184 -0.04708,-1.415009 -0.03139,-0.272724 -0.100443,-0.498046 -0.207151,-0.675965 -0.106717,-0.190926 -0.2354,-0.333188 -0.386059,-0.426779 -0.150659,-0.09357 -0.367226,-0.16157 -0.64971,-0.203978 z m 1.958577,-3.679338 c -0.244817,-0.01981 -0.447263,-0.117589 -0.607339,-0.293323 -0.160076,-0.175713 -0.240114,-0.38727 -0.240114,-0.63469 -2e-6,-0.240872 0.08161,-0.437719 0.244817,-0.590532 0.163209,-0.152783 0.364084,-0.219526 0.602636,-0.200229 0.238543,0.01933 0.439419,0.118604 0.602637,0.297831 0.163208,0.179246 0.244817,0.389311 0.244817,0.630183 -3e-6,0.24741 -0.08004,0.446014 -0.240114,0.595801 -0.160076,0.149808 -0.362522,0.214795 -0.60734,0.194959 z"
         inkscape:connector-curvature="0"
         id="path3201" />
      <path
         style="fill:#4d4d4d;stroke-width:1.00000381"
         d="m 55.241981,94.046839 c 0.08788,0.38474 0.131825,0.73986 0.131825,1.065331 v 0.156253 c 0.778394,-0.731237 1.704353,-1.053409 2.777712,-0.966489 0.803502,0.06508 1.450031,0.312742 1.939724,0.743025 0.48335,0.423271 0.725035,0.989724 0.725045,1.699356 v 4.140715 c -9e-6,0.44272 0.0251,0.76864 0.07532,0.97779 0.05021,0.20915 0.147507,0.38793 0.291901,0.53634 0.175757,0.19002 0.499041,0.34966 0.969862,0.47894 v 0.19532 l -4.152526,-0.33627 v -0.19532 c 0.376643,-0.0216 0.646568,-0.073 0.809786,-0.15416 0.163208,-0.0812 0.295034,-0.23164 0.395477,-0.45137 0.06905,-0.14416 0.117695,-0.36646 0.145945,-0.66691 0.02824,-0.30045 0.04237,-0.73388 0.04237,-1.300323 v -2.070305 c -7e-6,-0.709642 -0.02355,-1.232338 -0.07062,-1.56825 -0.04713,-0.335815 -0.13649,-0.609872 -0.26807,-0.822171 -0.144345,-0.23981 -0.351534,-0.43379 -0.621568,-0.582957 -0.270033,-0.148149 -0.568543,-0.236481 -0.894547,-0.262881 -0.351544,-0.02846 -0.679532,0.0166 -0.984002,0.135158 -0.30446,0.118583 -0.544564,0.294458 -0.720332,0.527614 -0.188326,0.245175 -0.312306,0.529738 -0.371939,0.853679 -0.05964,0.32396 -0.08946,0.866798 -0.08946,1.62851 v 1.914083 l 0.0094,0.723433 c -3e-6,0.44272 0.02511,0.76864 0.07533,0.97779 0.05022,0.20916 0.147517,0.38793 0.291902,0.53635 0.175767,0.19001 0.499051,0.34966 0.969862,0.47893 v 0.19532 l -4.152526,-0.33627 v -0.19532 c 0.376643,-0.0216 0.646568,-0.073 0.809786,-0.15416 0.163208,-0.0812 0.295034,-0.23164 0.395476,-0.45137 0.06905,-0.14416 0.117696,-0.36646 0.145946,-0.66691 0.02825,-0.30045 0.04237,-0.73714 0.04237,-1.310099 v -2.412182 c -2e-6,-0.670576 -0.01569,-1.142185 -0.04708,-1.41501 -0.03139,-0.272724 -0.100443,-0.498045 -0.20715,-0.675965 -0.106717,-0.190925 -0.235401,-0.333188 -0.38606,-0.426779 -0.150659,-0.09357 -0.367226,-0.161569 -0.64971,-0.203978 v -0.195319 z"
         inkscape:connector-curvature="0"
         id="path3203" />
      <path
         style="fill:#4d4d4d;stroke-width:1.00000381"
         d="m 64.977916,104.13222 -0.169493,0.0351 c -0.10605,-0.19088 -0.213081,-0.32583 -0.319131,-0.40672 -0.107031,-0.08 -0.238611,-0.12626 -0.395721,-0.13898 -0.263651,-0.0213 -0.478657,0.0654 -0.645007,0.26027 -0.166351,0.19487 -0.249531,0.45832 -0.249531,0.79035 -10e-7,0.52735 0.254234,0.98089 0.762702,1.36063 0.508469,0.37972 1.158199,0.60161 1.949151,0.66566 0.841169,0.0681 1.520731,-0.064 2.038606,-0.39644 0.517885,-0.33242 0.776822,-0.79811 0.776832,-1.39707 -7e-6,-0.48178 -0.172635,-0.86523 -0.517885,-1.15037 -0.34526,-0.28512 -0.838036,-0.45361 -1.47831,-0.50546 l -1.497164,-0.12124 c -0.615186,-0.0498 -1.111065,-0.23972 -1.487738,-0.5697 -0.389201,-0.34403 -0.583802,-0.73414 -0.583802,-1.17037 -1e-6,-0.46224 0.20715,-0.81005 0.62146,-1.04344 0.213434,-0.11293 0.602626,-0.22138 1.167625,-0.32537 -0.546136,-0.30464 -0.969862,-0.682389 -1.27122,-1.133258 -0.301318,-0.450835 -0.451977,-0.933414 -0.451977,-1.447797 -1e-6,-0.657551 0.2354,-1.224404 0.706211,-1.700672 0.2762,-0.283622 0.602627,-0.494822 0.979279,-0.633599 0.376643,-0.138768 0.762702,-0.192134 1.158198,-0.160117 0.602627,0.04881 1.217802,0.319987 1.845557,0.81352 0.295033,-0.21699 0.560255,-0.36641 0.795666,-0.44827 0.2354,-0.08184 0.491205,-0.111588 0.767415,-0.08922 0.307583,0.02492 0.555543,0.113352 0.743879,0.265324 0.225983,0.187578 0.338975,0.405063 0.338985,0.652463 -9e-6,0.149745 -0.04395,0.271521 -0.131825,0.365308 -0.08789,0.09381 -0.197744,0.135362 -0.329569,0.124677 -0.200885,-0.01626 -0.382927,-0.141679 -0.546135,-0.376265 l -0.216567,-0.310511 c -0.119276,-0.165902 -0.288769,-0.257759 -0.508468,-0.27555 -0.232268,-0.0188 -0.477086,0.08182 -0.734452,0.301853 0.508468,0.685721 0.762702,1.370407 0.762702,2.053957 -7e-6,0.852879 -0.364094,1.497199 -1.09231,1.933069 -0.364094,0.217918 -0.756428,0.352168 -1.177052,0.402728 -0.12555,0.009 -0.524169,0.01 -1.195806,8.2e-4 -0.922778,-0.0161 -1.384143,0.21345 -1.384143,0.6887 -10e-7,0.41667 0.392334,0.65679 1.177052,0.72033 l 1.553625,0.12581 c 0.546136,0.0442 1.007471,0.13205 1.384143,0.26347 0.376643,0.13141 0.706201,0.31598 0.988715,0.5537 0.5524,0.46792 0.82861,1.08601 0.82862,1.85419 -8e-6,0.84636 -0.320152,1.4812 -0.960445,1.90464 -0.659137,0.43491 -1.625896,0.60077 -2.90016,0.49758 -1.368432,-0.11082 -2.338294,-0.47582 -2.909586,-1.095 -0.364094,-0.40059 -0.546136,-0.87758 -0.546136,-1.43098 0,-0.43621 0.134968,-0.79475 0.404893,-1.07564 0.269926,-0.28088 0.599494,-0.40556 0.988716,-0.37404 0.282484,0.0229 0.513171,0.12944 0.692081,0.31972 0.178909,0.19027 0.268354,0.42863 0.268364,0.7151 z m -0.41431,-6.518005 c -2e-6,0.703144 0.142813,1.28762 0.42843,1.753448 0.285617,0.465848 0.651281,0.716817 1.097023,0.752907 0.451968,0.0366 0.803502,-0.154665 1.054604,-0.573791 0.251092,-0.419117 0.376643,-1.019267 0.376643,-1.800583 -5e-6,-0.807296 -0.163218,-1.465049 -0.489635,-1.973287 -0.238543,-0.377386 -0.546135,-0.58133 -0.922778,-0.61184 -0.451977,-0.03659 -0.816071,0.1683 -1.09231,0.614679 -0.13811,0.223201 -0.24796,0.500771 -0.329569,0.832699 -0.08161,0.331948 -0.122408,0.667181 -0.122408,1.005727 z"
         inkscape:connector-curvature="0"
         id="path3205" />
      <path
         id="path3025"
         style="fill:#4d4d4d"
         inkscape:connector-curvature="0"
         d="m16.939 147.9c-3.0895-0.63633-6.7291-3.2596-6.0414-6.7921 1.1063-4.7905 6.7287-7.0755 11.367-6.1238 2.4995 0.99118 4.9436 2.2227 7.6785 2.1872 15.972 1.7094 31.964 2.9993 47.944 4.5052 2.5818-0.58688 4.9041 2.4355 3.5368 4.4516-3.99 0.56585-8.1182 0.0541-12.168 0.0688-13.887-0.30552-27.781-0.60169-41.642-0.37536-2.9532-0.53568-4.791 2.1343-7.6072 2.197-1.0161 0.0489-2.0512 0.0713-3.0679-0.11856zm61.975-3.0882c1.7101-2.8207-5.3049-1.8698-1.1744 0.0578 0.39181 0.0794 0.80695 0.0841 1.1744-0.0578z" />
      <path
         id="path3023"
         style="fill:#4d4d4d"
         inkscape:connector-curvature="0"
         d="m16.939 147.9c-3.007-0.62455-6.5789-3.1287-6.0725-6.5643 0.76767-4.277 5.4694-6.5131 9.5333-6.4616 2.3791-0.19636 5.528 1.9198 7.0699 2.3008-1.1676-0.0946-2.4554-0.68049-1.111 0.81201 1.3402 2.7483-0.35979 5.6483-2.5592 7.1479 0.85509 0.40146 4.4981-0.12637 6.3763 0.006 4.017-0.11043 8.0596 0.0137 12.057-0.29078 1.5723 0.15474 1.0194-4.2084 0.71894-1.2862-2.648 0.34869 0.55722-1.3574-0.38944-2.8037 0.48455-2.7634-3.6529-2.0631-5.3327-2.5509-2.7306-0.38847 1.9734 0.002 2.7585 0.0909 12.822 1.2458 25.659 2.1355 38.477 3.457 2.5023-0.75637 4.7657 3.7638 2.3771 4.5026-6.4286 0.30364-12.913-0.20803-19.365-0.24223-11.654-0.14989-23.324-0.47683-34.951-0.14651-2.9192 0.0724-5.0191 2.9128-8.2075 2.1702-0.46001-0.0209-0.92372-0.0421-1.3793-0.14112zm2.6407-3.0354c3.1852-1.4869-2.6973-4.129-2.142-0.86118 0.31035 0.87568 1.3886 1.0507 2.142 0.86118zm59.374-0.0642c1.5225-2.9889-5.3546-1.762-1.204 0.0712 0.40247 0.0787 0.82948 0.0814 1.204-0.0712zm-35.627-3.2245c-0.571-0.11868 0.17562 0.18451 0 0zm-14.012 1.9766c1.0263-0.15467 3.8398-0.34151 4.1998 0.22092-1.2848 0.21885-3.0212 0.19092-4.1998-0.22092zm9.6027-0.28883c-2.0444-1.8138 2.2639 0.89981 2.4981-1.3104 0.70649 1.2582-1.6513 1.9365-2.4981 1.3104zm-3.5765-0.30842c1.0861-0.38389 1.1398-4.5988 2.7736-2.8624-2.0916-0.26811-0.95666 2.565-2.3115 3.0914l-0.37884-0.0571-0.0833-0.17191zm-2.991-0.32966c0.05866-0.87685 0.46644-4.2692 0.71752-3.5825-0.2114 1.1104-0.1307 2.807-0.71752 3.5825zm7.2297-0.80965c-2.5126-1.0719 0.48816-0.98276 1.0269 0.19655-0.28184 0.23607-0.72489-0.14856-1.0269-0.19655zm-0.40912-1.2104c0.06621-1.5685 4.0288 0.32255 1.2471 0.0782-0.41769-0.37997-0.91582 0.10292-1.2471-0.0782zm-4.8892-0.51894c0.74405-1.0458 2.6225 0.66213 0.44794 0.17298l-0.24195-0.0384-0.20599-0.13462zm-4.2128-0.52336c0.79758-1.3447 2.3863 0.98987 0 0zm4.4274-1.7316c0.86732-0.0507 1.0333 0.17088 0 0zm-4.4419-0.43809c0.87442 0.005 0.27392 0.13892 0 0zm-1.9394-0.20599c0.8758-0.0526 0.03761 0.16649 0 0z" />
      <path
         id="path3019"
         style="fill:#4d4d4d"
         inkscape:connector-curvature="0"
         d="m16.939 147.9c-2.8691-0.61266-6.2848-2.8701-5.9918-6.1625 0.01665-0.14526 0.79913 3.6103 2.3563 3.941 3.0764 2.0437 6.8622 1.3908 9.92 0.12245 3.8844-0.75199 7.9557-0.38593 11.927-0.52453 8.4088-0.1002 16.852 0.22913 25.24-0.12506 0.89798-1.4259-0.30796-5.1421-1.4787-4.9728 6.9057 0.59241 13.83 0.93065 20.721 1.8179 2.416-0.0484 3.3589 5.226 0.18756 4.348-9.7789 0.0103-19.58-0.45354-29.364-0.5038-8.3968-0.0344-16.824-0.33032-25.185 0.12285-2.4111 1.2715-4.9942 2.6566-7.9597 2.0015l-0.37341-0.0651zm61.973-2.9728c2.2019 0.6528 0.66565-3.1332 0.1914-1.7852 0.29693 0.45147-3.9233-1.2997-2.4068 1.1041 0.56128 0.54994 1.4675 0.96233 2.2154 0.68111zm-63.577 1.3981c-2.9217-0.56716-4.8728-4.1196-3.3295-6.6695 2.2268-4.1283 8.1594-5.8999 12.459-3.4017 2.8206 1.6248 2.8143 5.6663 0.57212 7.5368-0.85004 0.93828-2.9136 2.2389-1.549 0.0938 0.66174-2.8207-2.6082-5.0064-5.1428-4.7103-2.9989-0.30555-5.9196 3.4518-3.3469 5.9626 0.7861 0.86057 3.2212 1.8754 0.33712 1.1882zm30.271-2.792c1.2237-0.49341-0.26572 0.25447-0.000003 0h0.000003zm-1.6853-1.6359c0.44693-0.40286 0.43329 0.10524 0 0z" />
      <path
         id="path3017"
         style="fill:#4d4d4d"
         inkscape:connector-curvature="0"
         d="m17.365 147.96c-2.4897-0.4984-5.6055-2.0652-6.1506-4.6244 1.8301 3.8151 6.8632 4.4065 10.304 3.1277 3.7245-1.5383 7.97-0.89591 11.958-1.1124 12.311-0.0865 24.646 0.22338 36.953 0.10007 2.4942-0.0219-1.4781-4.5353 0.42781-4.148 3.2345 0.21065 6.5247 0.22983 9.7157 0.99574 1.7217 1.2991 1.7114 4.9725-1.2581 4.0425-11.669-0.13768-23.35-0.54439-35.017-0.60357-6.4621 0.00084-12.954-0.24254-19.378 0.23253-2.0836 1.4398-4.5986 2.4327-7.2782 2.0329l-0.2774-0.043zm62.683-3.2183c0.9568-1.6633-1.669-2.989-1.6149-1.7191-2.3426-1.229-2.7283 1.8347-0.35783 1.9607 0.5897-0.12405 1.6656 0.45651 1.9727-0.24155zm-66.105 0.91448c-2.601-1.2931-2.973-4.8603-1.2536-6.846 2.5955-3.4682 8.1689-4.8916 12.075-2.2426 2.7147 1.8288 2.2445 5.9783-0.27055 7.4565 0.60513-2.1528-0.77792-4.6169-2.917-5.5106-3.2084-1.5876-8.0396-0.47098-8.742 3.2869-0.54575 1.5465 1.461 3.3254 1.6201 4.0953l-0.51249-0.23966z" />
      <path
         id="path3015"
         style="fill:#4d4d4d"
         inkscape:connector-curvature="0"
         d="m17.311 147.91c-2.0171-0.42137-4.1387-1.3764-5.3789-3.1192 2.487 2.4414 6.2562 2.7514 9.3111 1.8335 3.8321-1.6563 8.2308-1.0089 12.359-1.2191 14.524-0.0723 29.066 0.23067 43.599 0.36904-0.5694-0.15867-3.4566-2.9476-0.93446-3.8703 1.5849-0.90396 3.3642 1.8086 0.94163 0.93959-2.8844 0.86175 2.9914 4.2118 3.187 1.3087-0.06665-0.21899-0.06266 2.1817 0.48897 0.44556 0.25278-1.2488-1.3992-2.5529-1.6055-2.5308 2.0528-0.46411 3.7716 4.0964 1.3627 4.162-7.8277 0.20035-15.698-0.31964-23.541-0.36318-10.536-0.0667-21.099-0.45504-31.604-0.0131-1.8591 0.49064-3.3219 2.0978-5.4057 2.1182-0.9178 0.0963-1.8564 0.15367-2.7803-0.0609zm-4.6486-3.4818c-0.80548-0.86306-1.0024-2.9417-0.31371-0.85103 0.06719 0.2917 1.3011 1.957 0.31371 0.85103zm12.654-2.029c0.07248-3.5779-3.9517-5.9257-7.1599-5.6965-1.3226-0.43821-5.7467 2.0856-2.8356 0.0497 2.8255-1.7892 7.2199-2.2022 9.9556 0.36639 1.7968 1.4202 1.5423 5.0145 0.03573 5.7265l0.0041-0.44605z" />
      <path
         id="path3013"
         style="fill:#4d4d4d"
         inkscape:connector-curvature="0"
         d="m16.548 147.71c-1.1736-0.2666-3.1396-1.2534-3.528-1.9049 3.1269 2.01 6.9615 1.569 10.073 0.2285 0.59825-0.40334 4.8092-0.47253 2.5996-0.26791-2.7342 1.1089-5.4934 2.9916-8.7736 2.026l-0.37123-0.0817zm10.749-2.095c0.87442 0.005 0.27392 0.13892 0 0zm1.0226-0.0505c1.2465-0.0824 0.2459 0.16386 0 0zm1.5321-0.0175c0.8758-0.0526 0.03761 0.16649 0 0zm1.6356-0.0176c1.3572-0.0653-0.10166 0.16167 0 0zm1.273-0.0345c0.86733-0.0507 1.0333 0.17089 0 0zm1.7386-0.0103c1.1582-0.0309 1.1405 0.17468 0 0zm1.5576 0.002c14.524-0.0924 29.073 0.31144 43.607 0.44252 2.8 0.86363 0.78203-3.332 1.376-3.1684 1.4656 2.328 0.37893 4.1558-2.3081 3.5094-11.966-0.18004-23.942-0.57029-35.905-0.63407-2.2559-0.0518-4.514-0.016-6.7704-0.14955zm41.169-0.0535c-3.1793-0.46844-1.3425-5.3987 0.94185-2.7182-2.7281-0.63407-1.7841 2.3804 0.17956 2.6016 0.58399 0.63239-0.97963 0.16591-1.1214 0.1166zm-51.281-4.0401c0.3158-3.0957-4.2449-5.1757-5.3165-5.8546 2.7494-0.24933 6.1953 1.8586 5.8518 4.938 0.09756 0.21452-0.59967 2.2369-0.53528 0.91661z" />
      <path
         id="path2838"
         style="fill:#333333"
         inkscape:connector-curvature="0"
         d="m16.733 147.93c-3.0095-0.65047-6.3953-3.1326-5.9848-6.533 0.72067-4.6348 5.8796-7.1124 10.291-6.6817 2.7085-0.0247 3.9027 1.5134 6.6121 1.9716 9.5625 1.5085 33.608 3.3059 49.935 4.8554 2.7507-0.51513 5.1844 2.0817 4.0486 4.5984-2.4812 0.64334-5.1912 0.17086-7.7706 0.24287-15.713-0.36486-31.437-0.76839-47.117-0.44187-2.7538-0.19038-4.5233 2.5596-7.3726 2.2043-0.87894 0.0114-1.7711-0.0197-2.6425-0.21587zm3.1817-1.143c2.456-0.82238 4.9577-1.5502 7.6315-1.4194 17.486-0.31115 35.017 0.20904 52.532 0.52587 2.198 0.26918 1.1424-3.5219-0.13915-3.6983-0.97544-0.71034-5.1461 0.006-2.0754 0.26028 2.6605 0.61399 1.256 3.4894-0.7824 2.7 1.6029 0.5599 1.5383 0.8447 3.0067-0.59193 0.28841-1.2408-1.7517-3.195 0.04711-1.1032 1.5471 3.0577-4.3494 2.9489-4.7648 0.25636-0.77765-1.747 3.3365-2.025 0.57322-2.0549-16.369-1.5151-32.757-2.831-49.103-4.7712-1.9927-0.71843-4.3223-2.2037-6.6137-2.0434-3.4887-0.0253-7.0272 1.6493-8.6913 4.7005-0.2129 0.87931-0.34706 0.66991-0.44084 1.8611-0.1903 3.5185 3.7297 5.7695 6.8321 5.5544 0.66784-0.0109 1.3371-0.0496 1.988-0.17616zm-5.1923-0.60447c-1.969-0.65089-3.4378-2.6068-3.2861-4.6645 0.2524 2.1421 1.7179 4.0966 3.8311 4.757 1.0004 0.48984-0.39798-0.0321-0.54505-0.0925zm9.5677-1.8528c2.1972-1.5755 2.9705-5.3488 0.55924-7.3261-4.0162-3.1504-10.225-1.5202-12.635 2.4759-0.43554 0.77093-1.0138 2.9901-0.54639 0.8254 1.7476-4.6309 7.9331-6.4856 12.44-4.3273 2.6695 1.2508 3.3796 4.8817 1.6855 7.0251-0.14615 0.66922-3.7327 3.4467-1.5028 1.327zm2.1326-4.2822c-0.16714-0.1106 0.13786 1.3646 0 0zm2.8887 3.4469c0.278-0.2671 3.5452 0.11444 2.1269 0.0287-0.55497 0.0109-2.8199-0.0644-1.2489 0.0537 0.70025 0.0712 2.6659 0.22517 0.95821 0.13896-0.58342-0.0772-1.3542 0.0971-1.8363-0.22136zm10.061-0.17701c1.1574-0.21367 1.3345 0.21692 0 0zm5.9372 0.28713c1.8408-0.24138-0.70122-0.10174 0.92153-0.33026 0.15264 0.38721-0.69862 0.56797-0.92153 0.33026zm-9.9467-0.6805c1.7041-0.26698-0.7102-0.008 0.94539 0.1492-0.2805-0.0718-0.75327 0.12248-0.94539-0.1492zm3.7659 0.21733c1.5568-0.21206 0.77972 0.25872 0 0zm1.566-0.00031c0.27242-1.2045 0.93015 0.0819 0 0zm0.31108-0.19521c-0.07617-0.24297-0.43226 0.35143 0 0zm1.7541-0.89477c0.53158-0.56114 0.3733 0.1326 0 0zm0.69782-0.0991c0.63672-0.71243 2.3515-0.8325 0.63857 0.0479l-0.39434 0.0635-0.24422-0.11136zm0.27461-0.0549c-0.571-0.11868 0.17562 0.18449 0 0zm0.72066-0.22367c0.43915-0.50109-1.1618 0.76122 0 0zm-5.0807-0.0417c-0.46134-0.32713 1.1672 0.36601 0 0zm-0.50997-0.23036c0.07617-0.23483 0.43226 0.39763 0 0zm0.79297 0.0816c0.37603-0.0958 0.18763 0.18789 0 0zm-0.53835-0.17133c-0.33021-0.33271 0.96406 0.38037 0 0zm1.5661-0.76663c0.5686-0.33073 0.80865 0.34348 0 0zm2.5194 0.0747c0.03448-0.51613 1.17 0.34179 0 0zm-8.886-0.63702c1.0021-0.54642 2.2234 0.54714 0.3863 0.16713-0.08803-0.0477-0.3704 0.0124-0.3863-0.16713zm0.99584 0.0311c-1.2465-0.21562-0.24589 0.13758 0 0zm1.3193 0.1777c0.65106-0.44554 1.8952 0.017 0.21296-0.10127-0.03922 0.0701 2.1829 0.31666 0.03265 0.15718l-0.24561-0.0559zm6.1639 0.26977c0.63479-0.55376 0.47688 0.29948 0 0zm-16.642-1.0084c0.10361-0.45934 0.06569 0.39715 0 0zm14.727 0.86993c0.37602-0.0958 0.18763 0.18789 0 0zm-1.3278-0.17309c0.37602-0.0958 0.18763 0.1879 0 0zm-9.2479-0.60829c0.86732-0.0506 1.0333 0.17089 0 0zm0.05335-0.20211c1.0245-0.0402 1.0035 0.17029 0 0zm-2.8662 6.2862c-0.571-0.11868 0.17561 0.18449 0 0zm1.2257-0.0366c-0.571-0.11869 0.17561 0.18448 0 0zm1.4363-0.0233c-0.63558-0.13528-0.0079 0.1763 0 0zm1.5321-0.0203c-0.63558-0.13528-0.0079 0.1763 0 0zm1.6278-0.0173c-0.571-0.11868 0.17561 0.18449 0 0zm1.8449-0.001c-0.63558-0.13528-0.0079 0.1763 0 0zm1.8385-0.004c-0.63558-0.13528-0.0079 0.1763 0 0zm2.0428 0.007c-0.63558-0.13528-0.0079 0.1763 0 0zm2.247 0.0179c-0.63558-0.13528-0.0079 0.1763 0 0zm2.2962 0.0174c-0.83981-0.17154 0.11877 0.18159 0 0zm2.4022 0.0294c-0.63558-0.13528-0.0079 0.1763 0 0zm2.3492 0.0234c-0.63558-0.13528-0.0079 0.1763 0 0zm2.3492 0.0234c-0.63558-0.13529-0.0079 0.17629 0 0zm2.3492 0.0234c-0.63558-0.13528-0.0079 0.1763 0 0zm2.4513 0.0289c-0.63558-0.13529-0.0079 0.17629 0 0zm2.6026 0.0338c-0.83981-0.17155 0.11877 0.18159 0 0zm2.8599 0.0507c-0.83981-0.17154 0.11877 0.18159 0 0zm3.1663 0.067c-0.83981-0.17155 0.11877 0.18159 0 0zm3.3214 0.0785c-0.63558-0.13528-0.0079 0.1763 0 0zm3.5218 0.0829c-0.83981-0.17154 0.11877 0.18159 0 0zm3.8832 0.10573c-0.8758-0.14617-0.03761 0.16247 0 0zm2.8024 0.0482c-0.571-0.11868 0.17561 0.18449 0 0zm-66.641-4.6424c-0.11566 1.0271 0.09699 0.87248 0 0zm68.461 3.9923c0.34873-0.33717-0.82416 0.33669 0 0zm0.51069-0.3302c0.72122-0.86949-0.96121 0.87057 0 0zm-0.92307-0.55655c0.97597-2.286-4.6229-1.9321-1.7325-0.0339 0.53478 0.25721 1.2272 0.33174 1.7325 0.0339zm0.2081-1.1c-0.54223-0.66284-0.48867-0.31108 0 0z" />
      <path
         id="path2957"
         style="fill:#333333"
         inkscape:connector-curvature="0"
         d="m29.337 143.53c1.1955 0.13513 4.3846 0.65504 4.2415 0.19646-1.2687 0.39582-2.8876 0.003-4.2415-0.19646z" />
      <path
         id="path2955"
         style="fill:#333333"
         inkscape:connector-curvature="0"
         d="m39.295 143.25c-2.8724-1.6533 2.0229 0.96385 2.1679-1.1389 0.0069 1.0941-1.3113 1.328-2.1679 1.1389z" />
      <path
         id="path2953"
         style="fill:#333333"
         inkscape:connector-curvature="0"
         d="m45.291 143.54c-0.37038-0.3837 1.9209-0.80254 0.61101 0.12335l-0.33026 0.019-0.28075-0.14237z" />
      <path
         id="path2951"
         style="fill:#333333"
         inkscape:connector-curvature="0"
         d="m35.363 142.94c1.8042 0.31602 0.30904-2.7704 1.6094-2.8496 1.0308-0.24874 1.6752-0.41856 0.38421 0.19279-1.7228-0.4293 0.0494 3.6172-1.9936 2.6568z" />
      <path
         id="path2949"
         style="fill:#333333"
         inkscape:connector-curvature="0"
         d="m41.797 143.28c1.4315 0.4875 0.31219-1.6819 1.4106-1.4589 1.2554 0.4318 2.152-2.4071 1.5166-0.20231-1.1291 0.429-2.0895 0.44248-2.145 1.7805-0.25027-0.0152-0.56162 0.0662-0.78213-0.11923z" />
      <path
         id="path2947"
         style="fill:#333333"
         inkscape:connector-curvature="0"
         d="m32.401 142.52c0.02454-1.0977 0.98438-5.92 0.52152-2.4684-0.14425 0.70129-0.27416 2.2294-0.52152 2.4684z" />
      <path
         id="path2945"
         style="fill:#333333"
         inkscape:connector-curvature="0"
         d="m40.319 141.98c-1.1316-0.38896-2.5531-1.4008-0.54646-0.50366 0.13074-0.10638 1.2072 0.66386 0.54646 0.50366z" />
      <path
         id="path2943"
         style="fill:#333333"
         inkscape:connector-curvature="0"
         d="m42.776 141.3c-0.75427-1.9343 2.8907-0.0173 0.32373-0.69551-0.234-0.0223-0.01767 0.94781-0.32373 0.69551z" />
      <path
         id="path2941"
         style="fill:#333333"
         inkscape:connector-curvature="0"
         d="m39.244 140.44c0.60397-0.83335 3.5387 0.49477 0.91886-0.0469-0.26916-0.38768-0.89976 0.44508-0.91886 0.0469z" />
      <path
         id="path2939"
         style="fill:#333333"
         inkscape:connector-curvature="0"
         d="m34.341 140.02c1.673-0.33367 2.0985 0.48964 0 0z" />
      <path
         id="path2937"
         style="fill:#333333"
         inkscape:connector-curvature="0"
         d="m30.131 139.53c1.1833-0.69447 3.1655 0.42211 0 0z" />
      <g
         id="g8336"
         transform="matrix(1.0079 .20225 0 1.0214 -.9007 -20.482)">
        <path
           id="path8665"
           style="fill:#cccccc"
           inkscape:connector-curvature="0"
           d="m111.55 106.01c0 4.175-3.1046 10.639-6.6228 13.788-3.5182 3.1488-6.3708 2.3157-6.3708-1.8593l-2.075-35.195c0.07709 0.89247 0.21602 1.3911 0.36695 1.6759 0.14109 0.26633 0.29364 0.368 0.44734 0.40908 0.02914 0.18306 0.05972 0.36862 0.09382 0.54561 0.15961 0.82104 0.35676 1.5521 0.5739 2.2115 0.36353-0.22812 0.71768-0.60819 1.0671-1.027 0.03003 0.06797 0.05916 0.1318 0.08947 0.19874 0.24989 0.55082 0.51044 1.0621 0.77901 1.5333 0.3544-0.52187 0.70356-1.0898 1.0474-1.6929 0.23836 0.34864 0.4823 0.66805 0.72883 0.97561 0.0688 0.08587 0.13792 0.17233 0.20729 0.25517 0.34592-0.66512 0.68629-1.3511 1.0234-2.0672 0.31923 0.32363 0.64399 0.617 0.97322 0.88279 0.33785-0.76776 0.6722-1.5635 1.0016-2.3714 0.3294 0.2183 0.66157 0.41752 0.99941 0.58055 0.32924-0.85512 0.65401-1.7298 0.97324-2.6249 0.33713 0.11258 0.67967 0.18739 1.0256 0.23333 0.0694-0.20702 0.1385-0.41722 0.20731-0.62624 0.24652-0.74883 0.48826-1.5029 0.72664-2.2782 0.34388-0.01242 0.69305-0.06946 1.0474-0.18194 0.26859-0.95194 0.52913-1.9296 0.77903-2.9277 0.0303-0.12119 0.0616-0.2391 0.0917-0.36084 0.34938-0.2066 0.70136-0.45852 1.0649-0.88111 0.21715-1.0481 0.41429-2.1321 0.5739-3.2388 0.0341-0.23804 0.0669-0.48028 0.096-0.71552 0.15369-0.3162 0.30407-0.689 0.44515-1.2079 0.15094-0.555 0.28986-1.3023 0.41797-2.3971z" />
        <path
           id="path8668"
           inkscape:connector-curvature="0"
           style="stroke-linejoin:round;stroke:#808080;stroke-width:1.3126;stroke-linecap:round;fill:#666666"
           transform="matrix(.07928 -.070955 0 .36874 -5.6007 -3.6586)"
           d="m1499.1 482.3c0 16.793-47.171 30.406-105.36 30.406-58.188 0-105.36-13.613-105.36-30.406s47.171-30.406 105.36-30.406c58.188 0 105.36 13.613 105.36 30.406z" />
        <path
           id="path9732"
           style="stroke:#ff9955;stroke-width:.22443px;fill:#ff9955"
           inkscape:connector-curvature="0"
           d="m111.97 76.638-1.4864 34.024m0.46207-32.978-1.35 35.004m0.45619-31.925-1.0917 32.802m3.7543-40.921-1.5676 36.027m-2.1719-27.167-0.76635 33.807m-0.2233-30.544-0.54708 31.584m-0.44381-31.618-0.3895 32.622m-0.60083-30.254-0.20284 31.126m-0.75044-31.75-0.0341 32.532m-0.97812-30.453 0.31132 30.958m-1.314-31.044 0.49607 31.588m-1.4908-29.783 0.64884 30.282m-1.5316-31.35 0.8594 31.562m-1.6966-30.445 1.0123 30.564m-1.927-31.312 1.217 31.252m-2.114-31.088 1.389 30.718m-0.782-1-1.634-31.78" />
        <path
           id="path9993"
           style="fill:#e6e6e6"
           inkscape:connector-curvature="0"
           d="m104.51 79.722c-0.35705 0.37319-0.71507 0.17947-0.96819-0.66712-0.38241 1.0427-0.82957 1.2839-1.099-0.03297-0.0202-0.08266-0.0402-0.16937-0.0593-0.26241-0.4647 1.3439-1.062 1.6033-1.3917 0.18512-0.24511 0.58139-0.51763 0.83645-0.7297 0.54791-0.70492 1.2858-0.446-0.76763-1.0092-1.1299-0.47463-1.2599-0.34987 0.38906-0.47631 0.92582-0.12643 0.53674-0.14356-0.99762-0.60351-1.3966-0.3405-1.3578-0.57579-4.3236-0.04002-6.274 0.45446-0.78815 0.64031-3.6327 0.63955-4.4196 0.4466-0.68467 1.0911-3.2242 1.5038-2.5202 0.33468-2.3638 1.0072-3.3555 1.5166-2.8121 0.41501-1.7115 1.0017-2.6114 1.4306-1.6922 0.30913-1.0318 0.68078-1.4796 0.97339-0.67837 0.17145 0.41439 0.29933 1.024 0.394 1.7507 0.0354-0.21658 0.0721-0.41292 0.11121-0.5903 0.46521-2.4978 1.2769-3.8482 1.8052-2.4832 0.0575-0.05558 0.1113-0.05164 0.16148-0.0043 0.05-0.34077 0.10194-0.66202 0.15535-0.93653 0.41394-2.1094 1.0573-2.5865 1.4844-1.5389 0.33364-0.76203 0.7143-1.0328 1.0364-0.89258 0.3543-0.10908 0.95254 1.0227 0.78259 2.8927 0.38228-2.1508 1.1264-1.705 1.4007-0.0004 0.42229 2.184 0.51952 6.0577-0.0153 9.014-0.63545 1.2283-1.1298 4.6237-1.827 4.606-0.216 0.61436-0.47632 0.6078-0.68357 0.19113-0.0432 0.26825-0.0969 0.49871-0.16016 0.66915-0.33705 1.7052-0.86647 2.0578-1.2491 1.5386-0.51985 2.4426-1.3501 3.5067-1.8754 2.0378-0.1558 0.99992-0.35497 1.9088-0.5488 2.5769-0.20073 0.68307-0.42975 1.1564-0.65905 1.3961z" />
      </g>
      <text
         xml:space="preserve"
         style="font-style:normal;font-weight:normal;font-size:20.5425148px;line-height:1.25;font-family:sans-serif;letter-spacing:0px;word-spacing:0px;fill:#454545;fill-opacity:1;stroke:none;stroke-width:0.51356286;"
         x="29.25548"
         y="110.44144"
         id="text4636"
         transform="matrix(0.91808987,0.06184364,-0.07303963,1.0842979,0,0)"><tspan
           sodipodi:role="line"
           id="tspan4634"
           x="29.25548"
           y="110.44144"
           style="stroke-width:0.51356286;fill:#454545;fill-opacity:1;">Soda</tspan></text>
    </g>
  </g>
  <metadata
     id="metadata103">
    <rdf:RDF>
      <cc:Work>
        <dc:format>image/svg+xml</dc:format>
        <dc:type
           rdf:resource="http://purl.org/dc/dcmitype/StillImage" />
        <cc:license
           rdf:resource="http://creativecommons.org/licenses/publicdomain/" />
        <dc:publisher>
          <cc:Agent
             rdf:about="http://openclipart.org/">
            <dc:title>Openclipart</dc:title>
          </cc:Agent>
        </dc:publisher>
      </cc:Work>
      <cc:License
         rdf:about="http://creativecommons.org/licenses/publicdomain/">
        <cc:permits
           rdf:resource="http://creativecommons.org/ns#Reproduction" />
        <cc:permits
           rdf:resource="http://creativecommons.org/ns#Distribution" />
        <cc:permits
           rdf:resource="http://creativecommons.org/ns#DerivativeWorks" />
      </cc:License>
    </rdf:RDF>
  </metadata>
</svg>
