<?xml version="1.0" encoding="UTF-8" standalone="no"?>
<!-- Generator: Adobe Illustrator 12.0.0, SVG Export Plug-In . SVG Version: 6.00 Build 51448)  -->
<svg xmlns:inkscape="http://www.inkscape.org/namespaces/inkscape" xmlns:rdf="http://www.w3.org/1999/02/22-rdf-syntax-ns#" xmlns="http://www.w3.org/2000/svg" xmlns:cc="http://web.resource.org/cc/" xmlns:dc="http://purl.org/dc/elements/1.1/" xmlns:sodipodi="http://inkscape.sourceforge.net/DTD/sodipodi-0.dtd" xmlns:svg="http://www.w3.org/2000/svg" xmlns:ns1="http://sozi.baierouge.fr" xmlns:xlink="http://www.w3.org/1999/xlink" id="Layer_1" style="enable-background:new 0 0 247.095 211.642" sodipodi:docname="Analisi del sangue.svg" xml:space="preserve" viewBox="0 0 247.095 211.642" sodipodi:version="0.32" version="1.0" inkscape:version="0.40+cvs" sodipodi:docbase="F:\openclip\svg3">
<sodipodi:namedview id="base" bordercolor="#666666" inkscape:pageshadow="2" inkscape:window-width="640" pagecolor="#ffffff" inkscape:zoom="1.7860349" inkscape:window-x="22" borderopacity="1.0" inkscape:current-layer="Layer_1" inkscape:cx="123.54750" inkscape:cy="105.82100" inkscape:window-y="22" inkscape:window-height="540" inkscape:pageopacity="0.0"/>
<g id="g3">
	<path id="path5" style="stroke:#8C8C8C;stroke-linecap:square;stroke-miterlimit:10;fill:none" d="m157.88 194.81c7.647 0.245 17.94-3.935 18.622-12.834 0.559-7.298 0.333-14.624 0.333-21.941v-65.15"/>
	<path id="path7" style="fill:#5C0000" d="m137.32 91.697v81.477c0 9.696 2.99 17.007 13.295 19.479 9.958 2.39 24.268-1.252 24.268-13.629v-71.153-13.828c0-3.017-0.646-2.167-3.767-2.167h-20.997c-3.8 0-9.37 0.829-12.8-0.178"/>
	<path id="path9" style="fill:#650000" d="m138.74 91.697v81.477c0 9.725 2.646 16.412 12.646 19.598 9.458 3.012 20.131-4.576 20.131-14.38v-67.858c0-1.981 0.929-18.653-0.764-18.663-10.68-0.054-21.35-0.112-32.02-0.17"/>
	<path id="path11" style="fill:#6E0000" d="m139.98 91.697c0.057 27.159 0.113 54.317 0.17 81.477 0.019 8.427 2.019 18.335 12.207 19.552 10.363 1.238 15.794-7.429 15.794-16.977v-66.863c0-1.546 0.6-17.006-0.496-17.013-9.22-0.054-18.44-0.124-27.67-0.17"/>
	<path id="path13" style="fill:#780000" d="m141.4 91.519v81.645c0 8.906 2.437 18.387 12.757 19.787 4.663 0.633 8.32-5.392 9.742-9.303 1.165-3.204 0.886-6.773 0.886-10.131v-63.787-17.836c-0.01-0.32-21.5 0.253-23.39-0.375"/>
	<path id="path15" style="fill:#810000" d="m142.82 91.519v81.475c0 8.607 1.719 18.521 11.86 20.035 3.86 0.577 6.083-9.381 6.507-12.357 0.465-3.251 0.235-6.654 0.235-9.924v-59.878-18.522c0-1.045-16.34-0.776-18.6-0.819"/>
	<path id="path17" style="fill:#8C0000" d="m144.06 91.519c0.056 27.159 0.111 54.317 0.168 81.475 0.007 3.362 0.007 6.48 0.895 9.769 0.632 2.34 1.577 4.874 3.19 6.733 0.981 1.131 5.528 4.727 7.264 3.72 0.729-0.423 1.351-4.77 1.51-5.644 0.511-2.813 0.971-5.681 0.971-8.549v-10.476-56.766-18.722c0-2.735-11.33-1.475-13.99-1.529"/>
	<path id="path19" style="fill:#960000" d="m145.48 91.342c0.041 20.139 0.083 40.277 0.124 60.416 0.018 8.407 0.034 16.815 0.052 25.224 0.014 6.469 2.616 14.776 9.745 16.234 0.05-17.125-0.709-34.359-0.709-51.537v-39.472-9.659c0-1.688-7.59-0.743-9.21-1.199"/>
	<path id="path21" style="fill:#F7FFFF" d="m145.12 76.637l0.177 38.8c2.779 0.632 1.771-2.791 1.771-4.517v-13.496-21.142c-0.58 0.137-1.44 0.095-1.95 0.355"/>
	<path id="path23" style="stroke:#EDFFFF;stroke-linecap:square;stroke-miterlimit:10;fill:none" d="m145.12 76.637l0.177 38.8c2.779 0.632 1.771-2.791 1.771-4.517v-13.496-21.142c-0.543 0.109-1.288 0.097-1.771 0.355"/>
	<path id="path25" style="fill:#F7FFFF" d="m145.12 121.28l0.177 16.299c3.012 0.291 1.815-4.287 1.837-6.24 0.038-3.412 0.076-6.823 0.114-10.235-0.64 0.08-1.54-0.05-2.13 0.18"/>
	<path id="path27" style="stroke:#EDFFFF;stroke-linecap:square;stroke-miterlimit:10;fill:none" d="m145.12 121.28l0.177 16.299c3.012 0.291 1.815-4.287 1.837-6.24 0.038-3.412 0.076-6.823 0.114-10.235-0.596 0.054-1.404-0.048-1.951 0.177"/>
	<path id="path29" style="fill:#F7FFFF" d="m142.64 115.44c0.03-6.349 0.061-12.697 0.091-19.046 0.026-5.627-1.295-13.87 0.266-19.046v20.145 12.798c0 1.36 0.46 4.41-0.36 5.15"/>
	<path id="path31" style="stroke:#EDFFFF;stroke-linecap:square;stroke-miterlimit:10;fill:none" d="m142.64 115.44c0.03-6.349 0.061-12.697 0.091-19.046 0.026-5.627-1.295-13.87 0.266-19.046v19.046c0 5.625 1.361 13.866-0.176 19.046"/>
	<path id="path33" style="fill:#F7FFFF" d="m143.35 135.99c0-3.669 1.457-12.274-0.354-14.884 0 3.67-1.46 12.27 0.35 14.88"/>
	<path id="path35" style="stroke:#EDFFFF;stroke-linecap:square;stroke-miterlimit:10;fill:none" d="m143.35 135.99c0-3.669 1.457-12.274-0.354-14.884 0 3.67-1.46 12.27 0.35 14.88"/>
	<path id="path37" style="fill:#5C0000" d="m147.95 92.583c8.114 1.379 17.515 0.688 25.689-0.178-4.53-0.128-9.061-0.257-13.591-0.385-2.25-0.064-11.31-1.505-12.1 0.563"/>
	<path id="path39" style="stroke:#EDFFFF;stroke-width:.2;stroke-miterlimit:10;stroke-linecap:square;fill:none" d="m177.54 4.705c-6.128-0.129-12.23-1.417-18.383-1.629-7.224-0.249-14.286 0.109-21.48 0.744"/>
	<path id="path41" style="stroke:#8C8C8C;stroke-linecap:square;stroke-miterlimit:10;fill:none" d="m137.68 8.249c6.096-0.11 12.103-0.886 18.246-0.886"/>
	<path id="path43" style="stroke:#EDFFFF;stroke-width:.2;stroke-miterlimit:10;stroke-linecap:square;fill:none" d="m242.56 5.946c-12.251-2.509-23.855-2.729-36.32-1.418"/>
	<path id="path45" style="stroke:#8C8C8C;stroke-linecap:square;stroke-miterlimit:10;fill:none" d="m202.35 9.489c6.556-0.988 12.812-1.594 19.489-1.594"/>
	<path id="path47" style="stroke:#8C8C8C;stroke-linecap:square;stroke-miterlimit:10;fill:none" d="m176.83 94.885v-48.506-29.322-7.434c0-2.203 2.854-4.759 4.077-6.512-15.874-3.851-33.453-2.928-49.432-0.531 4.298 4.678 3.72 8.031 3.72 14.142v40.819 101.8c0 6.326-0.65 13.035 0 19.347 1.207 11.701 12.297 16.088 22.68 16.122"/>
	<path id="path49" style="stroke:#8C8C8C;stroke-linecap:square;stroke-miterlimit:10;fill:none" d="m242.04 58.565c0.035-9.725 0.071-19.45 0.106-29.174 0.021-5.556 0.041-11.112 0.062-16.668 0.013-3.578 1.998-5.381 4.081-8.371-16.059-4.554-33.186-3.239-49.428-0.532 1.166 1.723 3.72 3.771 3.72 6.02v8.291 40.776 101.69c0 6.32-0.65 13.022 0 19.328 1.207 11.702 12.293 16.086 22.676 16.121"/>
	<path id="path51" style="stroke:#8C8C8C;stroke-linecap:square;stroke-miterlimit:10;fill:none" d="m223.25 196.05c10.846 0.348 18.976-6.447 18.959-17.49l-0.048-32.704c-0.042-28.877-0.085-57.754-0.127-86.63-0.001-0.161-0.001-0.322-0.001-0.483"/>
	<path id="path53" style="fill:#5C0000" d="m202.35 56.084c0.077 26.916 0.154 53.831 0.232 80.747 0.037 13.116 0.075 26.231 0.113 39.347 0.025 8.981 4.359 17.286 14.418 17.939 10.104 0.655 23.171-0.909 23.152-14.042-0.015-10.117-0.029-20.233-0.045-30.351-0.044-30.5-0.088-61-0.133-91.5-0.001-0.613 0.373-2.141-0.378-2.141h-11.38c-8.66-0.005-17.32-0.005-25.98-0.005"/>
	<path id="path55" style="fill:#650000" d="m203.76 56.084l0.234 80.631c0.038 13.097 0.076 26.193 0.113 39.291 0.025 8.596 3.487 16.48 12.94 18.095 9.812 1.676 19.86-4.063 19.845-14.814-0.016-11.046-0.031-22.091-0.047-33.137-0.043-29.671-0.085-59.342-0.127-89.013-0.004-2.466-9.588-1.053-11.603-1.053h-21.34"/>
	<path id="path57" style="fill:#6E0000" d="m205.18 55.908c0.077 26.916 0.154 53.832 0.232 80.747 0.037 13.116 0.075 26.231 0.113 39.347 0.021 7.435 2.877 17.416 11.959 18.119 9.528 0.737 16.055-6.252 16.041-15.836-0.017-11.816-0.034-23.632-0.051-35.447l-0.123-86.281c0-1.562-25.35 0.416-28.17-0.651"/>
	<path id="path59" style="fill:#780000" d="m206.6 55.908c0.039 26.916 0.077 53.832 0.116 80.747 0.019 13.116 0.037 26.231 0.057 39.347 0.014 9.849 4.099 17.007 14.418 18.417 3.288 0.448 7.557-7.551 8.196-9.943 0.797-2.986 0.773-5.854 0.77-8.909-0.02-13.589-0.039-27.179-0.059-40.769-0.008-5.663 0.269-78.71-0.375-78.715-7.72-0.071-15.43-0.129-23.14-0.187"/>
	<path id="path61" style="fill:#810000" d="m207.84 55.908l0.231 80.631c0.038 13.097 0.075 26.194 0.113 39.291 0.025 8.948 2.935 17.098 12.751 18.572 2.754 0.414 5.454-10.841 5.684-12.879 0.297-2.632 0.173-5.308 0.169-7.949-0.021-14.413-0.041-28.826-0.063-43.239l-0.075-52.683c-0.009-5.684-0.017-11.368-0.024-17.052-0.006-3.57 1.05-4.505-2.707-4.541-5.35-0.046-10.71-0.109-16.07-0.146"/>
	<path id="path63" style="fill:#8C0000" d="m209.26 55.731c0.077 26.916 0.154 53.831 0.232 80.747 0.037 13.116 0.075 26.231 0.113 39.347 0.008 2.821 0.143 5.419 0.894 8.18 0.638 2.345 1.58 4.861 3.19 6.73 1.083 1.257 5.319 4.82 7.264 3.723 0.704-0.397 1.349-4.774 1.508-5.644 0.514-2.812 0.973-5.684 0.973-8.551 0-2.686-0.006-5.371-0.01-8.057-0.021-14.76-0.043-29.519-0.064-44.278-0.025-17.352-0.051-34.704-0.076-52.057-0.008-5.384-0.016-10.768-0.024-16.151-0.007-4.657-0.216-3.639-5.358-3.704-2.64-0.035-6.33 0.358-8.63-0.287"/>
	<path id="path65" style="fill:#960000" d="m210.67 55.731c0.038 26.559 0.076 53.118 0.114 79.676 0.019 13.212 0.037 26.423 0.057 39.635 0.011 7.427 1.373 17.525 9.93 19.415-0.149-22.737-0.752-45.545-0.784-68.333l-0.075-51.771c-0.008-5.129-0.015-10.259-0.022-15.389-0.001-0.92-0.002-1.84-0.004-2.76 0-0.302-7.19-0.396-7.969-0.426-0.43-0.021-0.84-0.036-1.26-0.053"/>
	<path id="path67" style="fill:#F7FFFF" d="m210.5 77.877c0.059 12.993 0.118 25.985 0.177 38.978 2.642 0.345 1.771-2.381 1.771-4.107v-13.413-21.634c-0.59 0.067-1.42-0.045-1.95 0.174"/>
	<path id="path69" style="stroke:#EDFFFF;stroke-linecap:square;stroke-miterlimit:10;fill:none" d="m210.5 77.877c0.059 12.993 0.118 25.985 0.177 38.978 2.642 0.345 1.771-2.381 1.771-4.107v-13.413-21.634c-0.54 0.054-1.277-0.033-1.771 0.176"/>
	<path id="path71" style="fill:#F7FFFF" d="m210.5 122.52l0.177 16.302c3.011 0.286 1.814-4.289 1.836-6.243 0.037-3.412 0.075-6.823 0.112-10.235-0.62 0.23-1.76 0.06-2.13 0.18"/>
	<path id="path73" style="stroke:#EDFFFF;stroke-linecap:square;stroke-miterlimit:10;fill:none" d="m210.5 122.52l0.177 16.302c3.011 0.286 1.814-4.289 1.836-6.243 0.037-3.412 0.075-6.823 0.112-10.235-0.599 0.109-1.411 0.083-1.948 0.354"/>
	<path id="path75" style="fill:#F7FFFF" d="m208.02 116.68v-38.092c0.812 0.756 0.356 3.791 0.356 5.173v13.961c-0.01 2.199 0.71 18.798-0.36 18.958"/>
	<path id="path77" style="stroke:#EDFFFF;stroke-linecap:square;stroke-miterlimit:10;fill:none" d="m208.02 116.68v-38.092c0.812 0.756 0.356 3.791 0.356 5.173v13.961 13.154c0 1.488 0.539 5.146-0.356 5.979"/>
	<path id="path79" style="fill:#F7FFFF" d="m208.72 137.23c0-3.604 1.442-12.162-0.354-14.706 0 3.61-1.44 12.17 0.35 14.71"/>
	<path id="path81" style="stroke:#EDFFFF;stroke-linecap:square;stroke-miterlimit:10;fill:none" d="m208.72 137.23c0-3.604 1.442-12.162-0.354-14.706 0 3.61-1.44 12.17 0.35 14.71"/>
	<path id="path83" style="stroke:#EDFFFF;stroke-width:.2;stroke-miterlimit:10;stroke-linecap:square;fill:none" d="m26.947 89.217l63.71 46.95c11.844 8.729 23.688 17.456 35.531 26.184 6.57 4.842 12.041 7.915 20.744 6.915 5.744-0.66 10.911-2.669 15.926-5.516 2.606-1.479 4.39-2.148 5.827-4.727 1.407-2.524 2.299-5.488 3.09-8.25 2.384-8.321 1.565-19.272-5.993-24.527l-76.344-53.07c-7.655-5.321-15.311-10.643-22.966-15.965-4.443-3.088-8.938-4.83-14.643-4.288-7.768 0.737-16.965 4.345-20.809 11.667-3.74 7.126-4.831 16.795-4.081 24.643"/>
	<path id="path85" style="fill:#EDFFFF" d="m62.382 54.491c35.315 24.509 70.628 49.019 105.95 73.529-4.38-1.425-10.688-0.236-14.88 1.417-1.632 0.644-11.217 7.225-11.525 7.007-8.374-5.903-16.747-11.808-25.121-17.712l-77.877-54.911c-1.394-0.983-2.788-1.966-4.182-2.949 6.385-8 19.061-8.759 27.641-6.389"/>
	<path id="path87" style="stroke:#EDFFFF;stroke-width:.2;stroke-miterlimit:10;stroke-linecap:square;fill:none" d="m62.382 54.491c35.315 24.509 70.628 49.019 105.95 73.529-4.38-1.425-10.688-0.236-14.88 1.417-1.632 0.644-11.217 7.225-11.525 7.007-8.374-5.903-16.747-11.808-25.121-17.712l-77.877-54.911c-1.394-0.983-2.788-1.966-4.182-2.949 6.681-8.363 18.334-8.159 27.814-6.379"/>
	<path id="path89" style="fill:#EDFFFF" d="m26.947 89.217c35.789 26.339 71.577 52.679 107.37 79.018-2.907-11.157 0.153-23.309 7.973-31.538-21.397-15.087-42.795-30.175-64.193-45.262-12.202-8.604-24.403-17.207-36.605-25.811-2.234-1.575-4.468-3.151-6.703-4.726-1.94-1.368-7.043 11.609-7.374 12.712-1.511 5.023-0.934 10.487-0.468 15.604"/>
	<path id="path91" style="stroke:#EDFFFF;stroke-width:.2;stroke-miterlimit:10;stroke-linecap:square;fill:none" d="m26.947 89.217c35.789 26.339 71.577 52.679 107.37 79.018-2.907-11.157 0.153-23.309 7.973-31.538-21.397-15.087-42.795-30.175-64.193-45.262-12.202-8.604-24.403-17.207-36.605-25.811-2.234-1.575-4.468-3.151-6.703-4.726-1.94-1.368-7.043 11.609-7.374 12.712-1.511 5.023-0.934 10.487-0.468 15.604"/>
	<path id="path93" style="fill:#F0FFFF" d="m134.67 164.52c-21.115-15.582-42.23-31.163-63.346-46.745-12.045-8.9-24.086-17.78-36.126-26.666-2.205-1.627-4.41-3.254-6.614-4.881-1.316-0.971-1.682-7.771-1.371-9.331 0.741-3.722 4.134-18.499 9.557-14.676 9.913 6.989 19.826 13.978 29.738 20.966l73.461 51.791c0.477 0.336 0.954 0.673 1.431 1.009-7.53 7.28-6.12 19.78-6.73 28.53"/>
	<path id="path95" style="fill:#F3FFFF" d="m135.02 160.97c-21.07-15.599-42.14-31.196-63.21-46.795l-35.652-26.394c-5-3.701-8.627-6.411-8.149-13.273 0.271-3.884 2.377-8.764 5.137-11.515 2.26-2.254 2.472-1.654 4.833 0.015 10.559 7.46 21.118 14.921 31.677 22.382 23.452 16.57 46.903 33.141 70.355 49.711 0.167 0.118 0.335 0.236 0.502 0.354-2.393 2.506-2.95 8.071-3.759 11.318-0.97 3.91-0.25 11.46-1.73 14.19"/>
	<path id="path97" style="fill:#F6FFFF" d="m135.38 157.43c-21.153-15.739-42.307-31.478-63.46-47.216-11.66-8.676-23.321-17.352-34.981-26.028-4.213-3.135-8.727-6.427-8.039-12.331 0.366-3.139 2.656-7.913 5.404-9.744 1.931-1.287 2.991 0.339 4.716 1.558 10.996 7.769 21.991 15.537 32.987 23.305 22.51 15.904 45.021 31.807 67.531 47.71 0.112 0.08-0.728 7.144-1.006 7.982-1.51 4.54-1.63 11.1-3.15 14.77"/>
	<path id="path99" style="fill:#F9FFFF" d="m135.91 153.88c-21.308-15.881-42.616-31.762-63.924-47.642-11.466-8.54-22.929-17.084-34.393-25.627-3.373-2.514-9.752-6.989-7.812-11.86 1.153-2.895 2.704-5.517 5.491-6.908 1.431-0.714 4.32 2.281 5.488 3.106 11.487 8.106 22.974 16.212 34.46 24.318 21.232 14.983 42.465 29.967 63.697 44.951-1.105 1.905 1.526 4.551 0.571 7.099-1.52 4.06-2.95 8.86-3.58 12.56"/>
	<path id="path101" style="fill:#FCFFFF" d="m136.26 150.34l-63.66-47.689c-11.271-8.443-22.542-16.887-33.813-25.33-3.66-2.741-10.197-6.437-7.768-11.494 3.862-8.042 9.621-0.858 14.527 2.603 13.118 9.256 26.236 18.511 39.354 27.767 13.664 9.641 27.328 19.281 40.991 28.923 5.273 3.721 11.225 6.822 14.797 12.196 1.3 1.96-4.26 10.58-4.43 13.02"/>
	<path id="path103" style="fill:#FFFFFF" d="m34.744 60.692c35.847 25.335 71.695 50.67 107.54 76.005-2.555 1.867-5.854 6.72-5.492 10.102-20.328-15.297-40.655-30.594-60.983-45.89-12.148-9.142-24.297-18.283-36.445-27.425-2.681-2.017-5.362-4.035-8.043-6.052-2.017-1.522 2.373-5.901 3.425-6.741"/>
	<path id="path105" style="fill:#F4F7F7" d="m144.59 135.1c-1.716 2.816-4.687 4.663-4.963 8.503-21.165-15.758-42.331-31.516-63.496-47.273-11.804-8.788-23.607-17.576-35.411-26.364-1.934-1.439-3.869-2.875-5.8-4.318-2.446-1.828-2.413-3.239 0.088-5.758 3.158-3.181 12.71 5.779 14.881 7.306 12.809 9.007 25.617 18.014 38.426 27.021 13.686 9.624 27.371 19.247 41.057 28.87 4.242 2.983 8.484 5.966 12.727 8.949 1.1 0.79 3.95 2.18 2.48 3.07"/>
	<path id="path107" style="fill:#E8EEEE" d="m147.07 133.86c-2.002 1.706-3.993 3.513-4.43 6.378-18.26-13.396-36.521-26.791-54.781-40.186-12.109-8.877-24.216-17.758-36.324-26.64-4.704-3.45-10.705-6.867-14.667-10.946 4.55-5.133 6.874-4.068 11.888-0.542 11.432 8.038 22.863 16.077 34.294 24.116l66.457 46.734c0.014 0.01 0.028 0.02 0.042 0.029-0.75 0.35-1.62 0.73-2.48 1.06"/>
	<path id="path109" style="fill:#DDE6E6" d="m149.55 132.45c-1.44 0.911-3.903 2.321-3.896 4.43-19.79-14.326-39.58-28.652-59.37-42.979-12.019-8.7-24.038-17.401-36.056-26.102-4.278-3.097-8.956-6.015-12.826-9.585 1.295-1.073 2.916-2.289 4.604-2.569 1.95-0.324 3.008 1.432 4.607 2.036 2.147 0.812 3.031 0.685 5.158 2.172 10.778 7.536 21.556 15.071 32.333 22.607 23.286 16.282 46.572 32.563 69.858 48.844 0.124 0.087 0.248 0.173 0.372 0.26-1.61-0.02-3.58 0.67-4.78 0.89"/>
	<path id="path111" style="fill:#D3DDDD" d="m152.03 131.03c-1.182 0.513-3.044 0.887-3.543 2.481-19.384-13.846-38.769-27.691-58.153-41.538-12.257-8.752-24.511-17.505-36.766-26.258-3.834-2.739-9.934-5.616-12.273-9.806 1.329-0.422 2.49-1.417 3.986-1.417 1.956 0 3.192 1.46 4.872 1.95 1.934 0.563 3.077 0.15 4.818 1.365 9.821 6.85 19.642 13.7 29.462 20.55l73.278 51.111c0.408 0.284 0.816 0.569 1.225 0.854-2.37 0-4.99 0.59-6.91 0.71"/>
	<path id="path113" style="fill:#C8D4D4" d="m154.51 129.79c-1.074-0.252-2.456-0.343-3.015 0.354-35.669-25.158-71.339-50.316-107.01-75.474 2.502-0.685 2.801-0.868 5.135-0.356 2.435 0.533 5.191 0.365 7.531 1.153 6.911 2.327 13.955 9.25 19.944 13.421 26.669 18.571 53.339 37.141 80.009 55.711 2.146 1.495 4.292 2.989 6.438 4.483-3.01-0.46-6.13-0.24-9.04 0.71"/>
	<path id="path115" style="fill:#BECCCC" d="m62.382 54.491c35.315 24.509 70.628 49.019 105.95 73.529-1.738-0.525-4.153-0.854-6.023-0.619-0.864 0.107-4.885 1.271-5.406 0.909-2.396-1.66-4.793-3.32-7.189-4.98-12.443-8.621-24.886-17.242-37.33-25.863-21.273-14.741-42.546-29.479-63.819-44.217 4.558 0 9.922 0.344 13.821 1.241"/>
	<path id="path117" style="fill:#93BFBF" d="m134.31 168.06c9.964 5.649 23.001-2.436 30.225-8.854 7.376-6.557 12.43-20.155 5.726-28.717-2.129-2.719-2.894-2.886-6.423-2.415-2.877 0.384-5.645 1.063-8.449 1.802-5.456 1.435-9.923 5.059-13.814 8.95-6.89 6.88-8.72 20.77-7.28 29.23"/>
	<path id="path119" style="stroke:#EDFFFF;stroke-width:.2;stroke-miterlimit:10;stroke-linecap:square;fill:none" d="m134.31 168.06c9.964 5.649 23.001-2.436 30.225-8.854 7.376-6.557 12.43-20.155 5.726-28.717-2.129-2.719-2.894-2.886-6.423-2.415-2.877 0.384-5.645 1.063-8.449 1.802-5.456 1.435-9.923 5.059-13.814 8.95-7.107 7.107-8.339 20.124-7.264 29.41"/>
	<path id="path121" style="fill:#BECCCC" d="m160.71 139c-6.198 0.93-12.358 5.366-14.707 11.25-1.255 3.144-2.008 6.529-1.331 9.904 0.734 3.662 6.172 6.024 8.951 8.079 0-5.403-0.36-11.865 3.751-15.977 4.002-4.002 9.386-7.212 15.205-5.816-3.96-2.47-7.91-4.95-11.87-7.43"/>
	<path id="path123" style="fill:#93BFBF" d="m153.62 168.06c4.834 1.246 11.236-1.799 14.199-5.573 2.211-2.815 9.233-12.948 4.757-16.044-3.809-2.635-12.63 2.517-14.884 5.495-2.9 3.83-4.96 12.01-4.08 16.12"/>
	<path id="path125" style="stroke:#EDFFFF;stroke-width:.2;stroke-miterlimit:10;stroke-linecap:square;fill:none" d="m153.62 168.06c4.834 1.246 11.236-1.799 14.199-5.573 2.463-3.137 8.451-11.601 5.199-15.512-3.439-4.137-12.404 2.458-15.068 4.741-3.492 2.995-4.962 12.267-4.33 16.52"/>
	<path id="path127" style="fill:#C8D4D4" d="m146.18 150.34c2.894 1.771 5.788 3.544 8.682 5.315 0.932-2.469 2.635-5.752 5.492-6.378-1.472-1.128-7.274-6.807-8.682-6.112-2.43 1.2-5.87 4.88-5.49 7.17"/>
	<path id="path129" style="fill:#676E6E" d="m160.36 161.5c1.667-3.974 3.2-6.549 7.973-6.73-0.14 4.29-3.83 7.1-7.97 6.73"/>
	<path id="path131" style="fill:#4F5454" d="m163.9 159.91c12.771 9.285 25.542 18.569 38.313 27.854 8.01 5.824 16.021 11.647 24.031 17.472 4.995 3.631 7.215 5.189 13.31 6.406l-42.856-31.442-25.062-18.387c-2.09-1.53-7.05-7.02-7.73-1.9"/>
	<path id="path133" style="fill:#797F7F" d="m166.2 161.15c12.153 8.868 24.307 17.736 36.461 26.605 7.89 5.757 15.78 11.515 23.67 17.271 4.646 3.39 6.868 5.292 12.51 6.265-13.573-9.934-27.146-19.867-40.72-29.801-8.189-5.993-16.379-11.987-24.568-17.98-2.43-1.79-6.18-6.16-7.35-2.37"/>
	<path id="path135" style="fill:#A5AAAA" d="m168.68 162.57c11.646 8.489 23.291 16.978 34.937 25.467 7.646 5.573 15.291 11.146 22.937 16.72 4.019 2.93 6.551 5.296 11.4 6.18-12.691-9.287-25.382-18.573-38.073-27.86-7.929-5.802-15.857-11.604-23.786-17.405-1.48-1.09-6.67-6.67-7.42-3.11"/>
	<path id="path137" style="fill:#D1D4D4" d="m171.17 163.81c10.963 8.067 21.925 16.135 32.888 24.203 7.269 5.349 14.537 10.698 21.806 16.047 3.638 2.678 6.706 5.957 11.214 6.523-21.793-15.945-43.585-31.891-65.378-47.836-0.22 0.35-0.54 1.19-0.53 1.07"/>
	<path id="path139" style="fill:#FFFFFF" d="m173.47 165.22l31.461 23.07c7.034 5.158 14.069 10.316 21.104 15.476 2.619 1.92 6.654 6.419 10.154 6.633l-62.543-46.065c0.01 0.07-0.15 1.55-0.17 0.88"/>
	<path id="path141" style="fill:#4F5454" d="m165.14 160.26c2.539 1.949 5.077 3.899 7.616 5.849-0.173-1.455 0.785-2.45 2.129-1.596-2.07-1.55-8.52-8.34-9.75-4.25"/>
	<path id="path143" style="fill:#4F5454" d="m234.24 210.05c1.248-0.146 3.184 0.385 4.606 1.242-1.58-0.02-3.42-0.46-4.61-1.24"/>
	<path id="path145" style="stroke:#B4C2C2;stroke-linecap:square;stroke-miterlimit:10;fill:none" d="m149.02 119.69c-3.237 0.183-6.345 1.188-8.152 4.076"/>
	<path id="path147" style="stroke:#B4C2C2;stroke-linecap:square;stroke-miterlimit:10;fill:none" d="m140.87 114.2c-3.353 0.282-6.229 1.009-8.149 4.074"/>
	<path id="path149" style="stroke:#B4C2C2;stroke-linecap:square;stroke-miterlimit:10;fill:none" d="m133.43 109.94c-2.908 0.232-6.679 1.065-7.973 4.077"/>
	<path id="path151" style="stroke:#B4C2C2;stroke-linecap:square;stroke-miterlimit:10;fill:none" d="m127.23 105.16c-3.208 0.665-6.009 1.096-8.149 4.073"/>
	<path id="path153" style="stroke:#B4C2C2;stroke-linecap:square;stroke-miterlimit:10;fill:none" d="m120.85 100.56c-3.26-0.057-6.213 1.205-8.149 3.898"/>
	<path id="path155" style="stroke:#B4C2C2;stroke-linecap:square;stroke-miterlimit:10;fill:none" d="m115.36 96.48c-3.207 0.662-6.019 1.097-8.153 4.075"/>
	<path id="path157" style="stroke:#B4C2C2;stroke-linecap:square;stroke-miterlimit:10;fill:none" d="m108.8 92.051c-2.923 0.17-6.86 1.079-8.149 4.075"/>
	<path id="path159" style="stroke:#B4C2C2;stroke-linecap:square;stroke-miterlimit:10;fill:none" d="m102.07 87.268c-2.745 0.68-6.222 1.008-7.973 4.074"/>
	<path id="path161" style="stroke:#B4C2C2;stroke-linecap:square;stroke-miterlimit:10;fill:none" d="m95.512 82.307c-2.839 0.042-6.755 1.247-7.973 4.074"/>
	<path id="path163" style="stroke:#B4C2C2;stroke-linecap:square;stroke-miterlimit:10;fill:none" d="m88.958 77.877c-3.082 0.23-6.334 0.923-7.973 3.896"/>
	<path id="path165" style="fill:#BECCCC" d="m56.71 53.605c7.516 0.164 13.604 6.305 19.578 10.402 1.814 1.244 3.628 2.488 5.443 3.732 0.815 0.559 3.291-1.625 4.036-2.087 3.889-2.409 4.289-3.633 4.253-8.326-0.031-4.144-3.8-17.209-10.133-14.297-7.58 3.486-15.273 7.983-23.177 10.576"/>
	<path id="path167" style="fill:#BECCCC" d="m32.263 93.823c-3.16 1.831-6.319 3.661-9.479 5.492-2.354 1.363-6.735 5.235-9.479 5.491-5.944 0.55-11.694-8.537-11.694-13.461 0-2.119-0.215-7.175 1.824-8.301 3.263-1.803 6.526-3.606 9.79-5.409 7.232-3.996 14.464-7.991 21.696-11.986-5.8 7.636-7.73 20.265-2.658 28.17"/>
	<path id="path169" style="fill:#EDFFFF" d="m34.92 65.652c-5.985 3.306-11.969 6.613-17.954 9.919-3.791 2.094-7.581 4.188-11.371 6.282-2.82 1.558-2.569 1.632-5.401-0.256 5.912-3.155 11.823-6.31 17.734-9.465 5.185-2.767 11.121-8.111 16.992-6.48"/>
	<path id="path171" style="stroke:#EDFFFF;stroke-width:.2;stroke-miterlimit:10;stroke-linecap:square;fill:none" d="m34.92 65.652c-5.985 3.306-11.969 6.613-17.954 9.919-3.791 2.094-7.581 4.188-11.371 6.282-2.82 1.558-2.569 1.632-5.401-0.256 5.912-3.155 11.823-6.31 17.734-9.465 5.185-2.767 11.121-8.111 16.992-6.48"/>
	<path id="path173" style="fill:#EDFFFF" d="m52.99 53.074c5.048 1.063 8.594-1.68 13.271-3.818 4.967-2.271 9.934-4.541 14.9-6.812-3.717-1.728-9.859 2.75-13.128 4.171-4.95 2.15-9.938 4.758-15.043 6.459"/>
	<path id="path175" style="stroke:#EDFFFF;stroke-width:.2;stroke-miterlimit:10;stroke-linecap:square;fill:none" d="m52.99 53.074c5.048 1.063 8.594-1.68 13.271-3.818 4.967-2.271 9.934-4.541 14.9-6.812-3.717-1.728-9.859 2.75-13.128 4.171-4.955 2.153-9.911 4.306-14.866 6.459"/>
	<path id="path177" style="fill:#F6FFFF" d="m2.674 83.369c-0.834 6.2-1.732 10.958 1.771 16.655-4.455-5.026-4.543-12.035-4.251-18.426 0.716 0.481 2.286 1.571 2.48 1.775"/>
	<path id="path179" style="fill:#B5C9C9" d="m32.263 93.823c-2.856 1.661-5.712 3.321-8.568 4.981-1.873 1.089-5.055 3.88-7.2 3.701-5.284-0.442-9.745-8.4-9.745-13.061 0-1.464-0.315-7.976 1.108-8.758 2.619-1.438 5.238-2.876 7.858-4.314 6.401-3.515 12.803-7.029 19.205-10.544-6.265 7.133-7.487 20.473-2.658 28"/>
	<path id="path181" style="fill:#ACC7C7" d="m32.263 93.823c-2.897 1.668-10.353 8.169-13.432 5.971-4.213-3.008-6.843-7.48-7.12-12.705-0.148-2.789 0.431-5.395 1.03-8.087 0.416-1.869 3.214-2.62 4.794-3.499 5.795-3.225 11.59-6.45 17.386-9.675-5.824 7.676-7.782 20.008-2.658 27.995"/>
	<path id="path183" style="fill:#A4C4C4" d="m32.263 93.823c-3.533 2.073-7.056 6.315-10.453 3.01-3.352-3.26-4.415-7.571-5.083-12.033-0.565-3.773-0.058-8.718 3.332-10.589l14.862-8.205c-6.322 7.176-7.544 20.202-2.658 27.817"/>
	<path id="path185" style="fill:#9BC2C2" d="m32.263 93.823c-3.803 2.194-4.719 3.645-7.344-0.296-2.05-3.078-2.866-6.876-3.047-10.506-0.097-1.95-0.494-9.447 1.373-10.49 3.892-2.175 7.784-4.349 11.676-6.524-5.566 8.045-8 19.49-2.658 27.816"/>
	<path id="path187" style="fill:#93BFBF" d="m34.744 66.185c-2.51 4.715-4.823 8.729-5.37 14.166-0.285 2.836 0.134 5.526 0.711 8.294 0.299 1.437 3.287 6.512 0.936 5.532-3.889-1.621-4.312-11.774-4.25-15.06 0.056-2.968 0.652-5.866 1.19-8.77 0.255-1.378 6.024-3.559 6.783-4.162"/>
	<path id="path189" style="fill:#B5C9C9" d="m88.072 64.235c0-4.269-0.203-8.552-2.038-12.49-1.377-2.954-5.335-8.923-9.213-7.264-6.039 2.583-14.796 5.37-19.577 9.303 4.743-0.14 7.905 2.397 11.869 5.137 3.623 2.503 7.198 5.08 10.796 7.62 2.386 1.684 5.701-1.119 8.163-2.306"/>
	<path id="path191" style="fill:#ACC7C7" d="m86.653 64.943c-0.292-3.704-1.412-7.637-3.158-10.907-1.358-2.544-4.565-8.549-8.002-8.759-1.885-0.115-6.335 2.72-8.153 3.543-2.743 1.242-8.057 2.586-9.744 4.962 9.962-0.668 19.603 18.435 29.057 11.161"/>
	<path id="path193" style="fill:#A4C4C4" d="m85.238 65.829c-0.337-6.456-6.244-15.012-12.172-17.507-2.712-1.141-3.875-0.324-6.431 0.854-2.458 1.133-7.49 2.456-8.859 4.43 3.79 0.811 5.604 1.453 9.272 3.982 4.453 3.069 12.22 11.502 18.19 8.241"/>
	<path id="path195" style="fill:#9BC2C2" d="m83.819 66.714c-1.647-5.471-6.586-11.434-10.997-14.903-5.65-4.442-9.271-1.174-15.226 1.439 1.97 1.366 4.77 1.11 7.177 2.747 2.695 1.833 16.736 13.433 19.046 10.717"/>
	<path id="path197" style="fill:#93BFBF" d="m57.067 53.427c3.018 0.787 5.128 0.813 7.881 2.715 1.996 1.379 15.84 12.657 17.366 11.636 1.587-1.062-8.129-11.496-9.479-12.58-2.493-2.004-4.943-3.306-8.03-4.117-2.789-0.734-5.188 2.43-7.738 2.346"/>
	<path id="path199" style="fill:#4F5454" d="m31.021 63.527c4.062-5.199 10.079-8.92 16.603-10.106 1.527-0.277 9.404-0.243 8.025-3.006-1.397-2.8-5.319-4.102-8.115-4.7-6.488-1.39-13.65 0.832-18.625 5.095-6.395 5.48-8.87 11.513-8.87 19.804 2.955-1.583 9.939-3.584 10.982-7.087"/>
	<path id="path201" style="fill:#748C8C" d="m19.86 70.436c-0.453-16.777 18.28-31.475 33.84-22.325-5.187-5.871-17.901-3.938-23.742-0.353-8.829 5.42-12.205 13.751-11.515 23.742 0.696-0.239 1.287-0.867 1.417-1.064"/>
	<path id="path203" style="fill:#3C4040" d="m29.958 65.121c2.663-3.881 6.252-6.75 10.28-9.121 2.008-1.182 4.29-1.793 6.551-2.307 2.284-0.52 6.15 0.313 7.62-1.682-10.501-0.096-23.879 1.81-26.752 14.35 0.8-0.268 1.774-0.792 2.301-1.24"/>
	<path id="path205" style="stroke:#FFFFFF;stroke-linecap:square;stroke-miterlimit:10;fill:none" d="m138.92 127.31c2.212-3.377 5.097-5.937 9.215-6.558"/>
	<path id="path207" style="stroke:#FFFFFF;stroke-linecap:square;stroke-miterlimit:10;fill:none" d="m130.59 121.64c2.454-2.739 5.016-6.474 9.388-6.377"/>
	<path id="path209" style="stroke:#FFFFFF;stroke-linecap:square;stroke-miterlimit:10;fill:none" d="m123.33 117.39c2.36-2.775 5.087-6.467 9.388-6.379"/>
	<path id="path211" style="stroke:#FFFFFF;stroke-linecap:square;stroke-miterlimit:10;fill:none" d="m117.13 113.14c2.63-3.331 4.94-5.887 9.388-6.557"/>
	<path id="path213" style="stroke:#FFFFFF;stroke-linecap:square;stroke-miterlimit:10;fill:none" d="m110.4 108.17c2.206-3.363 5.099-5.95 9.211-6.554"/>
	<path id="path215" style="stroke:#FFFFFF;stroke-linecap:square;stroke-miterlimit:10;fill:none" d="m105.08 104.45c2.084-3.54 5.019-5.933 9.211-6.556"/>
	<path id="path217" style="stroke:#FFFFFF;stroke-linecap:square;stroke-miterlimit:10;fill:none" d="m98.525 99.848c2.198-3.535 5.183-5.924 9.388-6.558"/>
	<path id="path219" style="stroke:#FFFFFF;stroke-linecap:square;stroke-miterlimit:10;fill:none" d="m91.792 95.24c2.487-3.462 4.993-5.901 9.392-6.556"/>
	<path id="path221" style="stroke:#FFFFFF;stroke-linecap:square;stroke-miterlimit:10;fill:none" d="m84.881 90.28c2.359-2.771 5.091-6.473 9.391-6.377"/>
	<path id="path223" style="stroke:#FFFFFF;stroke-linecap:square;stroke-miterlimit:10;fill:none" d="m78.151 85.674c2.286-3.485 5.059-6.019 9.388-6.557"/>
</g>
<metadata><rdf:RDF><cc:Work><dc:format>image/svg+xml</dc:format><dc:type rdf:resource="http://purl.org/dc/dcmitype/StillImage"/><cc:license rdf:resource="http://creativecommons.org/licenses/publicdomain/"/><dc:publisher><cc:Agent rdf:about="http://openclipart.org/"><dc:title>Openclipart</dc:title></cc:Agent></dc:publisher><dc:title>Architetto -- Analisi del sangue</dc:title><dc:date>2006-12-26T00:00:00</dc:date><dc:description/><dc:source>https://openclipart.org/detail/24745/-by--24745</dc:source><dc:creator><cc:Agent><dc:title>Anonymous</dc:title></cc:Agent></dc:creator></cc:Work><cc:License rdf:about="http://creativecommons.org/licenses/publicdomain/"><cc:permits rdf:resource="http://creativecommons.org/ns#Reproduction"/><cc:permits rdf:resource="http://creativecommons.org/ns#Distribution"/><cc:permits rdf:resource="http://creativecommons.org/ns#DerivativeWorks"/></cc:License></rdf:RDF></metadata></svg>