<?xml version="1.0" encoding="UTF-8" standalone="no"?>
<!-- Created with Inkscape (http://www.inkscape.org/) -->
<svg xmlns:inkscape="http://www.inkscape.org/namespaces/inkscape" xmlns:rdf="http://www.w3.org/1999/02/22-rdf-syntax-ns#" xmlns="http://www.w3.org/2000/svg" xmlns:sodipodi="http://sodipodi.sourceforge.net/DTD/sodipodi-0.dtd" xmlns:cc="http://creativecommons.org/ns#" xmlns:xlink="http://www.w3.org/1999/xlink" xmlns:dc="http://purl.org/dc/elements/1.1/" id="svg2" viewBox="0 0 581.55 500.58" sodipodi:docname="_svgclean2.svg" version="1.1" inkscape:version="0.48.3.1 r9886">
  <defs id="defs4">
    <radialGradient id="radialGradient3838" gradientUnits="userSpaceOnUse" cy="456.29" cx="530" gradientTransform="matrix(1.5541,1.6317,-2.721,2.5916,947.92,-1591)" r="25.5" inkscape:collect="always">
      <stop id="stop3832" style="stop-color:#000000" offset="0"/>
      <stop id="stop3834" style="stop-color:#000000" offset="1"/>
    </radialGradient>
    <radialGradient id="radialGradient3029" xlink:href="#radialGradient3838" gradientUnits="userSpaceOnUse" cy="456.29" cx="530" gradientTransform="matrix(1.5541,1.6317,-2.721,2.5916,947.92,-1591)" r="25.5" inkscape:collect="always"/>
  </defs>
  <sodipodi:namedview id="base" bordercolor="#666666" inkscape:pageshadow="2" inkscape:window-y="0" pagecolor="#ffffff" inkscape:window-maximized="0" inkscape:zoom="0.9899495" inkscape:window-x="0" inkscape:window-height="645" showgrid="false" borderopacity="1.0" inkscape:current-layer="layer2" inkscape:cx="287.56443" inkscape:cy="240.12577" inkscape:window-width="674" inkscape:pageopacity="0.0" inkscape:document-units="px">
    <inkscape:grid id="grid4911" originy="-315.13674px" type="xygrid" originx="-89.88085px"/>
  </sodipodi:namedview>
  <g id="layer2" sodipodi:insensitive="true" inkscape:label="Cubic" inkscape:groupmode="layer" transform="translate(-89.881 -236.65)">
    <g id="g2999" inkscape:corner7="0.33099935 : 0.16998355 : 0.56554596 : 1" sodipodi:type="inkscape:box3d" inkscape:corner0="1.0691459 : 0.56632099 : 0 : 1" style="stroke:#aa4400;fill-opacity:.37255;fill:#ffe6d5" inkscape:perspectiveID="#perspective2997">
      <path id="path3005" inkscape:box3dsidetype="3" style="fill-rule:evenodd;stroke:#aa4400;stroke-width:1.1621;fill:#ffe6d5" sodipodi:type="inkscape:box3dside" d="m428.35 353.86h-313.45v358.58h313.45z"/>
      <path id="path3001" inkscape:box3dsidetype="6" style="fill-rule:evenodd;stroke:#aa4400;stroke-width:1.1621;fill:#ffe6d5" sodipodi:type="inkscape:box3dside" d="m428.35 353.86v358.58l217.23-93.097v-358.58z"/>
      <path id="path3003" inkscape:box3dsidetype="5" style="fill-rule:evenodd;stroke:#aa4400;stroke-width:1.1621;fill:#ffe6d5" sodipodi:type="inkscape:box3dside" d="m428.35 353.86h-313.45l217.23-93.097h313.45z"/>
      <path id="path3009" inkscape:box3dsidetype="13" style="fill-rule:evenodd;stroke:#aa4400;stroke-width:1.1621;fill:#ffe6d5" sodipodi:type="inkscape:box3dside" d="m428.35 712.44h-313.45l217.23-93.097h313.45z"/>
      <path id="path3007" inkscape:box3dsidetype="14" style="fill-rule:evenodd;stroke:#aa4400;stroke-width:1.1621;fill:#ffe6d5" sodipodi:type="inkscape:box3dside" d="m114.9 353.86v358.58l217.23-93.097v-358.58z"/>
      <path id="path3011" inkscape:box3dsidetype="11" style="fill-rule:evenodd;stroke:#aa4400;stroke-width:1.1621;fill:#ffe6d5" sodipodi:type="inkscape:box3dside" d="m645.58 260.76h-313.45v358.58h313.45z"/>
    </g>
    <path id="path3818-0-7-76-5" sodipodi:rx="25" sodipodi:ry="25.357143" style="stroke:url(#radialGradient3029);fill:#000000" sodipodi:type="arc" d="m555 456.29c0 14.004-11.193 25.357-25 25.357s-25-11.353-25-25.357 11.193-25.357 25-25.357 25 11.353 25 25.357z" transform="matrix(.98053 0 0 .96672 -92.537 270.54)" sodipodi:cy="456.29074" sodipodi:cx="530"/>
    <path id="path3818-0-7-3" sodipodi:rx="25" sodipodi:ry="25.357143" style="stroke:url(#radialGradient3029);fill:#000000" sodipodi:type="arc" d="m555 456.29c0 14.004-11.193 25.357-25 25.357s-25-11.353-25-25.357 11.193-25.357 25-25.357 25 11.353 25 25.357z" transform="matrix(.98053 0 0 .96672 126.75 -179.46)" sodipodi:cy="456.29074" sodipodi:cx="530"/>
    <path id="path3818-0-7-8" sodipodi:rx="25" sodipodi:ry="25.357143" style="stroke:url(#radialGradient3029);fill:#000000" sodipodi:type="arc" d="m555 456.29c0 14.004-11.193 25.357-25 25.357s-25-11.353-25-25.357 11.193-25.357 25-25.357 25 11.353 25 25.357z" transform="matrix(.98053 0 0 .96672 -186.11 179.83)" sodipodi:cy="456.29074" sodipodi:cx="530"/>
    <path id="path3818-0-7-4" sodipodi:rx="25" sodipodi:ry="25.357143" style="stroke:url(#radialGradient3029);fill:#000000" sodipodi:type="arc" d="m555 456.29c0 14.004-11.193 25.357-25 25.357s-25-11.353-25-25.357 11.193-25.357 25-25.357 25 11.353 25 25.357z" transform="matrix(.98053 0 0 .96672 -403.97 -86.599)" sodipodi:cy="456.29074" sodipodi:cx="530"/>
  </g>
  <g id="layer3" sodipodi:insensitive="true" inkscape:label="Diamond" inkscape:groupmode="layer" transform="translate(-89.881 -236.65)">
    <path id="rect4060-5" style="fill-opacity:.37255;stroke:#000046;stroke-width:1.7478;fill:#0044aa" inkscape:connector-curvature="0" d="m241.01 613.82c-1.5019-2.0425-4.669-2.1574-7.1196-0.27863l-104.87 80.394c-2.4504 1.8786-3.2264 5.016-1.7245 7.0585l2.6388 3.5892c1.5019 2.0426 4.6691 2.1574 7.1196 0.27866l104.87-80.394c2.4504-1.8786 3.2264-5.016 1.7245-7.0586l-2.6388-3.5892z"/>
    <path id="path3818" sodipodi:rx="25" sodipodi:ry="25.357143" style="stroke:url(#radialGradient3029);fill:#000000" sodipodi:type="arc" d="m555 456.29c0 14.004-11.193 25.357-25 25.357s-25-11.353-25-25.357 11.193-25.357 25-25.357 25 11.353 25 25.357z" transform="matrix(.98053 0 0 .96672 -404.8 271.12)" sodipodi:cy="456.29074" sodipodi:cx="530"/>
    <path id="rect4060-5-9" style="fill-opacity:.37255;stroke:#000048;stroke-width:1.1985;fill:#0044aa" inkscape:connector-curvature="0" d="m266.76 615.66c-0.67937 1.4781 0.44356 3.3933 2.5118 4.3111l88.506 39.282c2.0681 0.91786 4.2729 0.47971 4.9522-0.99836l1.1939-2.5971c0.67937-1.4781-0.44356-3.3933-2.5118-4.3111l-88.506-39.282c-2.0681-0.91785-4.2729-0.47966-4.9522 0.99844l-1.1939 2.597z"/>
    <path id="rect4060" style="fill-opacity:.37255;stroke:#000049;stroke-width:1.2964;fill:#0044aa" inkscape:connector-curvature="0" d="m233.29 490.5c-1.8446 0.2239-3.0882 2.2531-2.8088 4.5536l11.959 98.455c0.27943 2.3005 1.9727 3.9732 3.8173 3.7494l3.241-0.39339c1.8446-0.2239 3.0882-2.2531 2.8088-4.5536l-11.959-98.455c-0.27942-2.3005-1.9727-3.9732-3.8173-3.7493l-3.2411 0.39339z"/>
    <path id="rect4060-3" style="fill-opacity:.37255;stroke:#000046;stroke-width:1.2438;fill:#0044aa" inkscape:connector-curvature="0" d="m374.05 317.53c-2.8068-0.0762-5.3001 0.99251-5.622 2.3961l-13.774 60.069c-0.32183 1.4036 1.6538 2.5935 4.4604 2.6697l4.9316 0.13382c2.8068 0.0761 5.3002-0.99251 5.622-2.3961l13.774-60.069c0.32186-1.4036-1.6538-2.5935-4.4604-2.6697l-4.93-0.13z"/>
    <path id="rect4060-8-9" style="fill-opacity:.37255;stroke:#000046;stroke-width:1.4071;fill:#0044aa" inkscape:connector-curvature="0" d="m344.24 405c-1.0077-1.7567-3.5428-2.1258-5.6965-0.84633l-92.17 54.757c-2.1537 1.2795-3.0842 3.7075-2.0764 5.4642l1.7707 3.0867c1.0078 1.7567 3.5428 2.1258 5.6965 0.84633l92.17-54.757c2.1537-1.2795 3.0842-3.7075 2.0764-5.4642l-1.77-3.09z"/>
    <path id="path3818-6" sodipodi:rx="25" sodipodi:ry="25.357143" style="stroke:url(#radialGradient3029);fill:#000000" sodipodi:type="arc" d="m555 456.29c0 14.004-11.193 25.357-25 25.357s-25-11.353-25-25.357 11.193-25.357 25-25.357 25 11.353 25 25.357z" transform="matrix(.98053 0 0 .96672 -290.38 30.42)" sodipodi:cy="456.29074" sodipodi:cx="530"/>
    <path id="path3818-9" sodipodi:rx="25" sodipodi:ry="25.357143" style="stroke:url(#radialGradient3029);fill:#000000" sodipodi:type="arc" d="m555 456.29c0 14.004-11.193 25.357-25 25.357s-25-11.353-25-25.357 11.193-25.357 25-25.357 25 11.353 25 25.357z" transform="matrix(.98053 0 0 .96672 -264.33 163.78)" sodipodi:cy="456.29074" sodipodi:cx="530"/>
    <path id="rect4060-5-3" style="fill-opacity:.37255;stroke:#000048;stroke-width:.97687;fill:#0044aa" inkscape:connector-curvature="0" d="m261.02 545.86c-2.4304 0.4819-4.5094 1.7035-4.6882 2.745l-7.6608 44.572c-0.17897 1.0415 1.6119 1.4958 4.0422 1.0139l4.2706-0.8467c2.4305-0.48193 4.5094-1.7035 4.6883-2.745l7.6608-44.572c0.17894-1.0415-1.6119-1.4958-4.0423-1.0139l-4.2705 0.84668z"/>
    <path id="rect4060-3-0" style="fill-opacity:.37255;stroke:#000049;stroke-width:1.6916;fill:#0044aa" inkscape:connector-curvature="0" d="m386.27 462.19c-1.2906-2.4139-4.2218-3.3256-6.5878-2.0704l-101.26 53.719c-2.366 1.2552-3.2422 4.1869-1.9516 6.6007l2.2677 4.2413c1.2906 2.4139 4.2218 3.3256 6.5878 2.0704l101.25-53.72c2.3661-1.2552 3.2422-4.1869 1.9516-6.6007l-2.27-4.24z"/>
    <path id="path3818-0" sodipodi:rx="25" sodipodi:ry="25.357143" style="stroke:url(#radialGradient3029);fill:#000000" sodipodi:type="arc" d="m555 456.29c0 14.004-11.193 25.357-25 25.357s-25-11.353-25-25.357 11.193-25.357 25-25.357 25 11.353 25 25.357z" transform="matrix(.98053 0 0 .96672 -256.88 89.029)" sodipodi:cy="456.29074" sodipodi:cx="530"/>
    <path id="path3818-0-7-2-0" sodipodi:rx="25" sodipodi:ry="25.357143" style="stroke:url(#radialGradient3029);fill:#000000" sodipodi:type="arc" d="m555 456.29c0 14.004-11.193 25.357-25 25.357s-25-11.353-25-25.357 11.193-25.357 25-25.357 25 11.353 25 25.357z" transform="matrix(.98053 0 0 .96672 124.48 180.15)" sodipodi:cy="456.29074" sodipodi:cx="530"/>
    <path id="path3818-0-7-11-5" sodipodi:rx="25" sodipodi:ry="25.357143" style="stroke:url(#radialGradient3029);fill:#000000" sodipodi:type="arc" d="m555 456.29c0 14.004-11.193 25.357-25 25.357s-25-11.353-25-25.357 11.193-25.357 25-25.357 25 11.353 25 25.357z" transform="matrix(.98053 0 0 .96672 -186.23 -178.42)" sodipodi:cy="456.29074" sodipodi:cx="530"/>
    <path id="rect4060-0" style="fill-opacity:.37255;stroke:#000046;stroke-width:1.4741;fill:#0044aa" inkscape:connector-curvature="0" d="m333.43 274.62c-2.5308-0.2151-4.2987 1.4046-3.9918 3.6307l13.134 95.268c0.30687 2.226 2.5686 4.1884 5.0995 4.4035l4.4468 0.37802c2.5308 0.2151 4.2987-1.4046 3.9918-3.6307l-13.134-95.268c-0.30691-2.2261-2.5687-4.1884-5.0995-4.4035l-4.4468-0.37793z"/>
    <path id="path3818-0-7-0-1" sodipodi:rx="25" sodipodi:ry="25.357143" style="stroke:url(#radialGradient3029);fill:#000000" sodipodi:type="arc" d="m555 456.29c0 14.004-11.193 25.357-25 25.357s-25-11.353-25-25.357 11.193-25.357 25-25.357 25 11.353 25 25.357z" transform="matrix(.98053 0 0 .96672 -42.659 -9.9885)" sodipodi:cy="456.29074" sodipodi:cx="530"/>
    <path id="path3818-0-7-79-3" sodipodi:rx="25" sodipodi:ry="25.357143" style="stroke:url(#radialGradient3029);fill:#000000" sodipodi:type="arc" d="m555 456.29c0 14.004-11.193 25.357-25 25.357s-25-11.353-25-25.357 11.193-25.357 25-25.357 25 11.353 25 25.357z" transform="matrix(.98053 0 0 .96672 -139.37 -134.42)" sodipodi:cy="456.29074" sodipodi:cx="530"/>
    <path id="path3818-0-7-5-0" sodipodi:rx="25" sodipodi:ry="25.357143" style="stroke:url(#radialGradient3029);fill:#000000" sodipodi:type="arc" d="m555 456.29c0 14.004-11.193 25.357-25 25.357s-25-11.353-25-25.357 11.193-25.357 25-25.357 25 11.353 25 25.357z" transform="matrix(.98053 0 0 .96672 -162.94 -44.703)" sodipodi:cy="456.29074" sodipodi:cx="530"/>
    <path id="rect4060-3-7" style="fill-opacity:.37255;stroke:#000046;stroke-width:1.3972;stroke-opacity:.96833;fill:#0044aa" inkscape:connector-curvature="0" d="m468.02 426.84c0.56302-2.1629-0.71434-4.4035-2.859-5.0482l-91.786-27.589c-2.1447-0.64465-4.3185 0.55868-4.8815 2.7216l-0.98929 3.8004c-0.563 2.163 0.71436 4.4036 2.859 5.0482l91.786 27.589c2.1447 0.64465 4.3185-0.55867 4.8815-2.7216l0.98924-3.8004z"/>
    <path id="rect4060-5-9-4" style="fill-opacity:.37255;stroke:#000046;stroke-width:1.5143;fill:#0044aa" inkscape:connector-curvature="0" d="m516.34 580.01c-0.37602 2.3028 1.2752 4.7612 3.6998 5.5381l103.76 33.254c2.4245 0.77697 4.6745-0.43103 5.0505-2.7338l0.66089-4.0462c0.37603-2.3028-1.2752-4.7612-3.6998-5.5381l-103.75-33.25c-2.4245-0.77697-4.6746 0.43107-5.0505 2.7339l-0.66092 4.0461z"/>
    <path id="rect4060-5-9-4-4" style="fill-opacity:.37255;stroke:#000046;stroke-width:1.4044;fill:#0044aa" inkscape:connector-curvature="0" d="m394.84 657.4c1.6136 1.2322 4.536 0.94411 6.5718-0.63347l87.121-67.507c2.0357-1.5774 2.389-3.8275 0.77545-5.0596l-2.8352-2.1652c-1.6136-1.2322-4.536-0.94412-6.5717 0.63345l-87.121 67.507c-2.0357 1.5775-2.389 3.8275-0.77535 5.0597l2.8351 2.1652z"/>
    <path id="path3818-0-7" sodipodi:rx="25" sodipodi:ry="25.357143" style="stroke:url(#radialGradient3029);fill:#000000" sodipodi:type="arc" d="m555 456.29c0 14.004-11.193 25.357-25 25.357s-25-11.353-25-25.357 11.193-25.357 25-25.357 25 11.353 25 25.357z" transform="matrix(.98053 0 0 .96672 -140.35 224.02)" sodipodi:cy="456.29074" sodipodi:cx="530"/>
    <path id="rect4060-5-9-4-1-8" style="fill-opacity:.37255;stroke:#000048;stroke-width:1.4405;fill:#0044aa" inkscape:connector-curvature="0" d="m497.06 550.73c2.1845-1.1126 3.6165-3.7999 3.2344-6.0393l-16.346-95.836c-0.38204-2.2393-2.4284-3.1554-4.6129-2.0428l-3.8386 1.9548c-2.1846 1.1126-3.6165 3.7999-3.2344 6.0393l16.346 95.836c0.38203 2.2394 2.4284 3.1554 4.613 2.0428l3.8385-1.9546z"/>
    <path id="path3818-0-7-0-1-4" sodipodi:rx="25" sodipodi:ry="25.357143" style="stroke:url(#radialGradient3029);fill:#000000" sodipodi:type="arc" d="m555 456.29c0 14.004-11.193 25.357-25 25.357s-25-11.353-25-25.357 11.193-25.357 25-25.357 25 11.353 25 25.357z" transform="matrix(.98053 0 0 .96672 -20.251 128.26)" sodipodi:cy="456.29074" sodipodi:cx="530"/>
    <path id="rect4060-5-9-4-1" inkscape:connector-curvature="0" sodipodi:nodetypes="ccccscccc" style="fill-opacity:.37255;stroke:#000049;stroke-width:1.2177;fill:#0044aa" d="m503.57 555.37c-0.005-0.36582 6.0623-2.7554 6.8431-4.236l23.829-50.735c0.78098-1.4805 1.0213 2.0622-2.004 2.9331l-9.3564-3.5206c-2.9465-1.1087-0.001-2.8004-0.7822-1.3199l-23.324 46.695c-0.78098 1.4805-3.0415 8.0393-0.0162 7.1684z"/>
    <path id="path3818-0-7-0-1-3" sodipodi:rx="25" sodipodi:ry="25.357143" style="stroke:url(#radialGradient3029);fill:#000000" sodipodi:type="arc" d="m555 456.29c0 14.004-11.193 25.357-25 25.357s-25-11.353-25-25.357 11.193-25.357 25-25.357 25 11.353 25 25.357z" transform="matrix(.98053 0 0 .96672 13.892 38.258)" sodipodi:cy="456.29074" sodipodi:cx="530"/>
    <path id="rect4060-3-2" inkscape:connector-curvature="0" sodipodi:nodetypes="scscscscs" style="fill-opacity:.37255;stroke:#000048;stroke-width:1.7081;fill:#0044aa" d="m422.58 458.8c-0.0869 3.6419 1.487 6.9006 3.5289 7.3474l87.391 19.119c2.042 0.44671 3.7541-2.0933 3.841-5.735l0.15269-6.399c0.0869-3.6419-2.4958-1.6101-4.5378-2.0569l-86.382-19.706c-2.039-0.46516-3.7541-2.6094-3.841 1.0324z"/>
    <path id="rect4060-3-4" style="fill-opacity:.37255;stroke:#000048;stroke-width:1.638;stroke-opacity:.98643;fill:#0044aa" inkscape:connector-curvature="0" d="m380.16 318.96c-2.4017 0.49706-3.9962 3.1299-3.6015 5.9104l16.892 119c0.39472 2.7805 2.6244 4.6219 5.0261 4.1249l4.22-0.87337c2.4017-0.49705 3.9962-3.1299 3.6015-5.9104l-16.89-119c-0.39468-2.7805-2.6244-4.6219-5.0261-4.1249l-4.22 0.87337z"/>
    <path id="path3818-0-7-5-0-4" sodipodi:rx="25" sodipodi:ry="25.357143" style="stroke:url(#radialGradient3029);fill:#000000" sodipodi:type="arc" d="m555 456.29c0 14.004-11.193 25.357-25 25.357s-25-11.353-25-25.357 11.193-25.357 25-25.357 25 11.353 25 25.357z" transform="matrix(.98053 0 0 .96672 -116.25 13.686)" sodipodi:cy="456.29074" sodipodi:cx="530"/>
    <path id="rect4060-3-71" style="fill-opacity:.37255;stroke:#000045;stroke-width:1.0965;stroke-opacity:.98190;fill:#0044aa" inkscape:connector-curvature="0" d="m424.42 369.8c-1.9728-0.16741-3.8285 0.93133-4.183 2.4627l-15.169 65.537c-0.35442 1.5314 0.93102 2.8968 2.9038 3.0642l3.4664 0.29425c1.9728 0.1675 3.8285-0.93134 4.183-2.4627l15.169-65.537c0.35443-1.5314-0.93101-2.8968-2.9038-3.0642l-3.4663-0.29424z"/>
    <path id="path3818-0-7-7-5" sodipodi:rx="25" sodipodi:ry="25.357143" style="stroke:url(#radialGradient3029);fill:#000000" sodipodi:type="arc" d="m555 456.29c0 14.004-11.193 25.357-25 25.357s-25-11.353-25-25.357 11.193-25.357 25-25.357 25 11.353 25 25.357z" transform="matrix(.98053 0 0 .96672 -92.659 -84.846)" sodipodi:cy="456.29074" sodipodi:cx="530"/>
  </g>
  <metadata id="metadata52">
    <rdf:RDF>
      <cc:Work>
        <dc:format>image/svg+xml</dc:format>
        <dc:type rdf:resource="http://purl.org/dc/dcmitype/StillImage"/>
        <cc:license rdf:resource="http://creativecommons.org/licenses/publicdomain/"/>
        <dc:publisher>
          <cc:Agent rdf:about="http://openclipart.org/">
            <dc:title>Openclipart</dc:title>
          </cc:Agent>
        </dc:publisher>
      </cc:Work>
      <cc:License rdf:about="http://creativecommons.org/licenses/publicdomain/">
        <cc:permits rdf:resource="http://creativecommons.org/ns#Reproduction"/>
        <cc:permits rdf:resource="http://creativecommons.org/ns#Distribution"/>
        <cc:permits rdf:resource="http://creativecommons.org/ns#DerivativeWorks"/>
      </cc:License>
    </rdf:RDF>
  </metadata>
</svg>