<?xml version="1.0" encoding="UTF-8" standalone="no"?>
<svg xmlns:rdf="http://www.w3.org/1999/02/22-rdf-syntax-ns#" xmlns="http://www.w3.org/2000/svg" height="903pt" width="602pt" version="1.1" xmlns:cc="http://creativecommons.org/ns#" xmlns:dc="http://purl.org/dc/elements/1.1/" viewBox="0 0 602 903">
<path d="m273.1 0c-30.2 3.212-57.7 16.41-85.5 27.64-46.5 23.47-96.68 38.53-147.2 50.21-9.36 13.25 20.26 17.92 29.34 18.69 61.96 13.96 112.9-36 172.7-37.79 18.1 3.09 46.9 10.31 35.1 36.03-46.1 3.08-96.2 3.46-134.8 32.92-27.4 25-65.24 31.5-95.14 52.4-22.22 15.1-45.17 35.6-47.56 64.3v23.5c0.875 3.7 5.35 11.6 9.438 6.6 56.92-58.6 134.6-103.1 218.3-101.5 16.7 1.9 36-5.8 49.6 7.2 9.4 6.1 7.9 21.8 20.7 23.4 18.3 3.5 37 0.4 55.5 0.6 10.3 1.2 6.3-12.4 0.8-15.4-14.3-1-30.1 2.8-43.1-5.1-25.5-12.8-24.5-55.4 1-67.8 16.7-6.9 35.4-0.9 52.6-4.6 7.8-2.5 2.9-13.67 9.4-17.37 9.9-4.49 24.1 2.76 32.5-5.22 1.1-12.56 4.9-30.07-8-38.06-3-8 1.2-21.39-9.4-25.09-31.7-9.56-63.1-21.21-96.1-25.56h-20.1zm45.9 227.3c-7.8 0-15.5 0.2-23.2 0.7-5.9 13.5-16.1 26-32 27-56.7 12.2-104.3 58.1-118.2 114.4-5.2 23.6-7 47.9-5 72-0.6 324.2 0.9 385.4 0.7 674.6 0.7 4-0.8 12 5.2 13h75.2c71.2-1 140.4-2 207.1 0h75.2c6-1 4.4-9 5.2-13-0.2-289.2 1.2-350.4 0.7-674.6 2-24.1 0.2-48.4-5.1-72-13.9-56.3-61.5-102.2-118.1-114.4-15.9-1-26.1-13.5-32-27-7.7-0.5-15.4-0.7-23.2-0.7h-12.5z" transform="scale(.8)" fill="#d92a0f"/>
<path d="m502.5 124.3c-57.7 2-115.5 1.8-173.3 2.3-19.4-2.2-29.1 26.5-15.5 38.5 8.5 8.5 21.8 6.5 32.8 6.7 50.6-1.7 101.3-2.3 151.9-1.7 7.8 0.4 14.4 6.4 16.6 13.7 8.4 19.1 15.5 42.3 2.5 61.1-10.9 12.6-7.4 30.5-4 45.4 34 154.7 70.1 308.8 102.2 463.9 2.3 8.1 2.1 23.8 15 19.2 40-10.9 83.6-13.8 121.8-28.6v-1.1c-51.6-165.5-103.3-330.8-154.9-496.3-4.1-19-28.9-20.6-35.9-37.8-10.4-24-10.5-52.3-25.9-74.1-6.9-11.6-21.5-11.1-33.3-11.2zm-308.7 254.8c-7.1 0-12.8 5.7-12.8 12.8v85.2c0 7 5.7 12.7 12.8 12.7h259.8c7.1 0 12.8-5.7 12.8-12.7v-85.2c0-7.1-5.7-12.8-12.8-12.8h-259.8z" transform="scale(.8)"/>
</svg>