<?xml version="1.0" encoding="UTF-8"?>
<svg xmlns:rdf="http://www.w3.org/1999/02/22-rdf-syntax-ns#" xmlns="http://www.w3.org/2000/svg" xmlns:cc="http://creativecommons.org/ns#" xmlns:dc="http://purl.org/dc/elements/1.1/" xmlns:svg="http://www.w3.org/2000/svg" xmlns:inkscape="http://www.inkscape.org/namespaces/inkscape" xmlns:sodipodi="http://sodipodi.sourceforge.net/DTD/sodipodi-0.dtd" xmlns:ns1="http://sozi.baierouge.fr" xmlns:xlink="http://www.w3.org/1999/xlink" id="svg5267" viewBox="0 0 938.16 564.15" version="1.1">
  <g id="layer1" transform="translate(94.085 -250.3)">
    <path id="path5149" fill="#87a8bf" d="m484.9 271.57c-0.63552-0.016-1.2775 0.035-1.9062 0.031-2.6972 0.347-5.3744 0.8297-8.0312 1.4063-38.838 4.6794-76.606 32.428-94.312 78.719-2.0874 5.457-3.9131 10.346-5.5312 14.844-0.0653 0.1759-0.12261 0.3554-0.1875 0.5313-0.12145 0.3384-0.25605 0.7293-0.375 1.0625-0.76153 2.0904-1.5041 4.1769-2.2188 6.2812-2.1172 6.1581-3.719 11.24-4.9688 15.469-0.32115-0.078-0.64162-0.1364-0.78125-0.1562 0.21704 0.1447 0.44614 0.3301 0.65625 0.5624-4.4651 15.197-4 18.844-4 18.844 1.4848-0.2006 3.052-0.3448 4.6562-0.4375-1.4754 0.5379-2.9919 1.3619-4.25 2.4375-2.5458 1.7552-4.4541 3.9114-5.1875 6.5 0.88124 0.5159 2.2424 1.0633 3.9688 1.625l-1.9375 14.532c7.1654 7.7561 39.148 10.704 49.219 8.8438l1.7812-16.281c1.8006-0.049 3.4582-0.1581 4.7812-0.375 0.0542-5.1087-3.1625-8.9014-7.75-11.781-1.3042-0.397-2.6322-0.7912-4-1.1563 1.3635 0.3641 2.6997 0.7606 4 1.1563 1.4372 0.4374 2.8464 0.8729 4.1875 1.3437-1.9461-4.996-2.2891-9.4287-1.875-13.875 0.851-0.5602 2.5316-1.2354 1.5312-3.9687 0.10028-0.9419 0.33075-1.4023 0.46875-1.5937-0.15191 0.1298-0.52217 0.3571-1.25 0.5624 0.51692-2.7536 1.1795-5.5764 1.8125-8.5937 11.435-54.507 50.633-81.261 90.594-70.875 20.271 5.2687 31.674 21.393 37.906 41.812l-0.25-0.3438c0.14505 0.2536 0.26156 0.4954 0.375 0.75 0.24441 0.8119 0.49026 1.644 0.71875 2.4688 0.45992 3.0731-0.26829 6.3174 1.0938 9.9688 1.0564 14.568 3.8303 28.971 5.0312 43.5 0.11496 13.358-0.45357 26.219-1 37.469-3.8123 0.708-6.8476 1.6543-8.6562 2.875l-0.25 0.875c-0.0651-0.1051-0.12744-0.2054-0.1875-0.3125l-8.9375 10.719 5.5312 6.0937-0.59375 5.625c-1.1706 3.027-1.4049 6.6664-1.1562 10.5l-1.5312 14.219c-0.41497 2.3192-0.63457 4.6326-0.75 6.9688l-1.9688 18.281c-5.7716-0.7621-11.612-1.4854-17.594-2.1874-3.3043-10.144-7.3172-24.223-10.594-41.781-0.6378-3.418-2.7412-6.7064-5.625-8.7813-0.0349-0.058-0.0602-0.1414-0.0937-0.1874-1.552-1.2725-3.7229-2.6472-5.8438-2.6563-0.70696 0-1.3924 0.1463-2.0625 0.5-0.13891 0.073-0.24454 0.1455-0.375 0.2187h-0.28125l-0.625-22.844h-2.0312c3.6549-1.6906 6.6526-4.5415 8.5312-8.0937 8.0153 2.3515 14.628 5.5553 21.875 9.2187 10.121 2.8375 16.122-10.389 11.312-18.125-5.615-8.5757-15.026-1.6024-22.969-0.6875 0.45886-0.245 0.936-0.5723 1.375-0.9375l0.71875 0.5625c9.0826-4.9601 7.6958-16.003-1.125-17.906-7.3416-1.5838-8.1664 4.4327-12.656 6.6562l4.9062 4c0.33327 1.6533 0.98068 3.8562 2.5938 4 0.10553-0.5348 0.18182-1.1004 0.28125-1.6562l2.875 2.3437c-0.48308 1.284-1.1898 2.4425-1.5625 2.9687 0.14343 0.1426 0.33 0.2428 0.5 0.3126-1.707 0.5223-3.8457 0.6239-5.9688 0.6874-0.0171-10.101-8.2509-18.281-18.406-18.281-8.2494 0-15.225 5.4035-17.562 12.844-5.2983-0.081-7.7992-1.6301-14.219-5.125-7.1501-3.8928-14.862-3.0001-16.406 1.4374-2.3272 6.6854-0.71754 10.528 2.3125 12.344-0.0387 0.046-0.0897 0.071-0.125 0.125 0.64346 0.3755 1.3454 0.6072 2.0625 0.7188 2.62 0.7829 5.7564 0.5508 8.375-0.4063l0.3125-0.1563c0.18201-0.019 0.37507-0.029 0.5625-0.062-3.4866 1.2599-5.853 4.0528-4.8438 9.875 2.3879 13.775 12.785 8.9708 17.75 4.25 0.95019-0.5833 1.8574-1.246 2.6562-2.0313 0.30176-0.3818 0.3218-0.6024 0.21875-0.75 0.39857-0.3321 0.77987-0.644 1.1562-0.9063-0.10091 0.1503-0.19343 0.301-0.3125 0.4376 0.49278-0.058 0.82921-0.5053 0.96875-0.8438 1.0634-0.664 2.0811-1.0875 3.125-1.5 1.6981 1.9799 3.7943 3.5794 6.1875 4.6875h-0.84375l0.3125 22.312c0 0.1806 0.039 0.3533 0.0625 0.5312h-0.875c-14.385-0.7862-15.624 20.994-21.969 46.469-0.41959 1.6847-0.84282 3.3819-1.3125 5.0938 0.46615-1.7071 0.89391-3.4122 1.3125-5.0938-42.311-3.0686-87.349-4.76-132.56-4.7812-99.201-0.047-199.1 7.8254-272.28 26.219-1.8072 0.358-3.6137 0.7491-5.4062 1.1875-1.313 0.4279-2.6226 0.8551-3.9375 1.2812-66.377 18.097-108.23 45.508-102.91 84.406 0.0164 1.3739 0.0682 2.7372 0.1875 4.125 0.12808-0.336 0.23882-0.6483 0.34375-0.9687 0.24449 1.2276 0.53761 2.4687 0.875 3.7187 3.1442 11.649 8.7205 22.607 16.438 32.875 0.12992 0.9273 0.30404 1.9129 0.5625 2.9687 58.142 65.113 148.34 87.351 230.16 100.41 7.3344 1.1704 14.66 2.2829 22 3.375 119.59 19.532 259 22.057 375.56 10.094 7.7015-0.6417 15.551-1.3684 23.594-2.1874 2.4184-0.2228 5.2899-0.7456 8.4688-1.5313 111.15-14.549 195.82-43.161 212.16-83.344 16.068-39.513-26.839-74.97-78.188-102.56-3.759-11.778-8.2021-27.579-11.844-47.094-1.3331-7.1442-8.1425-13.849-15.75-12.844h-1.0938l-0.71875-26.938h-2.4062c4.3086-1.9967 7.8825-5.3394 10.094-9.5312 9.4445 2.7715 17.211 6.5581 25.75 10.875 1.2542 0.3516 2.4565 0.4752 3.5938 0.4375-0.43208 0.3882-0.78112 0.7362-1.3125 1.1875 1.253-0.071 2.5535-0.66 3.8125-1.5625 8.0278-2.285 11.837-14.009 7.2188-21.438-4.5376-6.9303-11.168-5.2327-17.906-3.125-1.3924 0.087-2.2903 0.2652-2 0.4375 0.0942 0.056 0.24962 0.069 0.4375 0.062-1.5215 0.4783-3.0374 0.9222-4.5312 1.2812 1.0996-0.5508 2.2225-1.3793 2.8438-1.8124 1.498-1.6277 2.938-3.7279 3.375-5.9376 1.7371-5.6903-1.3022-11.809-8.125-13.281-1.0694-0.2307-2.0172-0.3303-2.875-0.3125-2.2524-0.1066-4.5191 0.3097-6.2188 1.5937-0.53855 0.6346-1.1114 1.7632-1.9375 2l0.5625 0.094c0.1755 0.037 0.35396 0.083 0.53125 0.125-1.4795 1.5999-2.9159 3.3116-5 4.3438l14.125 11.562c-0.0598 0.2742-0.11716 0.5409-0.1875 0.8126 0.0955 0.7343 0.39783 1.1048 0.8125 1.25-0.8779 0.1415-1.7467 0.238-2.5938 0.25-2.1115 0.8771-4.9985 0.9773-7.8438 1.0624-0.0336-11.884-9.7405-21.514-21.688-21.531h-0.0312c-9.7114 0.014-17.937 6.3625-20.688 15.125-6.2502-0.094-9.1804-1.9101-16.75-6.0312-8.4275-4.5882-17.523-3.543-19.344 1.6874-5.3412 15.343 6.8487 17.996 14.875 15.063l2.625-1.3126c1.6802-0.315 3.3971-0.3027 5.0938-0.031-7.1047 0.2301-14.18 2.4878-12.406 12.719 2.9627 17.091 16.376 9.9401 21.781 4.1562 3.2877-3.5181 5.7331-4.7175 8.3438-5.75 1.9997 2.3332 4.4627 4.2244 7.2812 5.5312h-0.96875l0.34375 26.313c0 0.2088 0.0358 0.4191 0.0625 0.625h-1c-11.34-0.6198-15.748 10.707-19.656 27.219-7.1476-2.8941-13.974-5.5963-20.312-8.0625-5.9735-2.324-12.655-4.5609-20-6.7188l-6.4375-78.062c-0.28503 0.2683-0.85657 0.5383-1.5938 0.8124-0.36666 0.1364-0.78174 0.2695-1.25 0.4063-0.43213 0.1262-0.89317 0.249-1.4062 0.375 0.50656-0.1248 0.97898-0.25 1.4062-0.375 0.46509-0.136 0.88528-0.2706 1.25-0.4063l3.6562-5.9687-6.0625-7.8437c0.005 0.1072-0.008 0.2049-0.0312 0.3124l-0.34375-1.375c-1.9866-1.1931-7.3913-2.2833-14.469-3.125 0.0887-5.8095-0.54455-11.73 1.375-15.594 3.5055-1.4587 5.8125-3.9384 5.8125-6.75 0-4.4873-5.8644-8.125-13.125-8.125-3.5242 0-6.7332 0.8859-9.0938 2.2813 1.6298-38.859-0.72321-77.141-23-109.41-15.04-21.784-34.977-34.916-56.375-40.219-2.0347-0.7278-4.163-1.094-6.3125-1.3126-4.8356-0.8445-9.716-1.294-14.625-1.375-0.49055-0.1224-0.98441-0.2811-1.4688-0.4374-0.60683-0.2138-1.2395-0.2962-1.875-0.3126z"/>
    <path id="path3965" d="m467.92 450.97 0.28811 22.325c0 2.3776 2.0872 4.5713 4.9489 5.3731 1.3377 0.4044 2.8072 0.5971 4.2718 0.5731 3.0121-0.049 6.005-1.0142 7.7938-2.9315 0.66999-0.7077 1.4749-1.5012 1.6724-2.3304l-0.5991-23.009" stroke="#000" stroke-width="4" fill="none"/>
    <path id="path3967" d="m487.82 473.83c6.4544-0.853 12.242 4.8357 13.373 10.897 5.4008 28.942 12.844 48.593 15.721 56.375-17.658 14.355-65.939 14.241-77.896-0.2201 13.048-33.025 10.203-68.046 28.386-67.052" stroke="#000" stroke-width="4" fill="none"/>
    <path id="path3969" d="m514.66 452.1c10.121 2.8375 16.107-10.402 11.298-18.138-5.9499-9.0872-16.143-0.6646-24.357-0.5485-5.7115 2.3727-18.118-1.9522-14.704 7.9567 10.858 2.3815 18.817 6.2068 27.764 10.73z" stroke="#000" stroke-width="4" fill="none"/>
    <path id="path3971" d="m468.39 435.19c-1.9305-0.646-5.3022 1.7644-10.945 2.0537-4.5227 0.2315-22.947-4.1243-20.434 10.376 2.5136 14.5 13.895 8.4286 18.481 3.5214 3.1116-3.3296 5.2968-4.206 7.8249-5.175 5.8578-2.246 7.7429-1.5443 8.8279-6.5807-0.33928-2.2715-2.2406-3.6892-3.7553-4.1957z" stroke="#000" stroke-width="4" fill="none"/>
    <path id="path3973" d="m491.3 421.66c4.4898-2.2235 5.3253-8.246 12.667-6.6622 8.8208 1.9028 10.203 12.976 1.1202 17.936" stroke="#000" stroke-width="4" fill="none"/>
    <path id="path3977" d="m459.18 428.88c-5.4571-0.04-7.9135-1.5721-14.425-5.117-7.1501-3.8927-14.87-2.9881-16.414 1.4495-4.5316 13.018 5.8287 15.244 12.638 12.755" stroke="#000" stroke-width="4" fill="none"/>
    <path id="path3981" d="m476.54 416.05c-10.166 0-18.4 8.195-18.4 18.311 0 0.9461 0.04 1.8616 0.17721 2.7691 4.4067-0.4193 7.4059-2.0239 9.2895-2.0545 0.28783 0 0.5628 0 0.80376 0.089 1.5146 0.5068 3.4125 1.9268 3.7518 4.1983-1.0853 5.0366-2.9852 4.3638-8.8431 6.6098-0.26583 0.1029-0.5428 0.1658-0.80376 0.2687 3.3762 3.9559 8.3992 6.4312 14.023 6.4312 7.0906 0 13.182-3.9793 16.257-9.8254-1.8836-0.5571-3.8296-1.0656-5.8953-1.5186-2.3332-6.7731 2.77-6.812 8.039-6.9672 0-10.116-8.2345-18.311-18.4-18.311z" stroke="#000" stroke-width="4" fill="none"/>
    <path id="path3015" d="m689.44 508.7 0.33958 26.313c0 2.8024 2.46 5.388 5.8331 6.3331 1.5767 0.4766 3.3087 0.7037 5.035 0.6754 3.5502-0.058 7.0779-1.1954 9.1862-3.4552 0.78969-0.8341 1.7384-1.7694 1.9712-2.7468l-0.70614-27.12" stroke="#000" stroke-width="4" fill="none"/>
    <path id="path3017" d="m712.9 535.65c7.6075-1.0054 14.429 5.6997 15.762 12.844 6.3657 34.113 15.139 57.275 18.529 66.448-20.812 16.92-77.72 16.786-91.813-0.2594 15.38-38.925 12.026-80.203 33.457-79.032" stroke="#000" stroke-width="4" fill="none"/>
    <path id="path3019" d="m744.54 510.03c11.93 3.3444 18.985-12.26 13.316-21.379-7.0129-10.711-19.028-0.7833-28.709-0.6465-6.7319 2.7966-21.355-2.301-17.331 9.3783 12.797 2.807 22.178 7.3157 32.724 12.647z" stroke="#000" stroke-width="4" fill="none"/>
    <path id="path3021" d="m689.99 490.1c-2.2754-0.7614-6.2495 2.0796-12.9 2.4206-5.3308 0.2729-27.047-4.8612-24.085 12.23 2.9627 17.091 16.378 9.9344 21.783 4.1505 3.6675-3.9245 6.2431-4.9574 9.223-6.0996 6.9044-2.6472 9.1263-1.8202 10.405-7.7564-0.3999-2.6773-2.641-4.3483-4.4262-4.9453z" stroke="#000" stroke-width="4" fill="none"/>
    <path id="path3023" d="m717.01 474.15c5.292-2.6208 6.2768-9.7193 14.93-7.8525 10.397 2.2428 12.026 15.294 1.3203 21.14" stroke="#000" stroke-width="4" fill="none"/>
    <path id="path3025" d="m679.15 482.66c-6.4321-0.047-9.3274-1.8529-17.002-6.0312-8.4275-4.5882-17.527-3.5219-19.347 1.7085-5.3412 15.343 6.87 17.968 14.896 15.034" stroke="#000" stroke-width="4" fill="none"/>
    <path id="path3027" d="m699.61 467.55c-11.982 0-21.688 9.6592-21.688 21.582 0 1.1151 0.0471 2.1942 0.20887 3.2638 5.194-0.4942 8.7291-2.3855 10.949-2.4215 0.33925 0 0.66335 0 0.94736 0.1049 1.7852 0.5973 4.0222 2.271 4.4221 4.9483-1.2792 5.9365-3.5186 5.1435-10.423 7.7908-0.31333 0.1213-0.63978 0.1954-0.94737 0.3167 3.9794 4.6627 9.8998 7.5802 16.529 7.5802 8.3574 0 15.537-4.6903 19.161-11.581-2.2202-0.6567-4.5138-1.256-6.9485-1.79-2.7501-7.9832 3.2649-8.029 9.4753-8.2119 0-11.923-9.7057-21.582-21.688-21.582z" stroke="#000" stroke-width="4" fill="none"/>
    <path id="path3048" d="m535.51 471.83-11.703 108.22c3.4431 15.998 101.22 13.171 107.73 0.3063l-9.0914-110.35c-5.2528 4.9457-91.991 11.354-86.934 1.826z" stroke="#000" stroke-width="4" fill="none"/>
    <path id="path3050" d="m538.78 456.29-8.9375 10.719 5.5312 6.0937 0.8125 0.8437c8.2079 5.9242 72.985 1.2161 84.656-3.125l3.6562-5.9687-6.0625-7.8437c0.38704 7.5437-70.326 15.926-79.656-0.7188zm-3.2812 15.531-0.125 1.2188c-0.13482-0.3699-0.10562-0.7842 0.125-1.2188z" stroke="#000" stroke-width="4" fill="none"/>
    <path id="path3055" d="m586.97 451.48c-0.18922 3.195-0.3125 5.5313-0.3125 5.5313-0.82106 5.7941-31.84 3.6521-38.906-1.0313 0.0846-0.1871 0.27235-1.3929 0.46875-3.1875-3.9826 0.715-7.1347 1.6786-9 2.9375l-0.25 0.875c9.8914 15.963 77.675 8.1467 79.438 0.75 0.003-0.011-0.002-0.02 0-0.031l-0.34375-1.375c-1.9866-1.1932-7.3913-2.2834-14.469-3.125-0.0253 1.6598-0.088 3.3166-0.3125 4.9063-5.3903 2.6093-8.1182 2.1401-11.062 0.1875 0.0453-1.9245 0.0887-4.0131 0.0625-6.125-1.7382-0.1174-3.5109-0.2242-5.3125-0.3125z" stroke="#000" stroke-width="4" fill="none"/>
    <path id="path3060" d="m547.71 455.94c2.2711-46.459 6.3375-125.71-43.714-138.71-39.961-10.386-79.164 16.377-90.599 70.884-2.0565 9.8022-4.5426 17.573-0.68628 27.473-14.461-5.0774-35.086-8.3708-49.464-6.4285 0 0-1.2057-8.807 17.393-57.429 32.963-86.173 135.46-108.15 184.93-36.5 28.461 41.223 24.42 92.266 21.071 141.79-0.82237 5.8035-31.927 3.6274-38.929-1.0715z" stroke="#000" stroke-width="4" fill="none"/>
    <path id="path3062" d="m371.9 408.6c-1.2946 0.01-2.5424 0.057-3.7812 0.125-4.7176 1.9792-8.5371 4.9876-9.6562 8.9375 7.0926 4.1524 45.036 10.439 57.812 8.3438 0.0542-5.1086-3.1625-8.9014-7.75-11.781-11.155-3.395-24.904-5.6972-36.625-5.625z" stroke="#000" stroke-width="4" fill="none"/>
    <path id="path3064" d="m362.52 418.7-2.0312 15.125c7.1654 7.756 39.162 10.704 49.232 8.8438l1.7812-16.344c-13.526 0.9087-39.042-3.8343-48.982-7.625z" stroke="#000" stroke-width="4" fill="none"/>
    <path id="path3080" d="m597.65 422.35c-3.5242 0-6.7332 0.886-9.0938 2.2813-0.15897 3.7902-0.3423 7.5788-0.5625 11.375 2.4013 1.6024 5.8436 2.5937 9.6562 2.5937 7.2606 0 13.125-3.6377 13.125-8.125s-5.8644-8.125-13.125-8.125z" stroke="#000" stroke-width="4" fill="none"/>
    <path id="path3090" d="m590.09 437.13c2.2321 4.2244 2.293 13.652 2.125 20.781 2.9443 1.9526 5.6722 2.4218 11.062-0.1875 1.0102-7.1541-0.78045-15.532 1.6875-20.5-2.093 0.8694-4.6012 1.375-7.3125 1.375-2.8088 0-5.4263-0.5413-7.5625-1.4687z" stroke="#000" stroke-width="4" fill="none"/>
    <path id="path3864" d="m312.87 515.51c-201.85-0.095-406.7 32.629-383.12 119.97 54.414 201.6 835.6 193.81 888.94 62.656 16.071-39.519-26.859-74.968-78.219-102.56 2.8122 8.8152 5.2678 15.45 6.7188 19.375-20.812 16.92-77.72 16.764-91.812-0.2812 7.24-18.324 10.333-37.12 13.812-51.812-7.1476-2.8941-13.974-5.5963-20.312-8.0625-5.9735-2.324-12.655-4.561-20-6.7188l2.6562 32.281c-6.5109 12.865-104.28 15.685-107.72-0.3125l5.5625-51.344c-5.7716-0.7622-11.612-1.4853-17.594-2.1874 2.1418 6.576 3.9936 11.533 5.125 14.594-17.658 14.355-65.918 14.242-77.875-0.2187 2.7254-6.8979 4.7319-13.867 6.4062-20.594-42.311-3.0686-87.349-4.7599-132.56-4.7812z" stroke="#000" stroke-width="4" fill="none"/>
    <path id="path3868" d="m689.29 698.24c-166.11 89.857-537.02 35.807-676.8-44.447-147.74-84.825 248.86-126.57 318.2-104.05 114.15 37.073 406.89 122.37 358.6 148.49z" stroke="#000" stroke-width="4" fill="none"/>
    <path id="path3807" d="m-54.302 587.19c14.167-14.489 32.326-24.393 51.184-30.952 12.52-5.1074 25.475-9.1433 38.31-13.326 11.85-2.8979 24.069-3.7636 35.997-6.2573-20.594 6.122-39.784 16.019-59.511 24.383-9.7266 4.2739-16.729 10.241-23.826 18.192-30.139 26.698-14.967 52.357-1.7498 69.52s19.985 15.257 30.723 21.72c2.5642 1.5433 7.7213 3.3673 9.1193 6.4175-8.6363-1.4304-15.497-7.4434-22.991-11.553-13.549-7.4301-28.73-20.653-34.634-30.431-5.9038-9.7776-8.4544-12.135-9.3528-19.248-3.4902-27.634 35.053-44.956 28.094-44.885-22.558 0.2297-47.776 32.347-54.479 45.675-3.5409 6.6439-1.654 10.033-4.0385 16.289-1.5037-17.495 5.2941-34.045 17.155-45.542z"/>
    <path id="path3814" d="m176.9 771.72c81.563 13.016 163.43 21.444 246.6 19.614 62.429-1.3736 112.67-2.0108 174.55-8.3135 24.052-2.2156 91.152-35.14 93.084-41.663-45.008 12.819-92.262 14.044-138.84 18.437-81.686 7.705-164.17 9.0554-245.86 1.8132-101.25-8.9765-233.57-29.839-275.87-61.731-51.422-38.762-90.687-56.657-83.81-28.563 58.142 65.113 148.34 87.351 230.15 100.41z"/>
    <path id="path3821" d="m7.9739 653.29c19.317 15.288 45.259 16.417 66.339 28.534 27.764 13.643 43.963 14.631 73.182 24.29 4.6363-3.8558-5.2872-11.472-8.4365-22.057-10.458 1.3016-13.118-16.059-24.925-12.733-11.324-12.445-12.467-29.038-18.76-45.291-6.6222-17.102-20.744-29.773-39.411-19.682-15.035 8.1273-22.463 21.065-37.852 27.325-16.492 7.041-35.866-1.349-38.373-21.248 0.64935 18.761 16.485 28.409 28.237 40.863z"/>
    <path id="path3830" d="m140.92 607.41c2.9783 10.713 12.681 17.49 17.928 27.019 7.4926 6.501 13.329 14.599 20.94 20.626 9.7102 7.7537 6.2143 20.103 3.0019 30.021-1.648 11.054 2.9551 23.016 10.903 30.688 9.5445 7.4082 7.5228 0.1752 18.345 3.6501-3.1047-10.419-19.988-35.867-14.731-46.346 6.8781 0.935-1.4993-18.619-9.5556-23.187-7.2918-7.7709-15.609-14.517-21.12-23.787-8.4844-8.6999-12.519-20.108-16.903-31.22-7.8477-8.0727-3.3741-21.556-8.0342-22.002-4.6601-0.4464-7.914 22.298-0.77496 34.538z"/>
    <path id="path3842" d="m332.05 550.64c-18.252-6.914-36.608-16.338-32.626 14.268-10.376 62.022 30.247 104.8 56.288 146.8 23.108 37.27 74.049 36.309 112.54 31.64 43.747-1.138-34.701-13.742-38.383-36.988-4.8641-22.815 15.603-40.596 35.798-46.486 18.268-11.96 42.695-7.6209 60.163-20.422 7.3447-9.5055 8.9023-18.171 9.1618-24.558-72.253-20.007-149.75-47.36-202.94-64.25z"/>
    <path id="path3847" d="m221.63 530.6c60.214-0.7252 95.433-4.7258 152.43 19.437 103.29 43.783 123.71 83.213 66.231 40.202-54.461-10.394-101.76-47.941-159.47-46.534-73.984 1.8049-148.6 8.8638-220.64 24.745-22.26 7.4236-44.584 13.17-61.911 25.783 38.652-51.82 148.14-62.72 223.36-63.63z"/>
    <path id="path3853" d="m718.77 627.04c15.245-7.8653 28.978-11.509 46.174-7.4794 16.777-2.2953 22.232 16.566 29.214 27.906 6.3788 9.2751 6.382 24.573-4.6127 10.531-6.439-13.829-18.928-26.947-35.762-22.614-18.731 2.8747-37.91 2.5061-56.745 0.7664-10.977-1.789-23.161-6.23-27.648-15.003 14.637 10.537 34.483 7.407 49.38 5.8935z"/>
    <path id="path3862" d="m603.58 589.17c8.4624 0.5582 21.547-4.4959 29.062-8.2566 28.36-6.1846 4.7236 10.199-9.5017 13.596-18.774 4.6852-34.632 1.407-59.302-3.5343 10.663 0.2656 24.435-0.5583 39.742-1.805z"/>
    <path id="path3872" d="m492.11 548.75c8.7467-0.8378 21.932-11.952 28.5-4.2383-1.9665 12.397-16.765 6.4243-25.265 10.111-10.006 1.2143-19.698-2.3275-29.555-3.5998-2.2367-0.4546-4.4683 1.0659-4.839-0.7204 8.7142 8.2657 21.927 0.5005 31.159-1.5525z"/>
    <path id="path3881" d="m716.59 613.97c4.0298-0.578 25.65-5.4611 13.841 1.2751-14.488 4.8576-30.805 4.9273-45.784 2.7346-6.3873-1.7587-12.361-5.0821-16.185-9.326 15.432 8.0229 32.429 5.0586 48.127 5.3163z"/>
    <path id="path3892" d="m694.95 598.57c-0.52388 1.7236 1.2888 2.46 2.3154 1.1563 1.1479-1.1093 2.4069-2.2501 4.0726-2.4326 3.113-0.5944 6.2596 0.5887 9.3653 0.052 2.5625-0.507 0.16639-3.213 0.1463-4.8361-9.3354-6.6802 0.53504-46.087-2.9916-51.733-0.23821-0.3406-0.53662-0.6359-2.9677-0.76-3.5908 7.7103-8.7715 46.007-9.9404 58.553z"/>
    <path id="path3902" d="m683.52 561.94c-2.4605 3.3315-14.095 36.684-15.937 39.803-2.237-4.408 14.924-36.549 7.8197-42.219 0.0682-10.629-0.41043-20.105 8.6842-22.521-5.9307 7.1866-5.7862 18.834-0.56712 24.937z"/>
    <path id="path3907" d="m701.49 531.85c1.2681 2.6715-0.0954 8.8661 2.5201 9.3393 2.3392-4.4566-1.0034-9.7512-0.57483-14.596-1.2591-5.766-0.42638-11.614-0.21495-17.421-0.20657-0.8727-0.53783-0.426-1.4844-0.1838-2.6188 8.557-1.0831 15.818-0.24592 22.861z"/>
    <path id="path3916" d="m708.02 469.47c2.2523 1.7125 5.8853 3.4061 7.5697 5.9646 2.2936 3.2829-4.322 8.1314-7.1258 7.7232-2.5316 0.8021-5.3839-2.885-7.0593-1.7173 0.17985 2.5962 0.20547 8.3457 0.41512 9.9359-2.7361 0.4043-3.177 1.8835-3.2753-3.498 0.80589-2.4512-1.1015-6.6463-3.6507-4.739 11.08-14.104-4.7425-10.568 0.86079-14.853"/>
    <path id="path3922" d="m721.46 469.67c3.6465 0.7765 7.7643 2.5769 8.8011 6.5253 1.6413 3.2609 1.5512 6.9007 0.66586 10.319 0.40292 3.0977 4.3732-0.043 5.7692-1.0164 2.3746-2.5801 4.5976-6.3138 2.9232-9.8623-1.6186-3.2993-2.5392-7.9017-6.6427-8.9523-3.2226-1.0196-7.4093-1.1502-10.129 0.9043-0.73725 0.8686-1.5371 2.6438-2.9659 1.8234"/>
    <path id="path3929" d="m751.92 487.99c1.2133 3.5995 2.8958 8.0552-1.9987 7.679-1.0598-0.9338 3.1652 2.4317 1.9269 4.4217-0.61579 5.592 2.7288 4.9929-5.0314 11.583 5.3567-0.3024 11.6-9.8916 11.617-14.348 0.18489-4.592-0.88251-10.759-6.1776-11.964-6.6821-2.2404-13.304 1.2043-14.311 0.6069-1.0068-0.5975 11.504-1.2574 13.975 2.0212z"/>
    <path id="path3937" d="m667.81 513.32c1.4017-2.7078 4.4067-1.9324 6.0236-4.4495 2.0074-2.2873 4.7784-5.8111 7.6194-6.7993 1.2039-0.4266 5.937-0.7048 2.4165-1.624-3.5242-0.7342-7.112 0.1561-10.635 0.5089-2.7344 0.693-5.2113 2.9445-5.135 5.9384-0.0987 2.1218-0.66405 4.3226-0.28972 6.4255z"/>
    <path id="path3945" d="m658.42 492.58c2.4899-0.8969 5.146-0.9162 7.7139-0.4006 1.6025-0.3932 5.0467 1.1142 5.486-0.6059-1.3796-2.5083-4.057-3.7751-6.4106-5.1813-2.6092-1.4147-5.0553 0.6359-7.6617 0.6872-2.1854 0.2753-4.2268 0.5281-6.002-0.732-1.7178 1.5548-0.49602 4.5579 0.28262 6.1083s3.8257 1.3766 6.5918 0.1243z"/>
    <path id="path3954" d="m456.5 538.44c2.968 1.4315 6.2044 1.8633 9.4553 2.0227 4.6337 0.5709 9.2646-0.3636 13.91-0.2981 4.6165-0.4044 9.2753-0.2878 13.899-0.8015 4.5903 0.19 9.1075-1.8056 13.681-1.1265-1.3175 3.582-7.0615 4.2476-10.691 4.3216-4.9925 0.5988-10.048-0.014-15.061 0.5088-6.313 0.2354-12.647 0.5294-18.953 0.1111-2.5287-0.041-8.7573-0.8937-6.2401-4.7381z"/>
    <path id="path3959" d="m446.24 544.75c0.36807-1.3303 1.9297-1.3737 2.9792-1.8489 1.4248-0.5928 2.9059 0.084 4.2506 0.5685 1.1754 0.4371 2.453 0.5887 3.552 1.2393 1.0992 0.5164 2.2743 0.8854 3.4661 1.138 1.0766 0.2066 2.1228 0.2894 3.1961 0-0.79193 0.8483-2.1576 1.2138-3.3505 1.0475-1.221-0.1424-2.3598-0.6477-3.5613-0.8975-1.2202-0.6366-2.6216-0.7428-3.9259-1.1208-1.3484-0.2615-2.8389-0.4699-4.0646 0.3142-0.58416 0.3648-1.3043 0.5382-1.7526 0.8773z"/>
    <path id="path3966" d="m483.09 476.67c-3.2285 1.0723-8.0136 2.5482-6.8698 6.9856-0.0382 4.3332-0.29689 7.1679 1.025 17.156 2.1278 11.085-2.271 23.774 1.1373 33.454 2.2559 6.5222 8.9171 9.5788 5.9762-3.2389-0.45374-12.341 1.31-25.239-0.25131-37.555-0.50935-10.241-0.90977-8.8001-0.69687-13.124 0.2629-1.204 0.53953-2.6316-0.32051-3.6777z"/>
    <path id="path3975" d="m489.62 473.1c-0.70696 0-1.3924 0.1463-2.0625 0.5-7.9572 4.2039-1.8909 8.2648-0.96875 4.6561 2.3478-2.5301 5.17 0.8367 5.3438 3.3437 1.2769 3.7241 8.1417 33.813 6.5906 37.755-0.90442 1.711-0.62147 2.2573 0.90625 0.8438 1.7669-2.1767 3.1381-4.9231 3.375-7.75 0.0646-3.6493-5.1108-33.635-7.3406-36.692-1.552-1.2724-3.7229-2.6472-5.8438-2.6563z"/>
    <path id="path3983" d="m474.5 449.67c-1.4313 5.6799-1.2739 11.592-1.5859 17.398 0.48098 2.9378 0.70599 5.956 1.1131 8.8773-0.64179 2.8245 3.795 4.8329 5.0072 1.9772 0.16764-2.9008-1.0301-5.7291-0.84282-8.6766-0.22775-5.2415 0.53275-10.535-0.57429-15.709 0.24895-2.2506-2.7201-1.9996-3.1173-3.8666z"/>
    <path id="path3991" d="m476.31 416.76c-2.1645 0.4556-4.3981 0.2396-6.5756 0.5901 0.82671 0.1459 2.3714 0.6999 3.503 0.4709 1.1214-0.6369 2.3883-1.0675 3.7131-0.9565 1.2038 0.099-0.47956-0.1688-0.64055-0.1045zm-6.7812 0.7187c-1.138 0.4068-0.96091 0.7118-0.10868 0.067l0.0664-0.041 0.0423-0.026zm7.9375-0.5625c1.8941 0.7569 2.0745 3.1089 2.0947 4.8701 0.1936 2.1426-1.1003 4.2833-0.30977 6.3803 0.51787 1.2604 2.1669 1.2965 3.229 0.7724 2.3222-0.5426 4.784-0.6034 6.9439-1.7197 1.1536-0.3501 2.6414-1.6615 1.619-2.8944-1.4851-1.6418-3.5338-2.6906-4.9206-4.4399-1.8273-1.1118-3.6514-2.4673-5.815-2.78-0.95031 0-1.8943-0.1253-2.8412-0.1888z"/>
    <path id="path4000" d="m510.02 431.53c4.6844 4.061-1.4161 12.827 7.4283 14.803 6.3037 2.765 13.893-5.4737 7.7919-10.507-2.5946-2.7369-1.7898-5.4263-15.22-4.2959z"/>
    <path id="path4019" d="m449.12 443.85c-1.7322 1.0496 1.148 2.7894 1.2319 4.2506 0.59085 1.4844 0.43475 3.3565-0.6401 4.5609-1.7093 2.0014 2.0929 1.0158 2.922 0.3511 1.7478-0.7821 3.3861-1.8106 4.7555-3.1568 1.3562-1.7159-2.2603-0.4209-2.9006-1.9222-1.4763-1.0863-1.7964-3.3002-3.5583-4.0119-0.597-0.1205-1.2083-0.028-1.8104-0.072zm9.0938 5.0313c0.47301-0.1146-0.13695-0.3898 0 0zm0.25-0.25c1.1116-0.1297 1.4585-2.2519 0.43586-0.603-0.13768 0.2062-0.27251 0.4156-0.43586 0.603zm1.375-1.5938c1.1813-0.2718 1.1456-1.9139 0.22947-0.3613l-0.22947 0.3613zm1.2812-1.25c0.5209-0.1051 0.006-0.6258 0 0zm0.25-0.4375c0.63581 0.056-0.11632-0.5158 0 0zm0.25-0.094c-0.0638 0.3919 0.25351-0.2338 0 0zm0.125-0.031c0.35899-0.064-0.10272-0.3889 0 0zm-13.375 8.6875c-0.99041 0.07-2.2013 0.5654-0.55211 0.1579-0.14204-0.018 1.1873-0.1272 0.55211-0.1579z"/>
    <path id="path4028" d="m502.37 418.63c-2.6509 1.9936-0.65256 5.6543-0.0328 8.1954 0.74326 1.9-1.1875 5.4689-1.9206 6.5038 1.588 1.5781 4.99-1.5819 6.0936-3.3269 0.81442-2.5747-1.8019-5.3716-2.2613-7.9681-0.26989-1.9273 0.29175-3.8431-1.8789-3.4042z"/>
    <path id="path4047" d="m439.28 426.84c-2.5761 2.3044-0.3007 6.5285-2.6188 9.1559-1.3526 3.0297-4.85-0.27-6.1227 1.6828 2.8343 1.6538 6.5465 0.2487 9.6948 0.1807 1.7505 0.09 5.7574-0.7667 3.2663-2.9945-0.47181-1.1954-0.16684-2.9152-0.11825-4.4652 0.0561-1.7894 14.237 2.6412-2.4461-3.6214-0.5443-0.2043-1.2878-0.2669-1.6552 0.062z"/>
    <path id="path4057" d="m505.75 297.51c-7.0838 0.091-14.194 1.1321-20.938 2.75-13.412 1.5954-23.876 10.343-32.594 19.969 7.4005-2.8662 24.754-10.743 36.219-14.656 13.779-7.2283 29.399-1.0876 41.594 6.375 9.5178 9.0438 19.461 17.761 27.188 28.469 6.5385 10.798 10.309 25.189 5.9688 37.437-10.462 16.96-20.288-6.0959-19.781-16.812l-1.75-2.3438c2.3209 4.0571 0.34097 8.2374 2.1875 13.188 1.5124 20.856 6.5064 41.38 5.4375 62.406 2.9572 2.5385 4.8114-21.782 10.625-24.906 5.4874 12.386 7.3329 26.965 6.7812 40.594-9.6765 10.454 11.59 13.852 9.875 3.125 3.6765-19.676-0.7402-39.448-2.4688-59.062 0.0813-18.372-6.2565-35.774-10.812-53.281-7.8496-14.327-17.337-28.868-31.094-38.125-8.2361-3.7824-17.33-5.242-26.438-5.125zm34.5 59.344 1.3438 1.75c-0.34451-0.5841-0.7947-1.1692-1.3438-1.75z"/>
    <path id="path4063" d="m535.89 504.84c4.0802 3.0523 12.358-9.4063 10.385 1.5739-2.7932 7.3592-0.88856 15.504-4.4595 22.687-4.8035 12.22-5.8663 25.626-11.051 37.662-0.92886 4.5613-2.8568 18.739 0.62512 7.4257 5.1075-10.038 7.6031-21.124 13.391-30.852 8.2126-16.131 13.731-34.976 9.3865-53.014-1.9616-8.3773-13.558-20.988-18.192-13.997-4.6337 6.991-1.5288 19.183-0.0851 28.514z"/>
    <path id="path4069" d="m574.03 476.04c-0.0829 23.562 2.7991 55.549-1.4 81.244 2.8448 5.5776 11.451-1.3032 16.572-0.7153-11.487-23.835-0.44514-57.891-5.7968-81.711-2.4231-1.0188-7.3119 3.6021-9.3756 1.183zm-1.1562 83.844c-0.6001 0.4688 0.62507 0.56 0 0z"/>
    <path id="path4077" d="m387.72 408.39c-0.83244-3.6814 2.2437-9.8745-2.8045-11.36-3.1681-1.3331-7.8287-2.7281-7.5788 2.2509-1.073 3.2024 0.15777 10.922-4.8886 7.9726-0.19042-3.2995-2.6757-15.392-5.8438-17.505 1.4354 0.2041 13.263 3.8196 19.029 4.2523 3.76 0.9757 7.5943 1.6322 11.5 1.8898 5.2403 1.6378 8.8401 0.7425 14.228 0.869 2.6073-0.6395 1.2921-1.6508 1.0124 0.9767 1.1831 3.2328-1.3894 3.5925-1.8967 4.2801-4.3679-0.3832-10.101-2.3792-12.864 2.3783-5.1122 6.6319 12.324 8.9138-9.8938 3.9956z"/>
    <path id="path4083" d="m444.87 301.2c-16.132 8.0179-47.334 58.42-48.219 95.625l1.5938 0.7813c4.619-34.835 28.761-74.822 41.872-88.481 11.736-2.6253 10.319-11.105 4.7532-7.9256z"/>
    <path id="path4096" d="m483 271.6c-11.839 1.5229-23.267 5.5515-34.473 9.5007-19.008 7.2326-36.971 20.472-44.349 40.073-5.1648 7.9571-8.5713 16.725-11.238 25.78-5.0588 14.938-23.158 42.94-16.261 42.341 3.1244 1.0472 17.233 4.2276 15.123 0.6801-0.0637-16.685 11.621-35.172 15.449-49.749 6.3115-11.413 10.657-24.066 19.83-33.678 5.1504-8.1068 13.569-12.535 21.085-17.983 7.2424-5.7053 17.09-10.333 26.263-9.3259-3.0627 2.2082-14.377 9.4242-11.923 8.5339 10.019-6.3251 22.054-4.3268 33.096-5.0868 5.4488 1.6595 22.612 1.8765 15.384-6.9272-7.5124-3.6207-16.306-1.3233-24.207-3.8746-1.2137-0.4275-2.5202-0.2755-3.7776-0.2831zm-22.125 17.156c-2.8654 1.8195-4.5537 3.7705 0 0z"/>
    <path id="path4103" d="m368.15 419.94c-2.1875 3.4186-2.4025 7.8919-0.8125 11.594 0.44536 2.4017 2.8542 4.3996 5.3125 4.2813 0.99455-0.3796-0.33848-2.0971-0.5-3.0313-0.52341-1.4287-1.131-3.2839 0.0937-4.5313 1.1456-0.9187 2.7805-0.9244 4.1875-1.0937 2.1602-0.013 4.6495-0.069 6.3438 1.5 1.4721 1.3425 1.9703 3.4523 1.7188 5.375-0.12618 2.2261 2.0029 4.1912 4.2188 3.875 2.5272-0.5306 5.193 0.016 7.6875-0.7187 0.77632-0.4073-0.91741-1.1666-1.1875-1.75-1.322-1.4225-2.6548-2.9408-3.4688-4.7188-0.47902-1.5779 0.4074-3.2295-0.15625-4.7812-0.64477-1.1212-2.1167-0.5341-3.125-0.9688-6.1149-1.3098-12.364-2.0405-18.312-4.0312-0.66704-0.3244-1.3172-0.7076-2-1z"/>
    <path id="path4111" d="m370.5 408.04c-0.83285 0.046-1.6988 0.2536-2.5625 0.6875-2.9668 1.0758-6.1853 3.232-6.9062 6.5-0.71467 2.6805 1.7445 2.0862 2.3438 3.3437l-0.0625-0.4374c4.502-2.6607 9.9882-2.5687 14.875-1.1563 4.715 1.3729 9.6412 0.9037 14.438 1.7813 3.0602 0.2853 6.5627 0.6023 9.2812-0.9063-4.4298-1.9362-9.4599-0.8721-14.125-1.7813-4.168 0.3796-8.1475-1.7303-11.344-4.1562-1.2054-2.5231-3.4389-4.0122-5.9375-3.875zm-7.0938 10.625 0.0937 0.5938c0.005-0.2284-0.0312-0.4315-0.0937-0.5938z"/>
    <path id="path4118" d="m209.03 549.6c-39.408-9.1-31.611 39.122-11.238 61.205 19.097 20.7 34.979 78.328 69.392 51.036 17.135-10.155 7.9637-55.782-0.98173-20.442-33.048 18.895-41.187-26.442-50.877-47.531-6.1858-13.463-0.64315-45.262-1.8673-44.409z" fill="#fff"/>
    <path id="path4125" fill="#fff" d="m133.53 563.57c-7.0313 1.4912-23.174 7.7684-21.062 12.242 7.1716-6.6845 25.479-8.849 17.766 6.1911-4.7296 26.47 9.305 55.319 32.589 68.108 9.1159-9.7838-13.724-16.715-13.801-28.58-5.399-15.373-12.582-31.21-8.5722-47.77 0.29782-4.0227-2.0077-10.578-6.9208-10.191z"/>
    <path id="path4136" fill="#fff" d="m25.32 581.02c-14.754 6.635-31.17 12.125-41.611 25.235-6.0635 7.3107-2.9515 18.26 3.1901 24.474 7.844 7.7908 19.213 11.625 30.168 11.362 5.4014-0.7639 6.1694-7.2715 6.3391-11.676-0.18977-5.9396 2.3831-11.889 7.4046-15.245 6.0939-5.2736 13.773-8.7441 18.825-15.172 0.67918-6.9214-7.2242-1.2004-9.8297 0.8091-2.9517 3.0516-10.792 2.5954-7.5994-2.9831 2.2625-4.3992 6.5052-9.3282 3.992-14.522-2.0656-4.2777-7.2021-4.5262-10.879-2.2814z"/>
    <path id="path4168" d="m-24.852 620.53c-3.2173 5.0943 4.8278 17.622 16.913 29.323 16.934 16.398 42.752 33.455 65.687 39.406 21.289 5.5244 41.505 14.712 62.594 20.5 23.344 6.4066 47.13 11.802 71.344 13.719-52.52-16.461-105.31-32.743-156.87-52.188-19.77-7.4543-34.955-16.133-47.807-32.187-12.357-15.437-8.6384-23.668-11.856-18.574z" fill="#fff"/>
    <path id="path4175" d="m-34.116 662.44c-22.55-16.09-18.985-50.637-1.0184-68.828 5.1676-7.2199 29.652-22.18 10.719-25.224-19.112 8.6475-28.665 23.115-39.957 40.088-8.3451 21.179 1.1207 47.972 18.499 60.525-8.7749-10.638-4.3534-26.905 7.5363-11.38l2.1306 2.3936 2.0904 2.426z" fill="#fff"/>
    <path id="path4186" fill="#fff" d="m75.28 718.2c1.4476 1.0295 1.4798 0.2643 0 0zm2.5 1.0626c0.86646 4.4575-4.0665 7.4452-5.0604 11.527-2.0376 1.7915-4.5185 6.3867 0.39897 5.3864 4.5948 1.048 9.3214 2.177 13.283 4.727 5.489 0.8583 3.029-6.2001 4.1767-9.3976-0.56233-3.785 3.0619-8.9008-2.7559-9.7244-3.3885-1.495-6.1468-2.9902-10.042-2.5181zm14.469 4.1874c0.78627 0.011-0.4705-0.6728 0 0zm-22.25 10.781c0.53578-0.229-0.12034-0.6371 0 0z"/>
    <path id="path4199" fill="#fff" d="m101.06 725.35c-1.1474 5.8013-3.1752 11.342-5.25 16.656 2.5097 5.7064 10.694 4.119 15.75 5.875 7.464-0.6784 0.79437-9.8328 2.5625-14.469-0.35445-7.2805-9.3422-4.0878-13.062-8.0625z"/>
    <path id="path4212" d="m690.37 712.49c-11.359 6.5464-50.714 18.634-13.67 14.594 32.104-3.5005 69.094-62.864 19.701-74.257s-128.96-45.436-185.56-69.46c-7.7042-1.1161-7.1832 3.0313-12.927 2.0201 68.057 37.34 263.73 86.026 192.45 127.1z" fill="#fff"/>
    <path id="path4220" d="m668.24 626.76c-6.42 10.299 15.912 18.396 22.32 25.555-5.3376-4.657-24.131-9.7867-27.479-16.06-3.8149-6.6754-11.416-11.984-12.522-19.449 4.8133 6.5767 11.706 9.1095 17.681 9.9535z" fill="#fff"/>
    <path id="path4236" d="m469.85 571.29c-36.57 0.9322-65.077-27.247-100.24-33.927-76.918-12.885-166.1-21.953-234.27 1.6329-17.924-3.1724-48.765-1.4562-99.592 12.794 106.22-42.996 238.09-32.453 340.8-33.907 21.746-0.6723 42.798 10.862 59.868 3.0858-37.925 24.81 25.715 37.243 33.441 50.321z" fill="#fff"/>
    <path id="path4250" d="m659.76 613.15c1.9761-0.8765 4.1107-1.2455 6.2596-0.9007 1.4089 0.021 5.8918 1.1189 3.1116-0.9486-3.6106-2.5441-4.6258-7.1596-5.3209-11.257-0.77273-2.1322 2.324-8.1551 1.5415-6.9356-1.9089 4.2338-8.1776 19.767-5.5918 20.042z" fill="#fff"/>
    <path id="path4264" d="m716.06 540.35c-1.5398 0.025-3.0471 0.5188-4.2812 1.4063 2.1861 2.1033 3.4599 4.549 3.2188 7.9062 1.3258 10.32-0.83641 21.037 2.4062 31.094 1.9844 4.9673 2.15 10.851 6.0625 14.781 4.9689 1.3955 5.5733-6.4445 5.2812-10.094 0.82312-6.8498 1.8421-13.997-0.3125-20.75-3.051-6.2942-3.2585-13.415-5.5-19.937-1.2355-3.0278-4.0807-4.452-6.875-4.4063zm-4.2812 1.4063c-0.44798-0.4311-0.91799-0.8451-1.4375-1.25l1.0938 1.4687c0.10482-0.085 0.23414-0.1399 0.34375-0.2187z" fill="#fff"/>
    <path id="path4271" d="m737 614.79c-1.7646 0.1058-4.4428 1.6646-5.7812 1.9062-3.7112 1.5736-7.7665 1.5365-11.656 2.2813-14.33 0.5057-11.958 5.0249-8.9062 4.1875 6.1557-0.6591 12.225-2.0501 17.969-4.375 3.2154-1.3161 6.6859-1.443 10.062-2.0312 0.0925-1.5771-0.62875-2.0323-1.6875-1.9688z" fill="#fff"/>
    <path id="path4281" d="m698.34 514.2c-1.4182 1.2852-4.2144 0.014-5.0625 0.625 0.25857 4.9031 0.0346 9.8157 0.34375 14.719 0.58737 2.0702-1.6377 4.8243 0.5 6.3125 1.6591 0.6931 5.4001 1.3115 3.7812-1.7187-1.2587-2.5711-2.0634-5.3305-1.875-8.2188 0.0654-4.0099 1.2091-7.8953 2.3125-11.719z" fill="#fff"/>
    <path id="path4289" fill="#fff" d="m707.44 513.26c-0.18522 0.4059-0.056 0.3328 0 0zm-0.125 0.4687c-0.85195 0.797-1.712 1.7529-1.702 2.9966-0.0335 0.8535-0.15617 2.8443 1.1346 2.5967 0.86926-0.5246 1.283-1.5472 1.6125-2.4651 0.21382-0.814 0.3393-1.7074 0.11027-2.5267-0.18933-0.4288-0.68088-0.7554-1.1553-0.6015z"/>
    <path id="path4299" d="m682.4 494.82c-2.0123-0.014-4.2759 0.617-6.125 0.8126-3.4153-0.266-6.7988-0.6549-10.219-0.2188-3.4561-0.031-7.3423 1.0601-9.4688 3.9375-2.5383 3.155 0.14456 9.7856 3.289 11.567 1.7567 1.1276 4.8604 1.2914 5.836-0.474l-1.862-2.9007c-3.1208-1.5443-4.004-6.8278-0.26299-7.9427 3.9142-0.5645 7.9288 0.3234 11.812-0.7813 3.261-1.1983 7.7191-0.6083 10.188-3.0624-0.88724-0.6942-1.9801-0.9293-3.1875-0.9376z" fill="#fff"/>
    <path id="path4307" d="m650.5 477.32c-3.9354 0.8292-8.1713 9.0879-0.81531 13.255 0.0285-8.1614-1.6851-10.754 13.253-7.6299 0.30104 0.02 0.62666 0.023 0.9375 0.031-4.3251-2.2989-8.3172-5.7318-13.375-5.6563zm13.375 5.6563c2.5087 1.3334 5.1496 2.269 8.1562 1.9375-2.1562-2.1337-5.3178-1.8654-8.1562-1.9375z" fill="#fff"/>
    <path id="path4321" d="m681.48 486.5c2.8547-0.089 5.6118-3.2528 8.4078-1.2529 1.9166 0.741 4.3259 0.8378 6.1475 1.043-1.0169-2.2225-3.8274-1.9069-5.3381-1.7261 1.7444-2.4569 6.9976-6.0656 7.1923-9.3556-0.26833-3.7878-6.2212-5.0673-7.7048-1.3993-5.1453 2.0502-6.7757 5.9796-6.6335 9.1992-0.31844 1.2444-0.36849 1.3262-2.0713 3.4917z" fill="#fff"/>
    <path id="path4330" d="m744.97 487.92c-1.0275 0.01-2.088 0.2229-3 0.625-12.187 3.8133-35.357 5.2517-13.969 3.9062 5.6704-1.1342 11.441-1.7924 17.219-1.9062 3.0028 0.021 3.2577 8.0084 5.0938 2.7812 0.7161-3.6935-2.2613-5.4371-5.3438-5.4062z" fill="#fff"/>
    <path id="path4341" d="m534.44 496.07c-0.38215 0.622-0.73128 1.2706-1.0312 1.9376-5.516 17.898 1.3649 36.48 0.34375 54.719 0.51765-3.7475 1.1498-7.5615 0.46875-11.031 0.10431-12.154 0.52171-24.566 3.4375-36.375-0.63586 0.039-1.223-0.074-1.75-0.4687-0.42408-2.7409-0.99623-5.7508-1.4688-8.7813zm-0.6875 56.813c-0.23073 1.6803-0.45148 3.3567-0.5 4.9687 0.3013-1.0662 0.46939-2.155 0.375-3.2187 0.0518-0.5893 0.0905-1.1601 0.125-1.75zm-0.5 4.9687c-2.2016 7.7906-11.028 17.53-2.3438 23.562 10.243 5.9433 16.793-10.938 4.8125-15-0.20234-0.2423-0.38938-0.4985-0.5625-0.75-1.1393 2.8897-2.3355 5.7513-3.75 8.5312-3.482 11.314-1.5539-2.8761-0.625-7.4374 0.9631-2.2356 1.771-4.53 2.5-6.8438-0.0482-0.6771-0.0523-1.3622-0.0312-2.0625z" fill="#fff"/>
    <path id="path4351" d="m584.44 478.07 0.53125 1.2813c1.3906 6.5145-1.6212 12.991-2.125 19.5-1.988 8.987 0.41704 18.027-0.25 27.062-0.11806 3.8544-1.844 16.227 2.8125 14.844 2.6791-13.067 2.1278-26.471 2.8438-39.719-0.51821-7.3133 6.0812-17.805-2.5-22.438l-1.3125-0.5313z" fill="#fff"/>
    <path id="path4367" d="m538.15 459.42c-1.7327 2.6273-5.6169 3.9925-5.75 7.5312 0.93816 4.2708 6.8489 3.5129 10.094 5.0313 4.3595 0.4172 9.5357 0.5013 12.906-2.75 0.68577-3.7428-6.0397-0.6799-8.2812-1.9687-3.6959-1.585-6.7343-4.4989-8.9688-7.8438z" fill="#fff"/>
    <path id="path4377" d="m604.78 466.1c-0.48824-0.036-1.1976 0.045-2.0625 0.2813-7.4106 2.0809-14.953 3.9558-22.719 3.8124-5.5561 0.5305-11.135 0.9746-16.75 1.0626l-1.5938 0.7812c0.80976 1.044 2.2474 1.1975 3.4688 1.1875 7.955-0.7515 16.168 1.3323 23.938-1.0937 3.0525-0.6068 2.5165-1.4833 0.8125-1.5 4.1314-0.6129 9.2566-1.0948 13.406-2.5 2.6408-0.799 2.9647-1.9236 1.5-2.0313z" fill="#fff"/>
    <path id="path4386" d="m596.4 430.48c-0.37051 0-0.7215 0.031-1.0938 0.125-1.7275 0.21-3.2607 1.5584-5.0625 1.1563-1.6805-0.2843-0.45602 2.0541-0.84375 3.0312 0.33462 1.1819 0.65355 2.2563-0.28125 3.2812-0.0358 0.1886-0.004 0.3835 0.0625 0.5626l0.78125-2.0938c0.46887-1.4182 1.6108-2.4008 3-2.8438 1.3416-0.6502 2.906-1.0654 4.3438-0.4687 1.3886 0.4178 2.8431 0.3972 4.25 0.7187 0.73656 0.01 3.3273-0.7524 1.7188-1.4374-1.1761-0.5318-2.1683-1.5805-3.5312-1.5626-1.1068-0.1309-2.2322-0.464-3.3438-0.4687z"/>
    <path id="path4393" fill="#fff" d="m598.44 441.32c-2.0362-0.035-3.918 1.3582-5.9688 1.8126l2.2188-0.125c1.6293 3.5247 1.379 7.4898 2.1562 11.219 1.5163 0.9261 1.1366-3.4683 1.8438-4.5313-0.3419-2.7947 1.121-5.6842 0.875-8.1874-0.38377-0.1153-0.75478-0.1812-1.125-0.1876zm-6.0625 1.8438-1.625 0.094c0.56057 0.061 1.096 0.015 1.625-0.094z"/>
    <path id="path4405" fill="#fff" d="m557.87 424.7c-3.397 4.2789-2.6757 10.126-3.4143 15.222 0.0237 4.2593 2.0541 8.3078 4.5141 11.596 4.596 3.8818 6.9104-3.7391 4.6627-7.083-0.4084-3.5628-6.6049-8.1-1.0809-9.9604 2.9694-3.3439-0.61235-9.4967-4.6816-9.7752z"/>
    <path id="path4415" d="m404.81 428.63c-2.9621 3.8178-10.553-1.9157-11.562 3.7187-0.0378 0.219-0.0756 0.4293-0.125 0.625 0.64215 0.8607 1.3717 1.6919 2.0938 2.4687 0.27009 0.5834 1.9638 1.3427 1.1875 1.75-2.4945 0.7348-5.1603 0.1882-7.6875 0.7188-1.7498 0.2497-3.4263-0.9306-4-2.5312-1.5754-0.3226-6.0353 1.5301-7.3617 1.7913-2.148-0.368-14.566-4.698-13.978-3.9719 0.21916 0.2705 7.6248 4.1106 13.475 4.8542 6.9334 1.6466 13.207 1.1785 20.412-0.2161 4.3126-1.8385 5.5404-5.6258 7.5464-9.2075z" fill="#fff"/>
    <path id="path4427" d="m390.56 414.13c-1.1733 0.048-0.99706 0.8943-0.71875 2.2187 1.8771 0.1729 3.8001 0.1588 5.6875 0.25-0.48926-1.2776-1.7136-2.2452-3.1562-2.2187-0.80897-0.1923-1.3956-0.2672-1.8125-0.25zm-0.375 4.2812c0.0115 0.1492 0.0271 0.2829 0.0312 0.4375-0.7835 2.194 1.2137 3.4058 3.125 3.5313 1.9096 0.3475 4.0193 0.1638 5.8125-0.4376-0.90209-0.8677-2.0784-1.7511-2.8125-2.9374-1.2585-0.01-2.5222-0.1385-3.7188-0.25-0.8062-0.1476-1.6256-0.2572-2.4375-0.3438z" fill="#fff"/>
    <path id="path4439" d="m492.53 286.2c-5.7633 0-12.531 3.3809-16.406 7.0626-14.19 8.309-30.239 14.982-41.25 27.594-3.5292 4.9332-5.6639 10.718-9.0312 15.75l2.125-3.1563c8.7621-11.6 20.148-21.203 32.031-29.437 12.282-8.7506 27.731-9.5533 40.969-13.5-1.8913-3.0948-4.9795-4.31-8.4375-4.3126z" fill="#fff"/>
    <path id="path4448" d="m475.31 286.63c-0.30109 0.1266-0.63035 0.2491-0.9375 0.375 1.8882-0.091 3.772-0.1563 5.6562-0.125l-4.7188-0.25zm-0.9375 0.375c-3.9123 0.1885-7.8351 0.5577-11.719 0.9687-13.472 0.7768-25.515 8.1472-33.312 18.969-15.763 21.529-26.668 46.348-33.594 72.063-1.0703 4.8305-9.9381 22.214 0.65625 15.437-1.4817-13.228 4.7222-25.536 10.344-37.062 10.19-19.698 15.503-43.947 34.688-57.219 10.45-5.5572 23.176-9.1572 32.938-13.156z" fill="#fff"/>
    <path id="path4455" d="m414.03 305.29-1.3125 0.7812c-7.0892 6.07-12.696 13.786-18.188 21.25-10.948 16.482-18.414 35.017-24.375 53.781-1.5742 4.1851 0.0117 12.766 3.625 5.0937 2.4843-3.7858 1.5185-13.172 4.375-13.969 2.1368 3.8067-2.5246 16.562 1.0312 14.969 2.3951-9.5724 5.0718-19.064 9.6562-27.844 1.7021-3.3386 9.4048-16.633 1.6562-10.094-3.8677 5.9641-5.9173 17.881-9.7812 20.844-0.17685-10.583 7.157-19.303 10.062-29 7.4325-11.79 15.917-22.779 24.094-34.031 0.35106-0.7085-0.20212-1.5165-0.84375-1.7812z" fill="#fff"/>
    <path id="path4462" d="m539.22 302.67c0.26816 2.7788 1.135 5.2947 2.4062 7.6875 5.307 5.179 9.8848 11.171 13.969 17.438 7.4572 9.0265 14.727 20.8 15.219 40.906 0.98633 4.2192 1.8232 8.4635 2.4062 12.75 0.9077-9.5793 0.99371-21.862-0.5-26.812-10.887-36.083-21.516-40.207-33.5-51.969z" fill="#fff"/>
    <path id="path4476" d="m461.27 318.36c31.348-14.675 50.546 0.915 60.795 6.56 17.982 12.353 21.071 36.778 26.5 54.031 0.64312 0.9722 1.3317 1.8333 2.0625 2.5626 4.5778 1.0909 9.0511-6.2363 13.969-9.3438 0.32366-2.0577 0.4709-4.1501 0.4375-6.25-0.00017-0.01 0.00017-0.021 0-0.031-2.3753-5.7284-5.659-12.396-7.0938-18.656-1.2135-4.2562-13.347-15.702-7.6562-5.5937 3.022 9.0172 10.331 17.183 10.281 26.781-3.2124 12.846-8.7771 7.8414-13.375-8.3125s-10.859-32.55-37.156-44.938c-3.999-1.8836-9.1911-4.6822-21.969-4.8372-12.777-0.155-32.466 6.7491-26.795 8.027zm85.982 16.998c-0.1168-0.038-0.47011 0.3799 0 0.2187 0.0535-0.1567 0.0389-0.2061 0-0.2187z" fill="#fff"/>
    <path id="path4487" d="m434.78 424.79c-6.6346 0.8148-4.4806 14.033 2.1875 10.062 0.16389-0.098 0.33416-0.1854 0.5-0.2813 0.87444-2.5516-0.33427-5.7984 1.8125-7.7187 0.36731-0.3289 1.112-0.2668 1.6562-0.062 16.683 6.2626 2.4936 1.8356 2.4375 3.625-0.0168 0.5375-0.0583 1.0757-0.0937 1.625 2.3448-0.6132 4.7646-0.679 7.1875 0.25 5.8703 0.2323-1.3036-2.7414-2.9688-3.75-3.6745-3.2755-8.3105-2.7412-12.719-3.75zm19.688 7.625c-0.0249 0.01-0.0467 0.029-0.0937 0.062-0.0265 0.4315 0.26829-0.1035 0.0937-0.062z" fill="#fff"/>
    <path id="path4502" fill="#fff" d="m464.72 438.6c-3.8379 0.8052-7.8127 0.7397-11.599 1.8384-3.4179 0.7925-7.2634-1.2522-10.388 0.6269-1.9754 1.5865-3.5904 6.4044 0.0401 6.9481 3.3426 0.327 0.55523 6.0616 4.0348 5.5941 3.0306-1.507 2.3964-6.2351-0.30071-7.7815-2.6017-3.1616 1.861-4.8214 4.4742-3.954 4.009 0.2399 7.9478-0.7729 11.933-0.8016 1.7128 1.6979 5.6199 0.085 3.5189-2.2622-0.51106-0.3092-1.1458-0.296-1.7135-0.2082z"/>
    <path id="path4510" d="m475.69 418.88c-4.251 1.7371-9.1642 2.6208-12.267 6.3247-2.1302 2.4191-3.9744 6.5766-1.065 7.8606 1.6947 0.7479 2.347 0.2049 5.1444-0.3137 3.1955-0.5924 6.557 3.2808 6.9261 5.6492-0.21459 3.138 3.2564 3.6604 3.1206 0.146 0.22995-3.7668-3.7058-5.5364-6.4873-7.0381-3.3446-1.2086-4.5207-5.6885-1.1678-7.6632 1.8269-2.5988 5.5206-0.6856 7.3608-2.7471 0.31628-1.0345-0.32663-2.4047-1.5644-2.2184z" fill="#fff"/>
    <path id="path4518" fill="#fff" d="m501.04 417.38c-0.18575 0.046-0.36395 0.1019-0.53526 0.1757-2.9197 1.1086-4.4924 4.4579-4.4318 7.3668 0.29192 1.6314 0.86352 4.5713 2.7252 4.7373 0.40676-2.0615 0.57127-4.3886 2.0117-6.1359 0.11032-0.1674 0.26913-0.3225 0.42417-0.4696-0.83562-1.5561-1.3003-3.1879-0.12436-4.69 1.9831-0.9859 1.9332 1.013 2.6927 2.8048 0.0137 0.029 0.0402 0.053 0.0545 0.082 0.80759-0.6371 1.2749-1.4109 0.68327-2.6418-0.65571-1.2034-2.1998-1.5545-3.5001-1.2298z"/>
    <path id="path4531" d="m510.59 434.6c-4.1361 3.5457-15.754 1.6621-17.934 3.534-1.7604 0.7931-0.58339 1.7733 0.81038 1.391 1.6253-0.1645 3.6929 2.2369 4.4044-0.1836 4.0006-1.8354 10.441-1.6595 12.719-4.7414z" fill="#fff"/>
    <path id="path4541" d="m512.25 440.38c-0.54343 1.857-0.62459 3.8128 0.0312 5.6562 1.7062 2.8073 6.5082 3.4109 8.6875 0.9375 0.0302-0.05 0.036-0.1056 0.0625-0.1563-1.1736 0.1616-2.3806 0.019-3.5625-0.5-4.0806-0.9117-4.9738-3.264-5.2188-5.9374z" fill="#fff"/>
    <path id="path4555" d="m471.28 454.32c-0.29299 5.7997 0.10843 11.649-0.625 17.406-0.60431 2.825 3.6369 4.089 3 0.5625-0.43977-5.6673-0.47706-11.391-1.0312-17.031-0.21243-0.5348-0.72527-1.0103-1.3438-0.9376z" fill="#fff"/>
    <path id="path4566" fill="#fff" d="m481.15 455.01c-0.0816 0.7569 0.0366 0.5993 0 0zm0 0.7187c0.0289 1.3337 0.0213 2.7469-0.58144 3.9595-0.12656 1.317 1.3767 0.3478 2.0814 0.7402 0.92856 0.5601 2.0682-0.034 1.5474-1.1809-0.30851-0.9372-0.28588-1.9326-0.5264-2.881-0.63244-0.4421-1.7231-0.4144-2.5209-0.6378z"/>
    <path id="path4576" d="m480.9 462.66c-0.0395 3.5577 0.26839 6.9385 0.0588 9.7813-1.7951 2.6445 3.4938 3.8775 2.5352 0.5115 0.15452-2.6503 1.5123-7.7569 0.44339-10.297-0.48533-0.7891-2.1448-0.045-3.0374 0z" fill="#fff"/>
    <path id="path4588" fill="#fff" d="m466.84 475.88c-5.036 2.5882-8.3837 7.8636-10.332 13.006-2.738 9.2838-4.8347 18.731-7.7552 27.96-2.7699 8.1253-5.0478 16.598-5.2104 25.237 4.3171-2.5287 8.7346-6.9615 14.195-4.7977 2.7325 1.2494 14.857 2.2479 6.8862 0.3805-5.9787-0.4778-11.305-4.7199-12.837-10.528-2.5533-10.087 4.207-19.051 5.8851-28.632 1.7625-5.6428 4.1331-13.431 11.371-13.427 2.7688 0.1633 6.7534-2.4017 1.94-3.274-1.9956-1.4366-3.3061-3.6537-4.1428-5.9249zm7.7812 6.9062 0.18664-0.01-0.18664 0.01zm-6.375 55.844h0.18516-0.18516z"/>
    <path id="path4597" d="m488.4 477.85c-0.77335-0.027-2.4471 0.9293-0.77236 0.9423 2.015 5.6142 1.6239 11.69 1.5223 17.55-0.21927 7.834-1.3396 25.653-0.74843 33.497 0.15961 2.5266 0.44234 5.0463 0.87342 7.5413 2.2226-3.5225 0.94384-7.7973 0.89898-11.669-0.23166-4.5029 0.1018-19.115 1.6521-23.378 1.3174-1.2522 1.559 2.0618 1.2558 2.8992 0.81538 4.7625-1.9147 19.779-0.14013 24.368 1.7376 0.8678 0.85529-2.5916 0.98896-3.6262 0.0707-7.9158 0.4632-25.727-0.77611-33.516-1.5583-4.3841-0.59445-9.347-2.78-13.552-0.41342-0.6585-1.176-1.1486-1.9746-1.0562z" fill="#fff"/>
    <path id="path4610" fill="#fff" d="m488.94 543.13c-0.37788 0.4867-0.27778 1.1469-0.44785 1.7093-0.18357 0.951-0.4628 1.9596-0.16859 2.9157 0.23539 0.6628 1.1407 1.0468 1.7443 0.639 0.76735-0.523 1.1297-1.4839 1.0909-2.3893 0.63427 0.01 1.2758-0.066 1.875-0.2813-0.0407 0.7464-0.022 1.6267 0.5699 2.1689 0.52387 0.3522 1.3698 0.086 1.54-0.5414 0.40013-1.0572 0.45686-2.3521-0.21426-3.3123-0.35457-0.4805-1.0337-0.7455-1.5197-0.5132-0.81228-0.1818-1.6439 0.1588-2.3403 0.5616-0.44952 0.498-0.66264-0.1993-1.0272-0.3862-0.34308-0.2327-0.7156-0.4234-1.1022-0.5708z"/>
  </g>
  <metadata>
    <rdf:RDF>
      <cc:Work>
        <dc:format>image/svg+xml</dc:format>
        <dc:type rdf:resource="http://purl.org/dc/dcmitype/StillImage"/>
        <cc:license rdf:resource="http://creativecommons.org/licenses/publicdomain/"/>
        <dc:publisher>
          <cc:Agent rdf:about="http://openclipart.org/">
            <dc:title>Openclipart</dc:title>
          </cc:Agent>
        </dc:publisher>
        <dc:title>Sink</dc:title>
        <dc:date>2013-09-06T16:02:21</dc:date>
        <dc:description>A realistic, simplified vector drawing of a bathroom sink</dc:description>
        <dc:source>https://openclipart.org/detail/183124/sink-by-last-dino-183124</dc:source>
        <dc:creator>
          <cc:Agent>
            <dc:title>Last-Dino</dc:title>
          </cc:Agent>
        </dc:creator>
        <dc:subject>
          <rdf:Bag>
            <rdf:li>bath</rdf:li>
            <rdf:li>bathroom</rdf:li>
            <rdf:li>chrome</rdf:li>
            <rdf:li>clean</rdf:li>
            <rdf:li>drain</rdf:li>
            <rdf:li>drink</rdf:li>
            <rdf:li>faucet</rdf:li>
            <rdf:li>home</rdf:li>
            <rdf:li>kitchen</rdf:li>
            <rdf:li>plumbing</rdf:li>
            <rdf:li>realistic</rdf:li>
            <rdf:li>restroom</rdf:li>
            <rdf:li>shiny</rdf:li>
            <rdf:li>sink</rdf:li>
            <rdf:li>spout</rdf:li>
            <rdf:li>toilet</rdf:li>
            <rdf:li>toilette</rdf:li>
            <rdf:li>vector</rdf:li>
            <rdf:li>wash</rdf:li>
            <rdf:li>water</rdf:li>
          </rdf:Bag>
        </dc:subject>
      </cc:Work>
      <cc:License rdf:about="http://creativecommons.org/licenses/publicdomain/">
        <cc:permits rdf:resource="http://creativecommons.org/ns#Reproduction"/>
        <cc:permits rdf:resource="http://creativecommons.org/ns#Distribution"/>
        <cc:permits rdf:resource="http://creativecommons.org/ns#DerivativeWorks"/>
      </cc:License>
    </rdf:RDF>
  </metadata>
</svg>