<?xml version="1.0" encoding="UTF-8" standalone="no"?>
<!-- Created with Inkscape (http://www.inkscape.org/) -->

<svg
   xmlns:dc="http://purl.org/dc/elements/1.1/"
   xmlns:cc="http://creativecommons.org/ns#"
   xmlns:rdf="http://www.w3.org/1999/02/22-rdf-syntax-ns#"
   xmlns:svg="http://www.w3.org/2000/svg"
   xmlns="http://www.w3.org/2000/svg"
   xmlns:xlink="http://www.w3.org/1999/xlink"
   xmlns:sodipodi="http://sodipodi.sourceforge.net/DTD/sodipodi-0.dtd"
   xmlns:inkscape="http://www.inkscape.org/namespaces/inkscape"
   width="127.23405mm"
   height="169.33333mm"
   viewBox="0 0 450.82933 599.99998"
   id="svg10472"
   version="1.1"
   inkscape:version="0.92.4 (unknown)"
   sodipodi:docname="nitrogen.svg"
   inkscape:export-filename="/media/sdb1/_GRAFIKA/2016_05_citizen_monitoring/first_responders/dewar_flask.png"
   inkscape:export-xdpi="85.006577"
   inkscape:export-ydpi="85.006577">
  <title
     id="title9056">Dewar flask with liquid nitrogen</title>
  <defs
     id="defs10474">
    <linearGradient
       inkscape:collect="always"
       id="linearGradient8855">
      <stop
         style="stop-color:#ffffff;stop-opacity:0.17766498"
         offset="0"
         id="stop8857" />
      <stop
         id="stop8935"
         offset="0.51103318"
         style="stop-color:#ffffff;stop-opacity:0.53553301" />
      <stop
         style="stop-color:#ffffff;stop-opacity:0.21573605"
         offset="1"
         id="stop8859" />
    </linearGradient>
    <linearGradient
       id="linearGradient6215-9">
      <stop
         style="stop-color:#000000;stop-opacity:1;"
         offset="0"
         id="stop6217-1" />
      <stop
         id="stop6219-8"
         offset="0.41776243"
         style="stop-color:#292929;stop-opacity:1;" />
      <stop
         style="stop-color:#000000;stop-opacity:1;"
         offset="1"
         id="stop6221-2" />
    </linearGradient>
    <linearGradient
       id="linearGradient3253-5">
      <stop
         id="stop3255-4"
         offset="0"
         style="stop-color:#5d5d5d;stop-opacity:1;" />
      <stop
         style="stop-color:#ffffff;stop-opacity:1;"
         offset="0.44792059"
         id="stop3257-4" />
      <stop
         id="stop3259-0"
         offset="1"
         style="stop-color:#5d5d5d;stop-opacity:1;" />
    </linearGradient>
    <linearGradient
       id="linearGradient5133">
      <stop
         style="stop-color:#c4bda4;stop-opacity:1;"
         offset="0"
         id="stop5135" />
      <stop
         id="stop5141"
         offset="0.5"
         style="stop-color:#f0ebdb;stop-opacity:1;" />
      <stop
         style="stop-color:#c4bda4;stop-opacity:1;"
         offset="1"
         id="stop5137" />
    </linearGradient>
    <style
       type="text/css"
       id="style6576">
    .fil0 {fill:black}
    .fil3 {fill:#666666}
    .fil10 {fill:gray}
    .fil2 {fill:#996633}
    .fil6 {fill:#999966}
    .fil4 {fill:#999999}
    .fil9 {fill:#B3B3B3}
    .fil5 {fill:#CC9933}
    .fil8 {fill:#FFCC99}
    .fil11 {fill:#FFFF99}
    .fil1 {fill:#FFFFCC}
    .fil7 {fill:white}
  </style>
    <clipPath
       id="clipPath4436"
       clipPathUnits="userSpaceOnUse">
      <path
         d="M 328.93603,-132.18719 C 260.79019,-98.879936 244.44949,-14.565186 292.4281,56.055542 L 539.45959,-64.684631 C 491.36182,-135.24707 397.08215,-165.49457 328.93603,-132.18719 Z"
         id="path4438"
         inkscape:connector-curvature="0"
         style="fill:#000000;fill-rule:nonzero" />
    </clipPath>
    <linearGradient
       id="linearGradient3281">
      <stop
         style="stop-color:#452e20;stop-opacity:1;"
         offset="0"
         id="stop3283" />
      <stop
         id="stop3285"
         offset="0.55691957"
         style="stop-color:#c5bc99;stop-opacity:1;" />
      <stop
         style="stop-color:#452e20;stop-opacity:1;"
         offset="1"
         id="stop3287" />
    </linearGradient>
    <linearGradient
       id="linearGradient3253">
      <stop
         id="stop3255"
         offset="0"
         style="stop-color:#5d5d5d;stop-opacity:1;" />
      <stop
         style="stop-color:#ffffff;stop-opacity:1;"
         offset="0.5"
         id="stop3257" />
      <stop
         id="stop3259"
         offset="1"
         style="stop-color:#5d5d5d;stop-opacity:1;" />
    </linearGradient>
    <linearGradient
       id="linearGradient3230">
      <stop
         style="stop-color:#c5bc99;stop-opacity:1;"
         offset="0"
         id="stop3232" />
      <stop
         id="stop3238"
         offset="0.5"
         style="stop-color:#ede8d3;stop-opacity:1;" />
      <stop
         style="stop-color:#c5bc99;stop-opacity:1;"
         offset="1"
         id="stop3234" />
    </linearGradient>
    <style
       type="text/css"
       id="style17367">
    .str1 {stroke:black;stroke-width:20}
    .str0 {stroke:black;stroke-width:105.83}
    .fil2 {fill:black}
    .fil1 {fill:#999999}
    .fil0 {fill:#E6E6E6}
  </style>
    <style
       id="style6"
       type="text/css">
   
    .str1 {stroke:#838281;stroke-width:3}
    .str0 {stroke:#1F1A17;stroke-width:3}
    .str2 {stroke:#C0A062;stroke-width:215;stroke-linejoin:round}
    .fil8 {fill:none}
    .fil3 {fill:#1F1A17}
    .fil7 {fill:#4D4948}
    .fil0 {fill:#FFFFFF}
    .fil4 {fill:#FFFFFF}
    .fil10 {fill:#D7C6A3}
    .fil13 {fill:#D7C7A4}
    .fil15 {fill:#D8C7A5}
    .fil17 {fill:#D8C8A6}
    .fil19 {fill:#D8C8A7}
    .fil21 {fill:#DAC9A8}
    .fil23 {fill:#DACAA9}
    .fil25 {fill:#DBCAAA}
    .fil27 {fill:#DBCCAB}
    .fil29 {fill:#DBCCAC}
    .fil31 {fill:#DDCDAD}
    .fil33 {fill:#DDCDAE}
    .fil35 {fill:#DECFAF}
    .fil37 {fill:#DED0B2}
    .fil40 {fill:#E0D2B4}
    .fil43 {fill:#E1D4B6}
    .fil45 {fill:#E1D4B7}
    .fil47 {fill:#E1D5B8}
    .fil48 {fill:#E3D6BA}
    .fil50 {fill:#E3D6BB}
    .fil52 {fill:#E4D8BC}
    .fil54 {fill:#E4D8BD}
    .fil53 {fill:#E5D9BE}
    .fil51 {fill:#E6DABF}
    .fil49 {fill:#E6DBC1}
    .fil46 {fill:#E8DDC3}
    .fil44 {fill:#E8DEC5}
    .fil42 {fill:#E9DEC6}
    .fil41 {fill:#EADFC8}
    .fil39 {fill:#EBE1C9}
    .fil38 {fill:#EBE2CC}
    .fil36 {fill:#EDE4CE}
    .fil34 {fill:#EFE6D1}
    .fil80 {fill:#EFF0ED}
    .fil32 {fill:#F0E7D4}
    .fil30 {fill:#F2E9D8}
    .fil28 {fill:#F2ECDC}
    .fil26 {fill:#F3EEDF}
    .fil24 {fill:#F5EFE2}
    .fil22 {fill:#F6F1E6}
    .fil20 {fill:#F8F3E9}
    .fil18 {fill:#F8F5ED}
    .fil16 {fill:#F9F7F0}
    .fil14 {fill:#FBF9F4}
    .fil12 {fill:#FCFBF7}
    .fil11 {fill:#FEFCFB}
    .fil9 {fill:#FFFFFF}
    .fil2 {fill:url(#id2)}
    .fil6 {fill:url(#id3)}
    .fil1 {fill:url(#id4)}
    .fil5 {fill:url(#id5)}
    .fil73 {fill:url(#id6)}
    .fil59 {fill:url(#id7)}
    .fil60 {fill:url(#id8)}
    .fil67 {fill:url(#id9)}
    .fil61 {fill:url(#id10)}
    .fil71 {fill:url(#id11)}
    .fil64 {fill:url(#id12)}
    .fil56 {fill:url(#id13)}
    .fil57 {fill:url(#id14)}
    .fil63 {fill:url(#id15)}
    .fil55 {fill:url(#id16)}
    .fil79 {fill:url(#id17)}
    .fil68 {fill:url(#id18)}
    .fil76 {fill:url(#id19)}
    .fil78 {fill:url(#id20)}
    .fil62 {fill:url(#id21)}
    .fil58 {fill:url(#id22)}
    .fil65 {fill:url(#id23)}
    .fil72 {fill:url(#id24)}
    .fil66 {fill:url(#id25)}
    .fil74 {fill:url(#id26)}
    .fil77 {fill:url(#id27)}
    .fil75 {fill:url(#id28)}
    .fil70 {fill:url(#id29)}
    .fil69 {fill:url(#id30)}
   
  </style>
    <style
       id="style1472"
       type="text/css">
   
    .fil0 {fill:#000000}
   
  </style>
    <linearGradient
       inkscape:collect="always"
       xlink:href="#linearGradient3253"
       id="linearGradient5082"
       x1="537.20581"
       y1="280.14401"
       x2="558.0412"
       y2="355.27414"
       gradientUnits="userSpaceOnUse"
       gradientTransform="translate(-544.69773,338.97015)" />
    <linearGradient
       inkscape:collect="always"
       xlink:href="#linearGradient3230"
       id="linearGradient3358"
       gradientUnits="userSpaceOnUse"
       x1="-7500"
       y1="9500.5"
       x2="3001"
       y2="9500.5" />
    <linearGradient
       inkscape:collect="always"
       xlink:href="#linearGradient3230"
       id="linearGradient4841"
       gradientUnits="userSpaceOnUse"
       x1="-7500"
       y1="9500.5"
       x2="3001"
       y2="9500.5" />
    <linearGradient
       inkscape:collect="always"
       xlink:href="#linearGradient3230"
       id="linearGradient4850"
       gradientUnits="userSpaceOnUse"
       x1="-7200.0425"
       y1="689.25073"
       x2="2981.1855"
       y2="-1139.0182"
       gradientTransform="matrix(0.016237,0,0,0.01324681,147.75857,728.11696)" />
    <radialGradient
       inkscape:collect="always"
       xlink:href="#linearGradient3230"
       id="radialGradient3362"
       gradientUnits="userSpaceOnUse"
       gradientTransform="matrix(1,0,0,0.3809161,0,2166.7936)"
       cx="-2249.5"
       cy="3500"
       fx="-2249.5"
       fy="3500"
       r="5250.5" />
    <radialGradient
       inkscape:collect="always"
       xlink:href="#linearGradient3230"
       id="radialGradient3360"
       gradientUnits="userSpaceOnUse"
       gradientTransform="matrix(1,0,0,0.3809161,0,2166.7936)"
       cx="-2249.5"
       cy="3500"
       fx="-2249.5"
       fy="3500"
       r="5250.5" />
    <linearGradient
       inkscape:collect="always"
       xlink:href="#linearGradient3281"
       id="linearGradient4900"
       gradientUnits="userSpaceOnUse"
       gradientTransform="matrix(0.01618018,0,0,0.01178534,149.06817,733.55146)"
       x1="-7500"
       y1="9500.5"
       x2="3001"
       y2="9500.5" />
    <linearGradient
       inkscape:collect="always"
       xlink:href="#linearGradient3281"
       id="linearGradient4904"
       gradientUnits="userSpaceOnUse"
       gradientTransform="matrix(0.01618018,0,0,0.01178534,149.06817,599.55146)"
       x1="-7500"
       y1="9500.5"
       x2="3001"
       y2="9500.5" />
    <linearGradient
       gradientTransform="translate(-544.35503,-52.714048)"
       inkscape:collect="always"
       xlink:href="#linearGradient3253"
       id="linearGradient5065"
       x1="648.03003"
       y1="734.04626"
       x2="666.30096"
       y2="734.04626"
       gradientUnits="userSpaceOnUse" />
    <linearGradient
       inkscape:collect="always"
       xlink:href="#linearGradient8855"
       id="linearGradient8861"
       x1="140.9953"
       y1="243.11554"
       x2="679.38409"
       y2="255.44505"
       gradientUnits="userSpaceOnUse"
       gradientTransform="matrix(0.12829808,0,0,0.12829808,69.284566,816.76314)" />
    <linearGradient
       inkscape:collect="always"
       xlink:href="#linearGradient8855"
       id="linearGradient9173"
       x1="212.77681"
       y1="716.76324"
       x2="233.37396"
       y2="693.94"
       gradientUnits="userSpaceOnUse"
       gradientTransform="matrix(0.51871975,0,0,0.51871975,304.8776,293.5136)" />
  </defs>
  <sodipodi:namedview
     id="base"
     pagecolor="#ffffff"
     bordercolor="#666666"
     borderopacity="1.0"
     inkscape:pageopacity="0.0"
     inkscape:pageshadow="2"
     inkscape:zoom="0.18220149"
     inkscape:cx="1481.2289"
     inkscape:cy="345.17873"
     inkscape:document-units="px"
     inkscape:current-layer="layer1"
     showgrid="false"
     fit-margin-top="0"
     fit-margin-left="0"
     fit-margin-right="0"
     fit-margin-bottom="0"
     inkscape:window-width="1295"
     inkscape:window-height="744"
     inkscape:window-x="65"
     inkscape:window-y="24"
     inkscape:window-maximized="1"
     showguides="false" />
  <metadata
     id="metadata10477">
    <rdf:RDF>
      <cc:Work
         rdf:about="">
        <dc:format>image/svg+xml</dc:format>
        <dc:type
           rdf:resource="http://purl.org/dc/dcmitype/StillImage" />
        <dc:title>Dewar flask with liquid nitrogen</dc:title>
        <dc:creator>
          <cc:Agent>
            <dc:title>Jan Helebrant</dc:title>
          </cc:Agent>
        </dc:creator>
        <dc:rights>
          <cc:Agent>
            <dc:title>Jan Helebrant</dc:title>
          </cc:Agent>
        </dc:rights>
        <dc:publisher>
          <cc:Agent>
            <dc:title>Jan Helebrant</dc:title>
          </cc:Agent>
        </dc:publisher>
        <cc:license
           rdf:resource="http://creativecommons.org/publicdomain/zero/1.0/" />
        <dc:subject>
          <rdf:Bag>
            <rdf:li>HPGe</rdf:li>
            <rdf:li>spectrometry</rdf:li>
            <rdf:li>detector</rdf:li>
            <rdf:li>semiconductor</rdf:li>
            <rdf:li>germanium</rdf:li>
            <rdf:li>flask</rdf:li>
            <rdf:li>dewar</rdf:li>
            <rdf:li>nitrogen</rdf:li>
            <rdf:li>liquid</rdf:li>
            <rdf:li>cool</rdf:li>
            <rdf:li>cold</rdf:li>
            <rdf:li>freeze</rdf:li>
            <rdf:li>radiation</rdf:li>
          </rdf:Bag>
        </dc:subject>
        <dc:description>Simplified icon of dewar flask with liquid nitrogen and signs advising to wear gloves and face protection</dc:description>
      </cc:Work>
      <cc:License
         rdf:about="http://creativecommons.org/publicdomain/zero/1.0/">
        <cc:permits
           rdf:resource="http://creativecommons.org/ns#Reproduction" />
        <cc:permits
           rdf:resource="http://creativecommons.org/ns#Distribution" />
        <cc:permits
           rdf:resource="http://creativecommons.org/ns#DerivativeWorks" />
      </cc:License>
    </rdf:RDF>
  </metadata>
  <g
     inkscape:label="Vrstva 1"
     inkscape:groupmode="layer"
     id="layer1"
     transform="translate(-352.58014,-51.729526)">
    <g
       inkscape:export-ydpi="409.26917"
       inkscape:export-xdpi="409.26917"
       transform="matrix(1.9943128,0,0,1.9943128,-2647.1064,754.63713)"
       id="g13714">
      <g
         id="g3255"
         transform="matrix(0.96061377,0,0,0.96061377,1540.2388,-954.38023)">
        <g
           id="g14484"
           inkscape:export-xdpi="227"
           inkscape:export-ydpi="227">
          <g
             style="visibility:visible;fill:url(#linearGradient3358);fill-opacity:1;fill-rule:evenodd;stroke:none"
             id="g4806"
             transform="matrix(0.01618892,0,0,0.0117917,149.14367,730.92717)"
             inkscape:export-filename="C:\Documents and Settings\Honza\Plocha\GRAFIKA\HPGE_dusik_Dewarka\sud - N2_w.png"
             inkscape:export-xdpi="227.68906"
             inkscape:export-ydpi="227.68906">
            <path
               inkscape:connector-curvature="0"
               d="m -2250,1500 v 0 c 2864,0 5251,909 5251,2000 v 12000 c 0,1091 -2387,2001 -5251,2001 -2864,0 -5250,-910 -5250,-2001 V 3500 c 0,-1091 2386,-2000 5250,-2000 z"
               id="path4808"
               style="fill:url(#linearGradient4841);fill-opacity:1" />
          </g>
          <path
             inkscape:connector-curvature="0"
             style="visibility:visible;fill:url(#linearGradient4850);fill-opacity:1;fill-rule:evenodd;stroke:none"
             d="m 83.789362,689.00966 -55.9692,81.1427 H 197.72647 l -55.9691,-81.1427 z m -56.0629,81.2052 c 0,10.8876 38.5824,19.9577 84.922008,19.9577 46.3395,0 84.9843,-9.0701 84.9843,-19.9577 z"
             id="path4798"
             inkscape:export-filename="C:\Documents and Settings\Honza\Plocha\GRAFIKA\HPGE_dusik_Dewarka\sud - N2_w.png"
             inkscape:export-xdpi="227.68906"
             inkscape:export-ydpi="227.68906" />
          <path
             style="visibility:visible;fill:url(#linearGradient4900);fill-opacity:1;fill-rule:evenodd;stroke:none"
             d="m 27.726462,902.28376 v 13.9299 c 0,12.8578 38.5829,23.581 84.922908,23.581 46.3401,0 84.9854,-10.7232 84.9854,-23.581 l 0.092,-13.8616 c -3.3864,12.0347 -40.9092,23.4502 -85.0771,23.4502 -46.267908,0 -84.802808,-10.6874 -84.922908,-23.5185 z"
             id="path4874"
             inkscape:connector-curvature="0"
             sodipodi:nodetypes="cssccsc"
             inkscape:export-filename="C:\Documents and Settings\Honza\Plocha\GRAFIKA\HPGE_dusik_Dewarka\sud - N2_w.png"
             inkscape:export-xdpi="227.68906"
             inkscape:export-ydpi="227.68906" />
          <path
             sodipodi:nodetypes="cssccsc"
             inkscape:connector-curvature="0"
             id="path4902"
             d="m 27.726462,768.28376 v 13.9299 c 0,12.8578 38.5829,23.581 84.922908,23.581 46.3401,0 84.9854,-10.7232 84.9854,-23.581 l 0.092,-13.8616 c -3.3864,12.0347 -40.9092,23.4502 -85.0771,23.4502 -46.267908,0 -84.802808,-10.6874 -84.922908,-23.5185 z"
             style="visibility:visible;fill:url(#linearGradient4904);fill-opacity:1;fill-rule:evenodd;stroke:none"
             inkscape:export-filename="C:\Documents and Settings\Honza\Plocha\GRAFIKA\HPGE_dusik_Dewarka\sud - N2_w.png"
             inkscape:export-xdpi="227.68906"
             inkscape:export-ydpi="227.68906" />
          <rect
             ry="2.1056585"
             rx="2.1056585"
             y="817.90204"
             x="70.082581"
             height="66.867882"
             width="95.207924"
             id="rect3937"
             style="fill:#f3c600;fill-opacity:1;fill-rule:evenodd;stroke:#000000;stroke-width:0.5131923;stroke-linecap:round;stroke-linejoin:round;stroke-miterlimit:4;stroke-dasharray:none;stroke-dashoffset:0;stroke-opacity:1" />
          <rect
             rx="2.1056585"
             ry="2.1056585"
             y="821.68311"
             x="73.37986"
             height="20.557064"
             width="88.921997"
             id="rect2183"
             style="opacity:0.9;fill:#000000;fill-opacity:1;fill-rule:evenodd;stroke:none" />
          <path
             id="text3881"
             d="m 81.522757,824.27012 c -1.916875,10e-6 -3.461456,0.66602 -4.637713,1.99774 -1.176263,1.33175 -1.766122,3.20197 -1.766121,5.60895 -10e-7,2.27546 0.585554,4.07059 1.755593,5.38259 1.170034,1.31201 2.66249,1.96616 4.479788,1.96616 1.468762,0 2.682192,-0.38143 3.637525,-1.14759 0.955311,-0.76615 1.636983,-1.94072 2.047753,-3.51908 l -2.676818,-0.89754 c -0.230283,1.05882 -0.610691,1.83616 -1.139688,2.32939 -0.529014,0.49324 -1.160715,0.73961 -1.895092,0.73961 -0.995783,0 -1.804417,-0.38735 -2.426772,-1.16337 -0.622364,-0.77602 -0.93439,-2.07774 -0.934386,-3.906 -4e-6,-1.72303 0.315846,-2.97072 0.947547,-3.74018 0.63169,-0.76943 1.45443,-1.15283 2.468884,-1.15284 0.734377,10e-6 1.357949,0.21608 1.871404,0.65012 0.513438,0.43406 0.851525,1.02694 1.013348,1.77665 l 2.734724,-0.69224 c -0.311193,-1.15745 -0.777914,-2.04546 -1.400263,-2.66366 -1.045575,-1.04564 -2.405572,-1.5687 -4.079713,-1.56871 z m 58.579423,0 c -1.11404,10e-6 -2.0953,0.19237 -2.94793,0.57379 -0.64103,0.2828 -1.23041,0.71758 -1.76875,1.30288 -0.53834,0.58531 -0.96538,1.24539 -1.27655,1.98195 -0.41699,0.99963 -0.62381,2.23547 -0.62381,3.70859 0,2.30177 0.59919,4.11007 1.80034,5.42207 1.20115,1.31201 2.82105,1.96616 4.85618,1.96616 2.01021,0 3.61552,-0.65811 4.81669,-1.97669 1.20114,-1.31858 1.80033,-3.14532 1.80034,-5.47998 -1e-5,-2.35436 -0.60565,-4.19231 -1.81613,-5.51419 -1.2105,-1.32186 -2.82395,-1.98457 -4.84038,-1.98458 z m -46.740358,0.24741 -5.33258,14.46324 h 2.932129 l 1.12916,-3.28745 h 5.47208 l 1.194961,3.28745 h 3.005828 l -5.479977,-14.46324 z m 9.857118,0 v 7.71461 c -1e-5,1.61782 0.0906,2.84048 0.2711,3.66911 0.12447,0.559 0.38174,1.09326 0.77383,1.60293 0.39208,0.50968 0.92767,0.92338 1.60293,1.24234 0.67526,0.31896 1.66465,0.47904 2.97161,0.47904 1.0829,0 1.95992,-0.14691 2.63207,-0.43956 0.67214,-0.29265 1.2094,-0.6833 1.61083,-1.17654 0.40141,-0.49323 0.6771,-1.09929 0.82647,-1.81613 0.14936,-0.71683 0.22372,-1.94344 0.22373,-3.67963 v -7.59617 h -2.76368 v 8.00151 c -1e-5,1.14431 -0.0402,1.96249 -0.12107,2.45572 -0.0809,0.49324 -0.32026,0.90892 -0.71856,1.2476 -0.39832,0.33869 -0.98985,0.50799 -1.77401,0.50799 -0.77174,0 -1.37905,-0.17852 -1.82403,-0.53694 -0.44499,-0.35842 -0.72665,-0.8347 -0.8449,-1.42658 -0.0685,-0.36828 -0.10265,-1.17329 -0.10265,-2.41625 v -7.83305 z m 12.85504,0 v 2.44783 h 4.06129 v 12.01541 h 2.76368 v -12.01541 h 4.05076 v -2.44783 z m 12.58394,0 v 14.46324 h 2.76368 v -14.46324 z m 20.27749,0 v 14.46324 h 2.56628 v -9.43071 l 5.51682,9.43071 h 2.7742 v -14.46324 h -2.5689 v 9.65708 l -5.60105,-9.65708 z m -8.80428,2.25043 c 1.13891,10e-6 2.05227,0.40581 2.73999,1.22128 0.68769,0.81549 1.03176,2.05396 1.03177,3.71122 -1e-5,1.67701 -0.35436,2.93327 -1.06073,3.77176 -0.70638,0.8385 -1.60946,1.25813 -2.71103,1.25813 -1.10159,0 -2.01112,-0.42358 -2.72683,-1.26866 -0.71572,-0.84507 -1.07126,-2.0842 -1.07125,-3.72175 -10e-6,-1.66384 0.34788,-2.90955 1.04493,-3.73491 0.69704,-0.82534 1.61422,-1.23706 2.75315,-1.23707 z m -45.342724,1.12389 1.887196,5.3668 H 92.94069 Z"
             style="font-style:normal;font-variant:normal;font-weight:bold;font-stretch:normal;font-size:153.18583679px;line-height:100%;font-family:Arial;text-align:center;writing-mode:lr-tb;text-anchor:middle;fill:#f4cc19;fill-opacity:1;stroke:none"
             inkscape:connector-curvature="0" />
          <g
             style="font-style:normal;font-weight:normal;font-size:129.70124817px;line-height:125%;font-family:Sans;letter-spacing:0px;word-spacing:0px;fill:#000000;fill-opacity:1;stroke:none;stroke-width:1px;stroke-linecap:butt;stroke-linejoin:miter;stroke-opacity:1"
             id="text8749"
             transform="matrix(0.12829808,0,0,0.12829808,69.284566,816.76314)">
            <path
               d="m 168.66758,327.9722 v -92.08282 h 18.74588 v 76.44014 h 46.61139 v 15.64268 z"
               style="font-style:normal;font-variant:normal;font-weight:bold;font-stretch:normal;font-family:Arial;-inkscape-font-specification:'Arial Bold';text-align:center;text-anchor:middle"
               id="path8756"
               inkscape:connector-curvature="0" />
            <path
               d="m 246.88098,327.9722 v -92.84279 h 18.74588 v 92.84279 z"
               style="font-style:normal;font-variant:normal;font-weight:bold;font-stretch:normal;font-family:Arial;-inkscape-font-specification:'Arial Bold';text-align:center;text-anchor:middle"
               id="path8758"
               inkscape:connector-curvature="0" />
            <path
               d="m 358.153,316.19269 q 6.90305,4.93979 15.00937,7.85301 l -6.90304,13.23611 q -4.24316,-1.26661 -8.29632,-3.48319 -0.88663,-0.44331 -12.47615,-8.23299 -9.11962,3.98984 -20.20249,3.98984 -21.40577,0 -33.56526,-12.60281 -12.09616,-12.60281 -12.09616,-35.40186 0,-22.73571 12.15949,-35.33852 12.15949,-12.66614 32.99529,-12.66614 20.6458,0 32.74196,12.66614 12.09617,12.60281 12.09617,35.33852 0,12.03284 -3.35653,21.15245 -2.53323,6.96638 -8.10633,13.48944 z m -15.0727,-10.57622 q 3.60985,-4.24316 5.38311,-10.25958 1.83659,-6.01641 1.83659,-13.80609 0,-16.08599 -7.09304,-24.00233 -7.09304,-7.97966 -18.55589,-7.97966 -11.46286,0 -18.61922,7.97966 -7.09304,7.97967 -7.09304,24.00233 0,16.27599 7.09304,24.38232 7.15636,8.043 18.04924,8.043 4.05317,0 7.66301,-1.32995 -5.69976,-3.73651 -11.58951,-5.82642 l 5.25645,-10.70289 q 9.24628,3.16654 17.66926,9.49961 z"
               style="font-style:normal;font-variant:normal;font-weight:bold;font-stretch:normal;font-family:Arial;-inkscape-font-specification:'Arial Bold';text-align:center;text-anchor:middle"
               id="path8760"
               inkscape:connector-curvature="0" />
            <path
               d="m 384.11859,235.12941 h 18.74589 v 50.28457 q 0,11.9695 0.69663,15.51601 1.20329,5.69977 5.69977,9.18295 4.5598,3.41986 12.41281,3.41986 7.97967,0 12.03283,-3.22986 4.05316,-3.2932 4.87646,-8.043 0.8233,-4.7498 0.8233,-15.76934 v -51.36119 h 18.74589 v 48.76463 q 0,16.7193 -1.51994,23.62235 -1.51994,6.90304 -5.63643,11.65284 -4.05317,4.7498 -10.89288,7.59969 -6.83971,2.78655 -17.85925,2.78655 -13.29945,0 -20.20249,-3.03988 -6.83972,-3.1032 -10.82955,-7.97966 -3.98983,-4.9398 -5.25645,-10.32291 -1.83659,-7.97966 -1.83659,-23.55901 z"
               style="font-style:normal;font-variant:normal;font-weight:bold;font-stretch:normal;font-family:Arial;-inkscape-font-specification:'Arial Bold';text-align:center;text-anchor:middle"
               id="path8762"
               inkscape:connector-curvature="0" />
            <path
               d="m 477.40468,327.9722 v -92.84279 h 18.74588 v 92.84279 z"
               style="font-style:normal;font-variant:normal;font-weight:bold;font-stretch:normal;font-family:Arial;-inkscape-font-specification:'Arial Bold';text-align:center;text-anchor:middle"
               id="path8764"
               inkscape:connector-curvature="0" />
            <path
               d="m 513.88316,235.12941 h 34.2619 q 11.58951,0 17.66926,1.77326 8.16966,2.40657 13.99608,8.54964 5.82643,6.14308 8.8663,15.07271 3.03987,8.86629 3.03987,21.91241 0,11.46286 -2.84988,19.75918 -3.48319,10.13291 -9.94292,16.40265 -4.87646,4.7498 -13.17278,7.40969 -6.20641,1.96325 -16.59264,1.96325 h -35.27519 z m 18.74588,15.70601 v 61.4941 h 13.99608 q 7.85301,0 11.33619,-0.88663 4.55981,-1.13995 7.53636,-3.86317 3.03987,-2.72322 4.93979,-8.92963 1.89992,-6.26974 1.89992,-17.03595 0,-10.76622 -1.89992,-16.52931 -1.89992,-5.7631 -5.31978,-8.99296 -3.41985,-3.22987 -8.6763,-4.36982 -3.9265,-0.88663 -15.38936,-0.88663 z"
               style="font-style:normal;font-variant:normal;font-weight:bold;font-stretch:normal;font-family:Arial;-inkscape-font-specification:'Arial Bold';text-align:center;text-anchor:middle"
               id="path8766"
               inkscape:connector-curvature="0" />
            <path
               d="m 45.742715,490.09876 v -92.84279 h 18.239238 l 37.998417,62.00074 v -62.00074 h 17.41593 v 92.84279 H 100.58709 L 63.158654,429.55462 v 60.54414 z"
               style="font-style:normal;font-variant:normal;font-weight:bold;font-stretch:normal;font-family:Arial;-inkscape-font-specification:'Arial Bold';text-align:center;text-anchor:middle"
               id="path8768"
               inkscape:connector-curvature="0" />
            <path
               d="m 138.71216,490.09876 v -92.84279 h 18.74589 v 92.84279 z"
               style="font-style:normal;font-variant:normal;font-weight:bold;font-stretch:normal;font-family:Arial;-inkscape-font-specification:'Arial Bold';text-align:center;text-anchor:middle"
               id="path8770"
               inkscape:connector-curvature="0" />
            <path
               d="m 196.1531,490.09876 v -77.13678 h -27.54885 v -15.70601 h 73.78025 v 15.70601 h -27.48552 v 77.13678 z"
               style="font-style:normal;font-variant:normal;font-weight:bold;font-stretch:normal;font-family:Arial;-inkscape-font-specification:'Arial Bold';text-align:center;text-anchor:middle"
               id="path8772"
               inkscape:connector-curvature="0" />
            <path
               d="m 254.60733,490.09876 v -92.84279 h 39.45501 q 14.88272,0 21.59577,2.53323 6.77638,2.4699 10.82955,8.86629 4.05316,6.3964 4.05316,14.62939 0,10.44957 -6.14308,17.28928 -6.14307,6.77638 -18.3659,8.54964 6.07975,3.54652 10.00625,7.78968 3.98984,4.24315 10.70289,15.0727 l 11.33619,18.11258 h -22.41906 l -13.55277,-20.20249 q -7.2197,-10.82955 -9.87959,-13.6161 -2.65989,-2.84988 -5.63643,-3.86317 -2.97654,-1.07662 -9.43627,-1.07662 h -3.79984 v 38.75838 z M 273.35321,436.521 h 13.86942 q 13.48944,0 16.84596,-1.13996 3.35653,-1.13995 5.25645,-3.9265 1.89992,-2.78655 1.89992,-6.96637 0,-4.68647 -2.53323,-7.53636 -2.46989,-2.91321 -7.0297,-3.67318 -2.27991,-0.31665 -13.67943,-0.31665 h -14.62939 z"
               style="font-style:normal;font-variant:normal;font-weight:bold;font-stretch:normal;font-family:Arial;-inkscape-font-specification:'Arial Bold';text-align:center;text-anchor:middle"
               id="path8774"
               inkscape:connector-curvature="0" />
            <path
               d="m 344.47358,444.24734 q 0,-14.18607 4.24316,-23.81234 3.16653,-7.09303 8.61297,-12.72947 5.50977,-5.63643 12.03283,-8.35965 8.67631,-3.67318 20.0125,-3.67318 20.51914,0 32.8053,12.72947 12.34948,12.72947 12.34948,35.40186 0,22.48239 -12.22282,35.21186 -12.22282,12.66614 -32.67864,12.66614 -20.70913,0 -32.93195,-12.60281 -12.22283,-12.66614 -12.22283,-34.83188 z m 19.31586,-0.63331 q 0,15.76935 7.28303,23.939 7.28303,8.10633 18.49256,8.10633 11.20954,0 18.3659,-8.043 7.2197,-8.10632 7.2197,-24.25565 0,-15.95933 -7.0297,-23.81234 -6.96638,-7.853 -18.5559,-7.853 -11.58951,0 -18.68255,7.97966 -7.09304,7.91634 -7.09304,23.939 z"
               style="font-style:normal;font-variant:normal;font-weight:bold;font-stretch:normal;font-family:Arial;-inkscape-font-specification:'Arial Bold';text-align:center;text-anchor:middle"
               id="path8776"
               inkscape:connector-curvature="0" />
            <path
               d="m 492.2874,455.96352 v -15.64268 h 40.40498 v 36.98512 q -5.88975,5.69976 -17.09928,10.06958 -11.1462,4.30649 -22.60906,4.30649 -14.56606,0 -25.3956,-6.07975 -10.82955,-6.14308 -16.27599,-17.47927 -5.44644,-11.39952 -5.44644,-24.7623 0,-14.50273 6.07975,-25.77559 6.07974,-11.27286 17.79592,-17.28928 8.92963,-4.62314 22.22907,-4.62314 17.28928,0 26.97887,7.28303 9.75293,7.2197 12.53948,20.0125 l -18.61922,3.48319 q -1.96325,-6.83972 -7.40969,-10.76622 -5.38311,-3.98983 -13.48944,-3.98983 -12.28615,0 -19.56918,7.78967 -7.2197,7.78968 -7.2197,23.1157 0,16.52931 7.34636,24.82563 7.34636,8.23299 19.25253,8.23299 5.88975,0 11.77951,-2.2799 5.95308,-2.34324 10.19624,-5.63643 v -11.77951 z"
               style="font-style:normal;font-variant:normal;font-weight:bold;font-stretch:normal;font-family:Arial;-inkscape-font-specification:'Arial Bold';text-align:center;text-anchor:middle"
               id="path8778"
               inkscape:connector-curvature="0" />
            <path
               d="m 549.91832,490.09876 v -92.84279 h 68.84046 v 15.70601 h -50.09457 v 20.58247 h 46.61138 v 15.64268 h -46.61138 v 25.26895 h 51.86783 v 15.64268 z"
               style="font-style:normal;font-variant:normal;font-weight:bold;font-stretch:normal;font-family:Arial;-inkscape-font-specification:'Arial Bold';text-align:center;text-anchor:middle"
               id="path8780"
               inkscape:connector-curvature="0" />
            <path
               d="m 636.74467,490.09876 v -92.84279 h 18.23924 l 37.99841,62.00074 v -62.00074 h 17.41594 v 92.84279 h -18.80922 l -37.42843,-60.54414 v 60.54414 z"
               style="font-style:normal;font-variant:normal;font-weight:bold;font-stretch:normal;font-family:Arial;-inkscape-font-specification:'Arial Bold';text-align:center;text-anchor:middle"
               id="path8782"
               inkscape:connector-curvature="0" />
          </g>
          <rect
             style="fill:url(#linearGradient8861);fill-opacity:1;fill-rule:evenodd;stroke:#000000;stroke-width:0.5131923;stroke-linecap:round;stroke-linejoin:round;stroke-miterlimit:4;stroke-dasharray:none;stroke-dashoffset:0;stroke-opacity:1"
             id="rect8845"
             width="95.207924"
             height="66.867882"
             x="70.082581"
             y="817.90204"
             rx="2.1056585"
             ry="2.1056585" />
          <rect
             style="opacity:1;fill:#ffff00;fill-opacity:1;stroke:#787878;stroke-width:0.14786239;stroke-linecap:round;stroke-miterlimit:4;stroke-dasharray:none;stroke-dashoffset:0;stroke-opacity:1"
             id="rect9102"
             width="23.835346"
             height="24.253183"
             x="409.54462"
             y="646.31537"
             rx="4.90201"
             ry="4.8054576"
             transform="rotate(21.002367)" />
          <rect
             style="fill:#000000;stroke:#000000;stroke-width:0.07554214;stroke-miterlimit:4;stroke-dasharray:none;stroke-dashoffset:0;stroke-opacity:1"
             id="rect5380"
             width="2.4891884"
             height="28.256262"
             x="111.152"
             y="627.55054"
             rx="32.497974"
             ry="2.9403837"
             inkscape:export-filename="C:\Documents and Settings\Honza\Plocha\GRAFIKA\HPGE_dusik_Dewarka\sud - N2_w.png"
             inkscape:export-xdpi="227.68906"
             inkscape:export-ydpi="227.68906" />
          <path
             style="fill:url(#linearGradient5082);fill-opacity:1;stroke:#000000;stroke-width:0.19013663;stroke-miterlimit:4;stroke-dasharray:none;stroke-dashoffset:0;stroke-opacity:1"
             d="m 112.27097,637.87636 c -2.375,0 -4.2812,0.3292 -4.2812,0.75 v 0.8125 H 55.238162 l -90.4924,23.2019 c -1.2134,0.3112 -2.25,1.9376 -2.25,4.3125 0,2.375 1.0552,4.5867 2.25,4.2813 l 90.7686,-23.2019 h 52.475408 v 41.0312 c 0,0.4208 1.9062,0.7813 4.2812,0.7813 2.375,0 4.2813,-0.3605 4.2813,-0.7813 v -50.4375 c 0,-0.4208 -1.9063,-0.75 -4.2813,-0.75 z"
             id="rect5067"
             inkscape:connector-curvature="0"
             sodipodi:nodetypes="ssccsssccsssss"
             inkscape:export-filename="C:\Documents and Settings\Honza\Plocha\GRAFIKA\HPGE_dusik_Dewarka\sud - N2_w.png"
             inkscape:export-xdpi="227.68906"
             inkscape:export-ydpi="227.68906" />
          <g
             transform="matrix(0.00560427,0,0,0.00457221,124.98447,674.05157)"
             style="visibility:visible;fill:url(#radialGradient3362);fill-opacity:1;fill-rule:evenodd;stroke:none"
             id="g4801"
             inkscape:export-filename="C:\Documents and Settings\Honza\Plocha\GRAFIKA\HPGE_dusik_Dewarka\sud - N2_w.png"
             inkscape:export-xdpi="227.68906"
             inkscape:export-ydpi="227.68906">
            <path
               style="fill:url(#radialGradient3360);fill-opacity:1"
               inkscape:connector-curvature="0"
               d="m -2250,1500 v 0 c 2864,0 5251,909 5251,2000 0,1091 -2387,2000 -5251,2000 -2864,0 -5250,-909 -5250,-2000 0,-1091 2386,-2000 5250,-2000 z"
               id="path4803" />
          </g>
          <rect
             style="fill:url(#linearGradient5065);fill-opacity:1;stroke:#000000;stroke-width:0.180393;stroke-miterlimit:4;stroke-dasharray:none;stroke-dashoffset:0;stroke-opacity:1"
             id="rect5057"
             width="18.090504"
             height="22.170872"
             x="103.76528"
             y="670.24683"
             rx="236.18333"
             ry="3.0861659"
             inkscape:export-filename="C:\Documents and Settings\Honza\Plocha\GRAFIKA\HPGE_dusik_Dewarka\sud - N2_w.png"
             inkscape:export-xdpi="227.68906"
             inkscape:export-ydpi="227.68906" />
          <rect
             ry="3.7890952"
             rx="79.71936"
             y="-130.3002"
             x="626.6709"
             height="36.41214"
             width="6.1061196"
             id="rect5378"
             style="fill:#452e20;fill-opacity:1;stroke:#000000;stroke-width:0.13431013;stroke-miterlimit:4;stroke-dasharray:none;stroke-dashoffset:0;stroke-opacity:1"
             transform="rotate(90)"
             inkscape:export-filename="C:\Documents and Settings\Honza\Plocha\GRAFIKA\HPGE_dusik_Dewarka\sud - N2_w.png"
             inkscape:export-xdpi="227.68906"
             inkscape:export-ydpi="227.68906" />
          <path
             inkscape:connector-curvature="0"
             id="path28735"
             d="m 162.4436,755.50705 c -0.26592,-0.114 -0.53864,-0.22447 -0.84998,-0.34341 -0.62245,-0.23837 -1.10628,-0.40195 -1.70959,-0.57777 -0.33311,-0.0971 -0.43657,-0.12476 -0.84379,-0.22438 -0.40292,-0.0985 -0.49249,-0.11859 -0.80573,-0.18008 -0.5249,-0.10291 -0.57751,-0.11167 -1.00233,-0.17247 -0.32915,-0.0469 -0.5341,-0.0722 -0.70618,-0.0862 -0.0701,-0.006 -0.16892,-0.0144 -0.21938,-0.0199 -0.0504,-0.006 -0.1474,-0.0131 -0.21497,-0.0172 -0.0676,-0.004 -0.17111,-0.0105 -0.22971,-0.0144 -0.17013,-0.0124 -0.32369,-0.017 -0.62107,-0.0187 -0.39223,-0.002 -0.57578,0.004 -0.91372,0.0298 -0.45895,0.0349 -0.5551,0.045 -0.83978,0.0934 -0.2239,0.0381 -0.32516,0.0575 -0.39592,0.0742 -0.0341,0.008 -0.11549,0.0272 -0.18087,0.0424 -0.22669,0.0533 -0.49336,0.13503 -0.68301,0.20925 -0.23307,0.0912 -0.32172,0.1298 -0.44882,0.19445 -0.38322,0.19525 -0.64389,0.37885 -0.87912,0.61823 -0.14581,0.14812 -0.25531,0.2849 -0.36237,0.45436 -0.0696,0.11138 -0.10119,0.1763 -0.17462,0.36758 -0.0606,0.15456 -0.0708,0.18653 -0.0881,0.26089 -0.0512,0.21504 -0.0702,0.44711 -0.0588,0.70021 0.008,0.17959 0.0286,0.31952 0.0773,0.53525 0.0427,0.18918 0.16943,0.55048 0.25526,0.72749 0.0703,0.14477 0.15226,0.30534 0.19948,0.38999 0.065,0.11676 0.19943,0.33061 0.28284,0.45042 0.0384,0.055 0.0861,0.12398 0.10582,0.15267 0.0559,0.0806 0.29301,0.38296 0.38658,0.49307 0.0816,0.0961 0.33109,0.36851 0.39724,0.43424 0.0371,0.0366 0.0905,0.0903 0.11806,0.12021 0.22524,0.23719 0.75178,0.71061 1.02934,0.92536 0.0464,0.0358 0.13005,0.10255 0.18649,0.14777 0.0565,0.0452 0.13611,0.10765 0.17781,0.13611 0.0413,0.03 0.11943,0.0879 0.17414,0.12973 0.0548,0.0415 0.15323,0.11351 0.21826,0.15976 0.13371,0.0944 0.54906,0.3725 0.70508,0.47248 0.14452,0.0927 0.65137,0.39695 0.83365,0.5001 0.13785,0.078 0.76075,0.4095 0.89539,0.47584 0.45476,0.22614 0.99325,0.47189 1.41332,0.64222 l 0.001,-4.6e-4 c 0.40992,0.16599 1.04822,0.40668 1.39421,0.52336 0.30714,0.10367 0.82811,0.26213 1.16514,0.35508 0.14475,0.0397 0.82931,0.20933 0.98412,0.24338 0.2046,0.045 0.78501,0.15737 0.95449,0.18497 0.18294,0.0297 0.67831,0.0996 0.84072,0.11876 0.0792,0.009 0.2,0.0213 0.26844,0.0271 0.0685,0.006 0.16642,0.0147 0.21678,0.0203 0.0505,0.006 0.15112,0.0128 0.22316,0.0166 0.0722,0.004 0.17886,0.0113 0.23732,0.0154 0.16668,0.0122 0.30556,0.0159 0.60315,0.0174 0.32686,0.002 0.60166,-0.005 0.78081,-0.0191 0.0403,-0.003 0.11597,-0.008 0.16803,-0.0102 0.093,-0.005 0.46061,-0.0412 0.58567,-0.0582 0.14322,-0.0196 0.52172,-0.0869 0.61728,-0.10975 0.0341,-0.008 0.11489,-0.0274 0.18028,-0.0427 0.24059,-0.0566 0.49441,-0.13482 0.72214,-0.22387 0.21859,-0.0856 0.2778,-0.11145 0.41326,-0.18072 0.38167,-0.19472 0.64103,-0.37732 0.87593,-0.61638 0.17755,-0.18075 0.31817,-0.36635 0.42367,-0.56061 0.0373,-0.0666 0.0487,-0.0982 0.10938,-0.25261 0.0536,-0.1422 0.0709,-0.19115 0.0863,-0.25124 0.0389,-0.15543 0.0637,-0.3499 0.068,-0.53744 0.002,-0.0871 -0.008,-0.28306 -0.0174,-0.36366 -0.0237,-0.192 -0.0729,-0.41558 -0.13073,-0.59253 -0.0857,-0.26234 -0.15115,-0.41718 -0.30225,-0.71706 -0.0916,-0.18179 -0.23556,-0.42107 -0.36865,-0.6122 -0.0383,-0.0551 -0.0864,-0.12322 -0.10615,-0.15191 -0.0414,-0.0598 -0.10437,-0.14191 -0.24549,-0.31975 -0.17953,-0.22623 -0.24388,-0.29813 -0.5622,-0.63058 -0.23437,-0.24481 -0.36666,-0.372 -0.66016,-0.63226 -0.2225,-0.19729 -0.34068,-0.29657 -0.47557,-0.40106 -0.0464,-0.0358 -0.12789,-0.0997 -0.18084,-0.14219 -0.053,-0.0423 -0.12926,-0.10312 -0.17093,-0.13156 -0.0413,-0.03 -0.12056,-0.0889 -0.17659,-0.13151 -0.13738,-0.10444 -0.3067,-0.22198 -0.58305,-0.40672 -0.35688,-0.23842 -0.40186,-0.26686 -0.86131,-0.54071 -0.27431,-0.1632 -0.35471,-0.20877 -0.72048,-0.40434 -0.36968,-0.19763 -0.46537,-0.24495 -0.77782,-0.39597 -0.2836,-0.13519 -0.54224,-0.2541 -0.80818,-0.36806 z m 0.0294,0.54609 c 0.17598,0.0769 0.33828,0.15319 0.49835,0.23108 0.10099,0.0503 0.24574,0.12081 0.3223,0.15669 0.55249,0.26753 1.18839,0.62215 1.733,0.96663 0.42907,0.27139 1.03296,0.69413 1.3282,0.93009 0.33514,0.26756 0.57504,0.46967 0.70506,0.59284 0.0328,0.0317 0.0915,0.0841 0.12917,0.11851 0.0877,0.0784 0.20273,0.18902 0.27029,0.25978 0.029,0.0302 0.0923,0.095 0.14133,0.14454 0.0487,0.0496 0.12151,0.12753 0.16122,0.17309 0.0398,0.0454 0.10375,0.11836 0.14272,0.162 0.11556,0.1298 0.33209,0.40571 0.42986,0.54765 0.0837,0.12156 0.20061,0.29845 0.24093,0.36434 0.17094,0.27883 0.32554,0.61636 0.41798,0.91406 0.0566,0.18229 0.0822,0.314 0.1035,0.53035 0.0202,0.20585 0.0191,0.3172 -0.004,0.49489 -0.0224,0.17095 -0.0459,0.26358 -0.10608,0.4217 -0.0615,0.16066 -0.1046,0.24266 -0.20705,0.39064 -0.11457,0.16611 -0.23665,0.30145 -0.38354,0.42688 -0.0759,0.0645 -0.253,0.19445 -0.33149,0.24289 -0.20422,0.12583 -0.48891,0.26085 -0.73636,0.34938 -0.31804,0.11378 -0.74084,0.21671 -1.14597,0.27894 -0.36917,0.0567 -0.87245,0.0982 -1.19656,0.0985 -0.0572,1.7e-4 -0.14156,10e-4 -0.1873,0.003 -0.1773,0.005 -0.34896,3e-5 -0.68716,-0.0179 -0.38695,-0.0203 -0.53165,-0.0311 -0.67878,-0.0489 -0.0418,-0.006 -0.13164,-0.0142 -0.19963,-0.021 -0.0681,-0.007 -0.20577,-0.024 -0.30549,-0.0381 -0.0999,-0.0142 -0.23778,-0.0339 -0.30645,-0.0433 -0.64631,-0.0884 -1.56638,-0.28654 -2.28604,-0.49227 -0.33599,-0.0962 -0.55724,-0.15936 -0.66136,-0.19311 -0.16929,-0.0525 -0.56009,-0.1844 -0.80335,-0.27218 l 6.1e-4,-0.002 c -0.24569,-0.0871 -0.74993,-0.28192 -0.99716,-0.38206 -0.19718,-0.0806 -0.59124,-0.24866 -0.744,-0.31919 -0.2064,-0.0934 -0.71264,-0.33994 -0.94563,-0.45957 -0.57847,-0.29673 -1.26117,-0.69535 -1.70276,-0.99438 -0.0606,-0.0419 -0.17918,-0.12119 -0.26295,-0.17724 -0.0838,-0.056 -0.19708,-0.13544 -0.25265,-0.17513 -0.055,-0.0412 -0.12897,-0.0934 -0.16349,-0.11703 -0.24509,-0.17103 -0.8517,-0.66503 -1.06065,-0.86329 -0.0332,-0.0319 -0.0953,-0.088 -0.13794,-0.12618 -0.1949,-0.17522 -0.44349,-0.43283 -0.70682,-0.7316 -0.12563,-0.14244 -0.32222,-0.39231 -0.4194,-0.53275 -0.20094,-0.29043 -0.31401,-0.47143 -0.40807,-0.65709 -0.0498,-0.0986 -0.15371,-0.33222 -0.19209,-0.43177 -0.0385,-0.0997 -0.10417,-0.31076 -0.11933,-0.38227 -0.0524,-0.24951 -0.0758,-0.49054 -0.0662,-0.68934 0.003,-0.0601 0.0269,-0.24867 0.0387,-0.30122 0.0402,-0.18301 0.11414,-0.37829 0.20703,-0.54151 0.0375,-0.0671 0.15224,-0.22542 0.22113,-0.30762 0.10282,-0.12264 0.24923,-0.25639 0.40511,-0.37036 0.0637,-0.0464 0.14046,-0.0998 0.17203,-0.11916 0.2876,-0.17745 0.66497,-0.34025 1.01789,-0.43949 0.40515,-0.1139 0.67919,-0.16853 1.12418,-0.22405 0.22152,-0.0276 0.25499,-0.0315 0.39305,-0.0393 0.0613,-0.004 0.14443,-0.009 0.18476,-0.0118 0.0951,-0.008 0.25601,-0.013 0.37217,-0.0129 0.0507,-4e-5 0.12918,-3.4e-4 0.17485,-0.002 0.17765,-0.005 0.34937,-5.8e-4 0.68744,0.0173 0.39635,0.0209 0.52823,0.0304 0.68875,0.0499 0.0471,0.006 0.13621,0.0149 0.19735,0.0208 0.0611,0.006 0.16452,0.0188 0.2302,0.0284 0.0656,0.009 0.20473,0.0283 0.30908,0.0428 0.41569,0.0574 0.86179,0.13939 1.323,0.24267 0.51864,0.11625 0.69105,0.16208 1.4908,0.39291 0.48896,0.14124 1.33037,0.44014 1.96536,0.70038 0.21293,0.0873 0.40228,0.16627 0.57761,0.24464 z m -1.33666,0.17112 c -0.16568,-0.0708 -0.33271,-0.12954 -0.50018,-0.17412 -0.23172,-0.0626 -0.30898,-0.078 -0.50871,-0.10151 -0.39864,-0.0469 -0.71095,-0.0351 -1.08202,0.0407 -0.32996,0.0674 -0.63854,0.18163 -0.94013,0.34748 -0.29772,0.16374 -0.48644,0.29951 -0.72213,0.51913 -0.24841,0.23139 -0.35658,0.36274 -0.58373,0.70814 -0.0788,0.11984 -0.10957,0.17503 -0.17504,0.30886 -0.15905,0.32877 -0.27109,0.68166 -0.31154,0.98393 -0.0555,0.41534 -0.0579,0.54464 -0.0221,0.92446 0.0221,0.23405 0.065,0.45272 0.13229,0.66782 0.11716,0.37446 0.26979,0.68361 0.50569,1.02447 0.0679,0.0981 0.28149,0.33862 0.39561,0.44558 0.1357,0.1272 0.40666,0.33876 0.53159,0.41454 0.13078,0.0796 0.36727,0.20282 0.48889,0.25514 0.17732,0.0765 0.20192,0.0852 0.36871,0.1381 0.1483,0.0473 0.40193,0.10803 0.561,0.13502 0.083,0.0141 0.38106,0.0364 0.50387,0.0376 0.21828,0.002 0.57617,-0.0376 0.75375,-0.0836 0.47538,-0.12313 0.83401,-0.2844 1.18868,-0.53512 0.27964,-0.19763 0.42608,-0.3323 0.70108,-0.64282 0.15818,-0.17873 0.35016,-0.47844 0.49158,-0.77233 0.0998,-0.20337 0.2266,-0.60044 0.2742,-0.85143 0.0551,-0.28978 0.0679,-0.66256 0.0341,-0.97713 -0.0302,-0.28153 -0.078,-0.49552 -0.172,-0.76658 -0.0499,-0.1439 -0.2239,-0.52301 -0.28067,-0.61156 -0.0246,-0.0382 -0.0639,-0.10279 -0.0873,-0.14316 -0.12982,-0.22259 -0.38956,-0.52381 -0.62649,-0.72619 -0.11313,-0.0964 -0.33781,-0.2614 -0.42976,-0.31662 -0.15928,-0.0947 -0.32358,-0.17789 -0.48918,-0.24882 z m -0.32613,0.5348 c 0.0966,0.0376 0.19016,0.0799 0.27844,0.1259 0.29762,0.15269 0.4643,0.27576 0.72687,0.53796 0.20931,0.2089 0.39207,0.48774 0.54012,0.82335 0.12039,0.27298 0.18883,0.53007 0.21773,0.82302 0.0344,0.34726 0.0149,0.62678 -0.0683,0.97619 -0.0296,0.12509 -0.20788,0.59306 -0.26969,0.71294 -0.12262,0.23365 -0.30177,0.47944 -0.48617,0.66954 -0.0836,0.0859 -0.28293,0.25304 -0.40943,0.34284 -0.0736,0.0523 -0.30941,0.18293 -0.42645,0.23607 -0.19574,0.0887 -0.4804,0.18089 -0.66023,0.21419 -0.41163,0.076 -0.76029,0.0603 -1.21939,-0.0549 -0.41034,-0.1031 -0.86619,-0.34163 -1.19124,-0.62302 -0.16252,-0.14059 -0.35572,-0.36812 -0.46845,-0.55126 -0.18303,-0.29703 -0.2778,-0.50355 -0.35934,-0.78634 -0.0526,-0.18254 -0.0693,-0.26923 -0.0882,-0.4516 -0.0339,-0.33078 -0.0122,-0.64415 0.0679,-0.98116 0.0272,-0.10873 0.20284,-0.587 0.25572,-0.68599 0.0872,-0.16732 0.18855,-0.32491 0.31797,-0.49337 0.13651,-0.17769 0.35333,-0.38024 0.58679,-0.54799 0.0776,-0.0557 0.30877,-0.18405 0.4344,-0.24152 0.21417,-0.0979 0.54334,-0.19848 0.75836,-0.23168 0.12318,-0.019 0.4413,-0.0303 0.58001,-0.0205 0.2782,0.0194 0.59264,0.0948 0.88214,0.20787 z m 0.74168,1.12195 c -0.0271,0.0194 -0.63603,0.51893 -0.9406,0.77172 l -0.41466,0.34381 0.0322,0.0434 c 0.07,0.097 0.11735,0.22995 0.12178,0.34078 0.003,0.0813 -0.003,0.13551 -0.026,0.21518 l 0.001,-4.6e-4 -0.0177,0.0623 0.8196,0.30559 0.81959,0.30557 0.037,-0.099 c 0.0651,-0.17326 0.0853,-0.27029 0.11352,-0.53888 0.0194,-0.18406 0.0178,-0.27679 -0.007,-0.50281 -0.0178,-0.16541 -0.0703,-0.3859 -0.12577,-0.52703 -0.0207,-0.0524 -0.0413,-0.10701 -0.0474,-0.12205 -0.0122,-0.0358 -0.14159,-0.27564 -0.1973,-0.36498 -0.0388,-0.0624 -0.16444,-0.23665 -0.1678,-0.23295 z m -2.16561,-0.80838 -0.10834,0.0243 c -0.2614,0.0587 -0.45092,0.13067 -0.71099,0.27114 -0.16828,0.0908 -0.40362,0.28252 -0.58237,0.47366 -0.16715,0.17858 -0.3343,0.44561 -0.41983,0.67536 l 0.002,6.2e-4 -0.039,0.10368 0.81957,0.30557 0.8196,0.30559 0.0266,-0.0585 c 0.0357,-0.075 0.0656,-0.11985 0.12143,-0.17927 0.0761,-0.0809 0.19896,-0.14993 0.3156,-0.17746 l 0.0518,-0.0123 -0.13493,-0.79331 c -0.0744,-0.43633 -0.14115,-0.82637 -0.14795,-0.86623 l -0.0124,-0.0727 z m 0.52421,2.03611 c -0.0327,-0.0176 -0.0681,-0.0298 -0.0998,-0.0354 -0.0741,-0.0138 -0.13033,-0.008 -0.19613,0.0215 -0.17089,0.076 -0.25537,0.29122 -0.17928,0.45786 0.023,0.0499 0.0901,0.12498 0.1366,0.15371 l -1.9e-4,4.9e-4 c 0.0623,0.0389 0.12248,0.0507 0.20504,0.0441 0.0662,-0.005 0.16491,-0.0491 0.20768,-0.0919 0.0732,-0.0732 0.11284,-0.18358 0.10287,-0.28826 -0.006,-0.0614 -0.0519,-0.16432 -0.0916,-0.20275 -0.0219,-0.0218 -0.0523,-0.0427 -0.0852,-0.0596 z m -0.0281,0.89143 -0.0446,0.007 c -0.0829,0.013 -0.22318,0.002 -0.30034,-0.0295 -0.0778,-0.0297 -0.19186,-0.10985 -0.24594,-0.17389 l -0.0293,-0.0349 -0.3536,0.29282 c -0.92419,0.76358 -0.99736,0.82591 -0.98769,0.8407 0.0165,0.028 0.18803,0.20496 0.2652,0.2736 0.20733,0.18423 0.32763,0.26024 0.63698,0.40824 l -1.8e-4,4.9e-4 c 0.0178,0.008 0.0829,0.0319 0.14574,0.0533 0.2888,0.0989 0.50946,0.13418 0.8077,0.13035 0.1032,-10e-4 0.34833,-0.0229 0.37921,-0.0332 0.0165,-0.005 0.002,-0.10044 -0.1966,-1.28255 l -0.0766,-0.4523 z"
             style="fill:#000000" />
          <path
             d="m 149.19662,765.32227 0.87464,-2.36213 1.00381,0.37169 q 0.37866,0.14021 0.52556,0.26796 0.14916,0.12668 0.19201,0.32759 0.0429,0.20094 -0.0347,0.41041 -0.0985,0.26582 -0.31919,0.382 -0.22012,0.11454 -0.5478,0.0445 0.12125,0.14755 0.1812,0.29245 0.0615,0.14548 0.13031,0.48431 l 0.11778,0.56762 -0.5704,-0.2112 -0.15449,-0.64168 q -0.0817,-0.34354 -0.12308,-0.4395 -0.0409,-0.0976 -0.10709,-0.15137 -0.0656,-0.0555 -0.22992,-0.11633 l -0.0967,-0.0358 -0.36513,0.98611 -0.47693,-0.1766 z m 0.98167,-1.18655 0.35287,0.13067 q 0.3432,0.12707 0.43933,0.12973 0.096,0.003 0.17079,-0.0504 0.0746,-0.0529 0.11395,-0.15934 0.0441,-0.11928 0.006,-0.21562 -0.0354,-0.0974 -0.14423,-0.15972 -0.0552,-0.029 -0.3452,-0.13655 l -0.3722,-0.13782 -0.22194,0.5994 z"
             style="font-style:normal;font-variant:normal;font-weight:bold;font-stretch:normal;font-size:medium;line-height:125%;font-family:Arial;-inkscape-font-specification:'Arial Bold';text-align:center;letter-spacing:0px;word-spacing:0px;text-anchor:middle;fill:#000000;fill-opacity:1;stroke:none;stroke-width:1px;stroke-linecap:butt;stroke-linejoin:miter;stroke-opacity:1"
             id="path28739"
             inkscape:connector-curvature="0" />
          <path
             d="m 152.35515,765.13964 -0.38345,-0.22627 q 0.16116,-0.22247 0.3745,-0.27906 0.21333,-0.0566 0.54688,0.0669 0.30291,0.11216 0.42438,0.23939 0.12197,0.12583 0.14044,0.25904 0.0205,0.13223 -0.0886,0.42709 l -0.20032,0.52676 q -0.0835,0.22562 -0.10245,0.34134 -0.0169,0.11472 -0.003,0.25921 l -0.44793,-0.16585 q -0.001,-0.0517 0.006,-0.14978 0.004,-0.0443 0.004,-0.0592 -0.15781,0.0698 -0.31079,0.0773 -0.15306,0.007 -0.30286,-0.048 -0.26424,-0.0978 -0.36419,-0.29799 -0.0983,-0.19955 -0.0172,-0.41862 0.0537,-0.14502 0.16473,-0.23216 0.11164,-0.0887 0.25778,-0.10241 0.1483,-0.0146 0.40031,0.0273 0.3395,0.0579 0.48102,0.0518 l 0.0162,-0.0453 q 0.0483,-0.13045 0.004,-0.20916 -0.0435,-0.0802 -0.22243,-0.14648 -0.12081,-0.0447 -0.20639,-0.0215 -0.085,0.0217 -0.17098,0.1254 z m 0.46979,0.59169 q -0.0978,-0.003 -0.30117,-0.0327 -0.20345,-0.0295 -0.27574,-0.0125 -0.11184,0.0301 -0.14762,0.12674 -0.0352,0.095 0.01,0.19059 0.0453,0.0956 0.15482,0.13613 0.12243,0.0453 0.26349,0.006 0.10482,-0.0307 0.16343,-0.10995 0.0392,-0.0514 0.0996,-0.21412 l 0.0334,-0.0903 z"
             style="font-style:normal;font-variant:normal;font-weight:bold;font-stretch:normal;font-size:medium;line-height:125%;font-family:Arial;-inkscape-font-specification:'Arial Bold';text-align:center;letter-spacing:0px;word-spacing:0px;text-anchor:middle;fill:#000000;fill-opacity:1;stroke:none;stroke-width:1px;stroke-linecap:butt;stroke-linejoin:miter;stroke-opacity:1"
             id="path28741"
             inkscape:connector-curvature="0" />
          <path
             d="m 154.98269,767.46472 -0.42053,-0.15572 0.093,-0.2514 q -0.15899,0.10794 -0.32928,0.12726 -0.16805,0.0185 -0.31307,-0.0352 -0.29488,-0.10917 -0.41825,-0.42421 -0.12116,-0.31602 0.0363,-0.74141 0.16112,-0.43503 0.44923,-0.58485 0.28875,-0.15142 0.60134,-0.0357 0.2868,0.10622 0.40797,0.42224 l 0.31502,-0.85076 0.45277,0.16765 -0.87464,2.36212 z m -0.87792,-1.34012 q -0.10137,0.27395 -0.0711,0.42441 0.044,0.21783 0.24051,0.2906 0.1563,0.0578 0.31479,-0.0337 0.15913,-0.0931 0.25699,-0.35739 0.10911,-0.29489 0.0505,-0.46316 -0.0581,-0.16983 -0.22401,-0.23128 -0.16113,-0.0596 -0.31842,0.0287 -0.15501,0.0873 -0.24928,0.34194 z"
             style="font-style:normal;font-weight:normal;font-size:medium;line-height:125%;font-family:Sans;text-align:center;letter-spacing:0px;word-spacing:0px;text-anchor:middle;fill:#000000;fill-opacity:1;stroke:none;stroke-width:1px;stroke-linecap:butt;stroke-linejoin:miter;stroke-opacity:1"
             id="path28743"
             inkscape:connector-curvature="0" />
          <path
             d="m 156.15015,765.68738 0.15516,-0.41891 0.45276,0.16764 -0.15515,0.41891 z m -0.71953,1.94319 0.63362,-1.71117 0.45276,0.16765 -0.63361,1.71117 -0.45277,-0.16764 z"
             style="font-style:normal;font-weight:normal;font-size:medium;line-height:125%;font-family:Sans;text-align:center;letter-spacing:0px;word-spacing:0px;text-anchor:middle;fill:#000000;fill-opacity:1;stroke:none;stroke-width:1px;stroke-linecap:butt;stroke-linejoin:miter;stroke-opacity:1"
             id="path28745"
             inkscape:connector-curvature="0" />
          <path
             d="m 157.12451,766.90561 -0.38344,-0.22625 q 0.16117,-0.22248 0.3745,-0.27907 0.21334,-0.0566 0.54687,0.0669 0.30292,0.11216 0.4244,0.2394 0.12196,0.12583 0.14044,0.25904 0.0208,0.13233 -0.0885,0.42713 l -0.20032,0.52676 q -0.0835,0.22562 -0.10246,0.34135 -0.0169,0.11471 -0.003,0.2592 l -0.44794,-0.16585 q -0.001,-0.0517 0.006,-0.14978 0.004,-0.0443 0.004,-0.0592 -0.15781,0.0698 -0.31079,0.0773 -0.15304,0.007 -0.30285,-0.048 -0.26424,-0.0979 -0.36419,-0.29799 -0.0983,-0.19955 -0.0172,-0.41862 0.0537,-0.14503 0.16472,-0.23216 0.11165,-0.0887 0.25779,-0.10241 0.14831,-0.0146 0.40031,0.0273 0.33949,0.0579 0.48102,0.0518 l 0.0162,-0.0453 q 0.0483,-0.13046 0.004,-0.20912 -0.0436,-0.0803 -0.22242,-0.14647 -0.12081,-0.0447 -0.20641,-0.0215 -0.0849,0.0217 -0.17099,0.12541 z m 0.46981,0.59171 q -0.0978,-0.003 -0.30118,-0.0327 -0.20344,-0.0295 -0.27574,-0.0125 -0.11184,0.0301 -0.14761,0.12674 -0.0351,0.0951 0.01,0.1906 0.0452,0.0955 0.15479,0.1361 0.12242,0.0453 0.2635,0.006 0.10482,-0.0308 0.16342,-0.10996 0.0392,-0.0514 0.0995,-0.21414 l 0.0334,-0.0903 z"
             style="font-style:normal;font-weight:normal;font-size:medium;line-height:125%;font-family:Sans;text-align:center;letter-spacing:0px;word-spacing:0px;text-anchor:middle;fill:#000000;fill-opacity:1;stroke:none;stroke-width:1px;stroke-linecap:butt;stroke-linejoin:miter;stroke-opacity:1"
             id="path28747"
             inkscape:connector-curvature="0" />
          <path
             d="m 159.60098,767.22897 -0.13369,0.3609 -0.30934,-0.11456 -0.25534,0.68963 q -0.0775,0.20951 -0.083,0.24775 -0.003,0.0373 0.0194,0.0713 0.0239,0.0345 0.0692,0.0512 0.0628,0.0232 0.19818,0.0239 l -0.0914,0.36558 q -0.18301,0.009 -0.38279,-0.0647 -0.12242,-0.0453 -0.20583,-0.12204 -0.0827,-0.0782 -0.10562,-0.16006 -0.0207,-0.0828 0.003,-0.20053 0.0155,-0.084 0.10433,-0.32415 l 0.27621,-0.74604 -0.20785,-0.077 0.13369,-0.36089 0.20785,0.077 0.12582,-0.34002 0.55225,-0.096 -0.22375,0.60424 0.30935,0.11456 z"
             style="font-style:normal;font-weight:normal;font-size:medium;line-height:125%;font-family:Sans;text-align:center;letter-spacing:0px;word-spacing:0px;text-anchor:middle;fill:#000000;fill-opacity:1;stroke:none;stroke-width:1px;stroke-linecap:butt;stroke-linejoin:miter;stroke-opacity:1"
             id="path28749"
             inkscape:connector-curvature="0" />
          <path
             d="m 160.00433,767.11449 0.15516,-0.41891 0.45277,0.16764 -0.15516,0.41892 -0.45276,-0.16764 z m -0.71952,1.9432 0.6336,-1.71118 0.45276,0.16764 -0.6336,1.71118 z"
             style="font-style:normal;font-weight:normal;font-size:medium;line-height:125%;font-family:Sans;text-align:center;letter-spacing:0px;word-spacing:0px;text-anchor:middle;fill:#000000;fill-opacity:1;stroke:none;stroke-width:1px;stroke-linecap:butt;stroke-linejoin:miter;stroke-opacity:1"
             id="path28751"
             inkscape:connector-curvature="0" />
          <path
             d="m 160.42102,768.47802 q 0.0835,-0.22562 0.27277,-0.39553 0.18931,-0.16992 0.43354,-0.20591 0.24577,-0.0354 0.49713,0.0577 0.38832,0.14378 0.54278,0.48863 0.15506,0.34323 0.0125,0.72832 -0.14383,0.3883 -0.49,0.55145 -0.34402,0.1621 -0.72429,0.0213 -0.23523,-0.0871 -0.41014,-0.27285 -0.17328,-0.18513 -0.20873,-0.4309 -0.0348,-0.24739 0.0744,-0.54225 z m 0.45508,0.19604 q -0.0942,0.25461 -0.0237,0.43463 0.0707,0.18008 0.24797,0.24573 0.17725,0.0656 0.34659,-0.0256 0.17089,-0.0906 0.26641,-0.34838 0.093,-0.25139 0.0225,-0.43143 -0.0691,-0.17952 -0.24636,-0.24513 -0.17724,-0.0656 -0.3482,0.025 -0.17089,0.0906 -0.26523,0.34517 z"
             style="font-style:normal;font-weight:normal;font-size:medium;line-height:125%;font-family:Sans;text-align:center;letter-spacing:0px;word-spacing:0px;text-anchor:middle;fill:#000000;fill-opacity:1;stroke:none;stroke-width:1px;stroke-linecap:butt;stroke-linejoin:miter;stroke-opacity:1"
             id="path28753"
             inkscape:connector-curvature="0" />
          <path
             d="m 163.77381,770.71986 -0.45276,-0.16765 0.32337,-0.8733 q 0.10257,-0.27718 0.10352,-0.36842 0.001,-0.0929 -0.0479,-0.16239 -0.0476,-0.0689 -0.13959,-0.10295 -0.11756,-0.0435 -0.23492,-0.0138 -0.11736,0.03 -0.19215,0.12309 -0.0732,0.0938 -0.17948,0.38059 l -0.28695,0.77503 -0.45276,-0.16764 0.6336,-1.71118 0.42055,0.15572 -0.093,0.25138 q 0.33137,-0.20709 0.67134,-0.0812 0.14992,0.0555 0.25367,0.1561 0.10433,0.0991 0.13621,0.20609 0.0335,0.1077 0.0182,0.22294 -0.0136,0.11592 -0.087,0.3141 l -0.39377,1.06344 z"
             style="font-style:normal;font-weight:normal;font-size:medium;line-height:125%;font-family:Sans;text-align:center;letter-spacing:0px;word-spacing:0px;text-anchor:middle;fill:#000000;fill-opacity:1;stroke:none;stroke-width:1px;stroke-linecap:butt;stroke-linejoin:miter;stroke-opacity:1"
             id="path28755"
             inkscape:connector-curvature="0" />
          <path
             d="m 147.73411,767.52535 0.42216,0.15632 -0.093,0.25139 q 0.12991,-0.0985 0.29991,-0.12715 0.17011,-0.0287 0.34083,0.0345 0.29809,0.11037 0.41942,0.42098 0.12136,0.3106 -0.0331,0.72793 -0.15874,0.42857 -0.4565,0.58949 -0.29716,0.15929 -0.59525,0.0489 -0.14178,-0.0525 -0.23691,-0.15187 -0.0934,-0.0987 -0.17011,-0.28285 l -0.31919,0.86202 -0.45276,-0.16763 0.87464,-2.36214 z m 0.14187,0.99245 q -0.10673,0.28845 -0.0438,0.46931 0.0636,0.17937 0.22802,0.24026 0.1579,0.0584 0.30918,-0.0284 0.15176,-0.0885 0.25866,-0.3769 0.0996,-0.26913 0.0401,-0.43957 -0.0596,-0.17041 -0.21918,-0.22947 -0.16595,-0.0614 -0.32325,0.0269 -0.15672,0.0868 -0.24982,0.33807 z"
             style="font-style:normal;font-weight:normal;font-size:medium;line-height:125%;font-family:Sans;text-align:center;letter-spacing:0px;word-spacing:0px;text-anchor:middle;fill:#000000;fill-opacity:1;stroke:none;stroke-width:1px;stroke-linecap:butt;stroke-linejoin:miter;stroke-opacity:1"
             id="path28757"
             inkscape:connector-curvature="0" />
          <path
             d="m 149.56414,770.14875 -0.45277,-0.16765 0.63361,-1.71118 0.42054,0.15573 -0.09,0.24334 q 0.17175,-0.13245 0.27747,-0.1556 0.10732,-0.0225 0.21682,0.0183 0.1547,0.0573 0.26646,0.19577 l -0.28639,0.34284 q -0.0869,-0.11652 -0.18521,-0.15293 -0.0951,-0.0352 -0.18084,-0.006 -0.0851,0.0271 -0.17446,0.14978 -0.0878,0.12331 -0.24951,0.55986 l -0.19571,0.52849 z"
             style="font-style:normal;font-weight:normal;font-size:medium;line-height:125%;font-family:Sans;text-align:center;letter-spacing:0px;word-spacing:0px;text-anchor:middle;fill:#000000;fill-opacity:1;stroke:none;stroke-width:1px;stroke-linecap:butt;stroke-linejoin:miter;stroke-opacity:1"
             id="path28759"
             inkscape:connector-curvature="0" />
          <path
             d="m 150.63431,769.54463 q 0.0835,-0.2256 0.27278,-0.39553 0.18929,-0.16991 0.43351,-0.2059 0.24578,-0.0354 0.49714,0.0577 0.38831,0.14377 0.54278,0.48863 0.15507,0.34326 0.0125,0.72834 -0.14383,0.38828 -0.49001,0.55143 -0.34401,0.16212 -0.72428,0.0213 -0.23524,-0.0871 -0.41014,-0.27284 -0.1733,-0.18513 -0.20873,-0.43091 -0.0348,-0.24738 0.0744,-0.54225 z m 0.45506,0.19604 q -0.0942,0.25461 -0.0237,0.43465 0.0707,0.18008 0.24796,0.24572 0.17725,0.0656 0.34659,-0.0256 0.17089,-0.0906 0.26631,-0.34846 0.093,-0.25138 0.0225,-0.43141 -0.0691,-0.17951 -0.24635,-0.24512 -0.17725,-0.0656 -0.3482,0.025 -0.1709,0.0906 -0.26523,0.34516 z"
             style="font-style:normal;font-weight:normal;font-size:medium;line-height:125%;font-family:Sans;text-align:center;letter-spacing:0px;word-spacing:0px;text-anchor:middle;fill:#000000;fill-opacity:1;stroke:none;stroke-width:1px;stroke-linecap:butt;stroke-linejoin:miter;stroke-opacity:1"
             id="path28761"
             inkscape:connector-curvature="0" />
          <path
             d="m 153.8489,769.78951 -0.13358,0.36097 -0.30937,-0.11458 -0.25534,0.68964 q -0.0775,0.20948 -0.083,0.24774 -0.003,0.0373 0.0194,0.0713 0.0239,0.0345 0.0692,0.0512 0.0628,0.0232 0.19819,0.0239 l -0.0914,0.36559 q -0.18298,0.009 -0.3828,-0.0647 -0.12242,-0.0453 -0.20582,-0.12202 -0.0827,-0.0782 -0.10561,-0.16008 -0.0207,-0.0828 0.003,-0.20052 0.0155,-0.084 0.10432,-0.32414 l 0.27622,-0.74603 -0.20786,-0.077 0.1337,-0.3609 0.20785,0.077 0.12594,-0.33995 0.55223,-0.096 -0.22373,0.60422 0.30936,0.11457 z"
             style="font-style:normal;font-weight:normal;font-size:medium;line-height:125%;font-family:Sans;text-align:center;letter-spacing:0px;word-spacing:0px;text-anchor:middle;fill:#000000;fill-opacity:1;stroke:none;stroke-width:1px;stroke-linecap:butt;stroke-linejoin:miter;stroke-opacity:1"
             id="path28763"
             inkscape:connector-curvature="0" />
          <path
             d="m 154.72529,771.44052 0.42312,0.24278 q -0.17889,0.21592 -0.41573,0.27663 -0.23464,0.0597 -0.51662,-0.0447 -0.44632,-0.16526 -0.55262,-0.53624 -0.0827,-0.2963 0.0492,-0.65239 0.15755,-0.42535 0.46878,-0.58312 0.31184,-0.15936 0.65181,-0.0335 0.38187,0.1414 0.50894,0.47611 0.12767,0.3331 -0.0747,0.84996 l -1.13434,-0.42002 q -0.07,0.20309 -0.007,0.35478 0.0636,0.14991 0.2199,0.20778 0.10633,0.0393 0.20029,0.008 0.094,-0.0311 0.17886,-0.14631 z m 0.19522,-0.44806 q 0.0681,-0.1983 0.009,-0.33565 -0.0585,-0.13896 -0.19705,-0.19025 -0.14821,-0.0549 -0.28486,0.0172 -0.13663,0.0721 -0.2036,0.25807 l 0.67674,0.25058 z"
             style="font-style:normal;font-weight:normal;font-size:medium;line-height:125%;font-family:Sans;text-align:center;letter-spacing:0px;word-spacing:0px;text-anchor:middle;fill:#000000;fill-opacity:1;stroke:none;stroke-width:1px;stroke-linecap:butt;stroke-linejoin:miter;stroke-opacity:1"
             id="path28765"
             inkscape:connector-curvature="0" />
          <path
             d="m 157.30787,771.64558 -0.47617,-0.0846 q 0.027,-0.142 -0.0286,-0.23959 -0.0539,-0.097 -0.18117,-0.1441 -0.16916,-0.0627 -0.31422,0.0173 -0.14289,0.079 -0.24439,0.35289 -0.11272,0.30455 -0.0578,0.46779 0.0566,0.16385 0.22899,0.22771 0.1289,0.0478 0.23792,0.006 0.10967,-0.0438 0.20968,-0.21002 l 0.41664,0.24042 q -0.18263,0.2805 -0.43708,0.36399 -0.25446,0.0835 -0.58475,-0.039 -0.37543,-0.13902 -0.51169,-0.4588 -0.13465,-0.3192 0.0205,-0.73812 0.15695,-0.42375 0.468,-0.57606 0.31169,-0.15394 0.69356,-0.0125 0.31257,0.11577 0.44615,0.3191 0.1358,0.20228 0.11433,0.50771 z"
             style="font-style:normal;font-weight:normal;font-size:medium;line-height:125%;font-family:Sans;text-align:center;letter-spacing:0px;word-spacing:0px;text-anchor:middle;fill:#000000;fill-opacity:1;stroke:none;stroke-width:1px;stroke-linecap:butt;stroke-linejoin:miter;stroke-opacity:1"
             id="path28767"
             inkscape:connector-curvature="0" />
          <path
             d="m 158.6247,771.55787 -0.13369,0.36091 -0.30936,-0.11458 -0.25534,0.68964 q -0.0775,0.20949 -0.083,0.24775 -0.003,0.0373 0.0194,0.0713 0.0239,0.0345 0.0692,0.0512 0.0628,0.0232 0.19821,0.0239 l -0.0914,0.36559 q -0.183,0.009 -0.38279,-0.0647 -0.12243,-0.0453 -0.20584,-0.12203 -0.0827,-0.0782 -0.10561,-0.16006 -0.0207,-0.0828 0.003,-0.20052 0.0155,-0.084 0.10432,-0.32414 l 0.27622,-0.74604 -0.20787,-0.077 0.13369,-0.3609 0.20788,0.077 0.12582,-0.34002 0.55221,-0.096 -0.22373,0.60422 0.30937,0.11457 z"
             style="font-style:normal;font-variant:normal;font-weight:bold;font-stretch:normal;font-size:medium;line-height:125%;font-family:Arial;-inkscape-font-specification:'Arial Bold';text-align:center;letter-spacing:0px;word-spacing:0px;text-anchor:middle;fill:#000000;fill-opacity:1;stroke:none;stroke-width:1px;stroke-linecap:butt;stroke-linejoin:miter;stroke-opacity:1"
             id="path28769"
             inkscape:connector-curvature="0" />
          <path
             d="m 159.02804,771.44339 0.15517,-0.41892 0.45276,0.16765 -0.15516,0.41891 -0.45276,-0.16764 z m -0.71952,1.94319 0.63361,-1.71117 0.45277,0.16764 -0.63362,1.71117 z"
             style="font-style:normal;font-variant:normal;font-weight:bold;font-stretch:normal;font-size:medium;line-height:125%;font-family:Arial;-inkscape-font-specification:'Arial Bold';text-align:center;letter-spacing:0px;word-spacing:0px;text-anchor:middle;fill:#000000;fill-opacity:1;stroke:none;stroke-width:1px;stroke-linecap:butt;stroke-linejoin:miter;stroke-opacity:1"
             id="path28771"
             inkscape:connector-curvature="0" />
          <path
             d="m 159.44475,772.80692 q 0.0835,-0.2256 0.27278,-0.39552 0.18929,-0.16991 0.43351,-0.20591 0.24579,-0.0353 0.49714,0.0577 0.38832,0.14378 0.54278,0.48864 0.15508,0.34325 0.0125,0.72833 -0.14382,0.38829 -0.49002,0.55143 -0.344,0.16212 -0.72426,0.0213 -0.23524,-0.0871 -0.41016,-0.27285 -0.1733,-0.18513 -0.20871,-0.4309 -0.0348,-0.24739 0.0744,-0.54226 z m 0.45508,0.19605 q -0.0942,0.25461 -0.0237,0.43465 0.0707,0.18007 0.24796,0.24572 0.17725,0.0656 0.3466,-0.0256 0.17089,-0.0906 0.26642,-0.34839 0.093,-0.2514 0.0225,-0.43143 -0.0691,-0.1795 -0.24635,-0.24512 -0.17725,-0.0656 -0.34821,0.025 -0.1709,0.0906 -0.2651,0.34523 z"
             style="font-style:normal;font-variant:normal;font-weight:bold;font-stretch:normal;font-size:medium;line-height:125%;font-family:Arial;-inkscape-font-specification:'Arial Bold';text-align:center;letter-spacing:0px;word-spacing:0px;text-anchor:middle;fill:#000000;fill-opacity:1;stroke:none;stroke-width:1px;stroke-linecap:butt;stroke-linejoin:miter;stroke-opacity:1"
             id="path28773"
             inkscape:connector-curvature="0" />
          <path
             d="m 162.79752,775.04875 -0.45276,-0.16764 0.32336,-0.87331 q 0.10257,-0.27716 0.10352,-0.3684 0.001,-0.0929 -0.0479,-0.16239 -0.0478,-0.0689 -0.13961,-0.10295 -0.11756,-0.0435 -0.23496,-0.0137 -0.11739,0.0297 -0.19214,0.12307 -0.0732,0.0938 -0.17948,0.38059 l -0.28694,0.77503 -0.45278,-0.16764 0.63361,-1.71118 0.42055,0.15573 -0.093,0.25139 q 0.33136,-0.20712 0.67134,-0.0812 0.14992,0.0555 0.25367,0.1561 0.10432,0.0991 0.13617,0.20625 0.0335,0.1077 0.0182,0.22294 -0.0136,0.11592 -0.087,0.31408 l -0.39377,1.06343 z"
             style="font-style:normal;font-variant:normal;font-weight:bold;font-stretch:normal;font-size:medium;line-height:125%;font-family:Arial;-inkscape-font-specification:'Arial Bold';text-align:center;letter-spacing:0px;word-spacing:0px;text-anchor:middle;fill:#000000;fill-opacity:1;stroke:none;stroke-width:1px;stroke-linecap:butt;stroke-linejoin:miter;stroke-opacity:1"
             id="path28775"
             inkscape:connector-curvature="0" />
          <path
             d="m 151.60715,775.23774 -0.42243,-0.16218 0.0969,-0.25249 q -0.16175,0.10689 -0.33376,0.12443 -0.16977,0.0165 -0.31543,-0.0394 -0.2962,-0.11371 -0.41688,-0.43303 -0.11845,-0.32032 0.0456,-0.74761 0.16777,-0.437 0.46032,-0.58468 0.29316,-0.1493 0.60716,-0.0287 0.28809,0.1106 0.40654,0.43092 l 0.32808,-0.85458 0.45481,0.1746 -0.91093,2.37276 z m -0.86966,-1.36269 q -0.10563,0.27515 -0.0768,0.42736 0.0417,0.22029 0.23917,0.2961 0.157,0.0603 0.31801,-0.0302 0.16163,-0.0921 0.26354,-0.35753 0.11371,-0.29619 0.0566,-0.46668 -0.0565,-0.17211 -0.2232,-0.23611 -0.16185,-0.0621 -0.32162,0.0251 -0.15753,0.0862 -0.25571,0.34196 z"
             style="font-style:normal;font-variant:normal;font-weight:bold;font-stretch:normal;font-size:medium;line-height:125%;font-family:Arial;-inkscape-font-specification:'Arial Bold';letter-spacing:0px;word-spacing:0px;fill:#000000;fill-opacity:1;stroke:none;stroke-width:1px;stroke-linecap:butt;stroke-linejoin:miter;stroke-opacity:1"
             id="path9155"
             inkscape:connector-curvature="0" />
          <path
             d="m 153.26251,775.24556 0.42398,0.25005 q -0.18309,0.2157 -0.42278,0.2741 -0.23746,0.0574 -0.5207,-0.0513 -0.44834,-0.17212 -0.55113,-0.54771 -0.0798,-0.29993 0.0575,-0.65762 0.16404,-0.42729 0.47998,-0.5827 0.31656,-0.15703 0.65807,-0.0259 0.38358,0.14726 0.50777,0.4865 0.1248,0.33761 -0.0856,0.85667 l -1.13944,-0.43745 q -0.0728,0.20418 -0.0111,0.35787 0.0623,0.15207 0.21933,0.21234 0.10682,0.041 0.20202,0.0107 0.0952,-0.0303 0.18214,-0.1455 z m 0.20238,-0.44972 q 0.071,-0.19932 0.013,-0.33857 -0.0573,-0.14087 -0.19653,-0.1943 -0.14891,-0.0572 -0.28765,0.014 -0.13874,0.0712 -0.20858,0.25791 l 0.67978,0.26097 z"
             style="font-style:normal;font-variant:normal;font-weight:bold;font-stretch:normal;font-size:medium;line-height:125%;font-family:Arial;-inkscape-font-specification:'Arial Bold';letter-spacing:0px;word-spacing:0px;fill:#000000;fill-opacity:1;stroke:none;stroke-width:1px;stroke-linecap:butt;stroke-linejoin:miter;stroke-opacity:1"
             id="path9157"
             inkscape:connector-curvature="0" />
          <path
             d="m 154.54916,774.39499 0.42405,0.1628 -0.0969,0.2525 q 0.13225,-0.0978 0.30413,-0.12467 0.17188,-0.0269 0.34345,0.039 0.29942,0.11496 0.41811,0.4298 0.11869,0.31484 -0.0422,0.73404 -0.16529,0.43053 -0.46765,0.58929 -0.30176,0.15714 -0.60118,0.0422 -0.14243,-0.0547 -0.23722,-0.15606 -0.0932,-0.10077 -0.16821,-0.28744 l -0.33243,0.86591 -0.45481,-0.1746 0.91093,-2.37276 z m 0.13118,1.00305 q -0.11122,0.28971 -0.0497,0.47303 0.0621,0.18169 0.22719,0.24507 0.15861,0.0609 0.31228,-0.025 0.15429,-0.0875 0.26552,-0.37719 0.10377,-0.27029 0.0457,-0.44302 -0.0581,-0.17273 -0.21834,-0.23425 -0.16671,-0.064 -0.32648,0.0232 -0.15915,0.0856 -0.25609,0.3381 z"
             style="font-style:normal;font-variant:normal;font-weight:bold;font-stretch:normal;font-size:medium;line-height:125%;font-family:Arial;-inkscape-font-specification:'Arial Bold';letter-spacing:0px;word-spacing:0px;fill:#000000;fill-opacity:1;stroke:none;stroke-width:1px;stroke-linecap:butt;stroke-linejoin:miter;stroke-opacity:1"
             id="path9159"
             inkscape:connector-curvature="0" />
          <path
             d="m 157.37672,775.48053 -0.13919,0.36255 -0.31075,-0.11931 -0.26595,0.69273 q -0.0808,0.21041 -0.0864,0.24912 -0.003,0.0377 0.0187,0.0722 0.0236,0.0351 0.069,0.0525 0.0631,0.0242 0.19967,0.0265 l -0.0966,0.36775 q -0.18471,0.007 -0.38541,-0.07 -0.12301,-0.0472 -0.20619,-0.12561 -0.0826,-0.08 -0.10466,-0.16274 -0.0199,-0.0838 0.005,-0.20228 0.0159,-0.0849 0.10845,-0.32606 l 0.2877,-0.74938 -0.20879,-0.0802 0.13919,-0.36255 0.20879,0.0802 0.1311,-0.3415 0.55833,-0.0902 -0.23301,0.60694 0.31075,0.1193 z"
             style="font-style:normal;font-variant:normal;font-weight:bold;font-stretch:normal;font-size:medium;line-height:125%;font-family:Arial;-inkscape-font-specification:'Arial Bold';letter-spacing:0px;word-spacing:0px;fill:#000000;fill-opacity:1;stroke:none;stroke-width:1px;stroke-linecap:butt;stroke-linejoin:miter;stroke-opacity:1"
             id="path9161"
             inkscape:connector-curvature="0" />
          <path
             d="m 157.03567,777.32181 0.17461,-0.45481 0.4548,0.17461 -0.17461,0.4548 z"
             style="font-style:normal;font-variant:normal;font-weight:bold;font-stretch:normal;font-size:medium;line-height:125%;font-family:Arial;-inkscape-font-specification:'Arial Bold';letter-spacing:0px;word-spacing:0px;fill:#000000;fill-opacity:1;stroke:none;stroke-width:1px;stroke-linecap:butt;stroke-linejoin:miter;stroke-opacity:1"
             id="path9163"
             inkscape:connector-curvature="0" />
          <rect
             ry="4.8054576"
             rx="4.90201"
             y="646.31537"
             x="409.54462"
             height="24.253183"
             width="23.835346"
             id="rect9165"
             style="opacity:1;fill:url(#linearGradient9173);fill-opacity:1;stroke:#787878;stroke-width:0.14786239;stroke-linecap:round;stroke-miterlimit:4;stroke-dasharray:none;stroke-dashoffset:0;stroke-opacity:1"
             transform="rotate(21.002367)" />
        </g>
      </g>
      <g
         id="g14285"
         style="font-style:normal;font-variant:normal;font-weight:bold;font-stretch:normal;font-size:3px;line-height:125%;font-family:Arial;-inkscape-font-specification:'Arial Bold';text-align:start;letter-spacing:0px;word-spacing:0px;writing-mode:lr-tb;text-anchor:start;fill:#000000;fill-opacity:1;stroke:none"
         transform="translate(625.02539,-17.123983)" />
    </g>
  </g>
</svg>
