<?xml version="1.0" encoding="UTF-8" standalone="no"?>
<!-- Created with Inkscape (http://www.inkscape.org/) -->
<svg xmlns:inkscape="http://www.inkscape.org/namespaces/inkscape" xmlns:rdf="http://www.w3.org/1999/02/22-rdf-syntax-ns#" xmlns="http://www.w3.org/2000/svg" xmlns:sodipodi="http://sodipodi.sourceforge.net/DTD/sodipodi-0.dtd" xmlns:cc="http://creativecommons.org/ns#" xmlns:xlink="http://www.w3.org/1999/xlink" xmlns:dc="http://purl.org/dc/elements/1.1/" xmlns:svg="http://www.w3.org/2000/svg" xmlns:ns1="http://sozi.baierouge.fr" id="svg2" sodipodi:docname="canteen.svg" viewBox="0 0 234.39 368.4" version="1.1" inkscape:version="0.48.1 r9760">
  <title id="title5008">canteen</title>
  <defs id="defs4">
    <linearGradient id="linearGradient3971">
      <stop id="stop3973" style="stop-color:#216778;stop-opacity:0" offset="0"/>
      <stop id="stop3977" style="stop-color:#216778" offset=".5"/>
      <stop id="stop3975" style="stop-color:#216778;stop-opacity:0" offset="1"/>
    </linearGradient>
    <linearGradient id="linearGradient3914">
      <stop id="stop3916" style="stop-color:#9bcbc1" offset="0"/>
      <stop id="stop3918" style="stop-color:#87decd;stop-opacity:0" offset="1"/>
    </linearGradient>
    <linearGradient id="linearGradient3901">
      <stop id="stop3903" style="stop-color:#004455" offset="0"/>
      <stop id="stop3905" style="stop-color:#004455;stop-opacity:0" offset="1"/>
    </linearGradient>
    <linearGradient id="linearGradient3116">
      <stop id="stop3118" style="stop-color:#64a5a8;stop-opacity:0" offset="0"/>
      <stop id="stop3126" style="stop-color:#64a5a8;stop-opacity:.58824" offset=".36807"/>
      <stop id="stop3124" style="stop-color:#64a5a8;stop-opacity:.58824" offset=".68248"/>
      <stop id="stop3120" style="stop-color:#64a5a8;stop-opacity:0" offset="1"/>
    </linearGradient>
    <linearGradient id="linearGradient3082" y2="145.11" gradientUnits="userSpaceOnUse" x2="314.18" y1="135.05" x1="317.34" inkscape:collect="always">
      <stop id="stop3078" style="stop-color:#bcdcd5" offset="0"/>
      <stop id="stop3080" style="stop-color:#5fd3bc;stop-opacity:0" offset="1"/>
    </linearGradient>
    <linearGradient id="linearGradient3096" y2="257.7" gradientUnits="userSpaceOnUse" x2="360.2" y1="219.03" x1="362.04" inkscape:collect="always">
      <stop id="stop3092" style="stop-color:#bcdcd5" offset="0"/>
      <stop id="stop3094" style="stop-color:#afe9dd;stop-opacity:0" offset="1"/>
    </linearGradient>
    <linearGradient id="linearGradient3122" y2="176.7" xlink:href="#linearGradient3116" gradientUnits="userSpaceOnUse" x2="258.11" y1="176.6" x1="312.58" inkscape:collect="always"/>
    <linearGradient id="linearGradient3907" y2="464.62" xlink:href="#linearGradient3901" gradientUnits="userSpaceOnUse" x2="262.3" y1="494.24" x1="251.39" inkscape:collect="always"/>
    <radialGradient id="radialGradient3922" xlink:href="#linearGradient3914" gradientUnits="userSpaceOnUse" cy="203.38" cx="229.57" gradientTransform="matrix(.065018 .63296 -.95402 .098001 421.62 73.023)" r="117.2" inkscape:collect="always"/>
    <linearGradient id="linearGradient3940" y2="461.87" xlink:href="#linearGradient3901" gradientUnits="userSpaceOnUse" x2="292.06" y1="484.87" x1="302.1" inkscape:collect="always"/>
    <linearGradient id="linearGradient3948" y2="370.7" xlink:href="#linearGradient3116" gradientUnits="userSpaceOnUse" x2="227.22" y1="369.14" x1="292.7" inkscape:collect="always"/>
    <linearGradient id="linearGradient3969" y2="172.95" xlink:href="#linearGradient3971" gradientUnits="userSpaceOnUse" x2="289.79" y1="172.67" x1="301.36" inkscape:collect="always"/>
    <linearGradient id="linearGradient3991" y2="172.95" xlink:href="#linearGradient3971" gradientUnits="userSpaceOnUse" x2="289.79" gradientTransform="translate(-31.142 -1.5866)" y1="172.67" x1="301.36" inkscape:collect="always"/>
    <linearGradient id="linearGradient4004" y2="204.48" xlink:href="#linearGradient3116" gradientUnits="userSpaceOnUse" x2="230.65" y1="226.69" x1="221.48" inkscape:collect="always"/>
    <radialGradient id="radialGradient4022" gradientUnits="userSpaceOnUse" cy="122.99" cx="270.49" gradientTransform="matrix(1.5088 -.052532 .010187 .29265 -137.64 113.41)" r="41.891" inkscape:collect="always">
      <stop id="stop3105" style="stop-color:#bcdcd5" offset="0"/>
      <stop id="stop3107" style="stop-color:#afe9dd;stop-opacity:0" offset="1"/>
    </radialGradient>
    <linearGradient id="linearGradient4073" y2="164.03" xlink:href="#linearGradient3914" gradientUnits="userSpaceOnUse" x2="293.6" gradientTransform="translate(26.113 -1.3641)" y1="164.12" x1="302.13" inkscape:collect="always"/>
    <linearGradient id="linearGradient4075" y2="162.92" xlink:href="#linearGradient3914" gradientUnits="userSpaceOnUse" x2="298.84" y1="162.83" x1="286.18" inkscape:collect="always"/>
    <linearGradient id="linearGradient4077" y2="164.03" xlink:href="#linearGradient3914" gradientUnits="userSpaceOnUse" x2="293.6" gradientTransform="translate(-31.142 -1.5866)" y1="164.48" x1="308.5" inkscape:collect="always"/>
    <linearGradient id="linearGradient4097" y2="244.42" gradientUnits="userSpaceOnUse" x2="226.05" y1="224.35" x1="227.61" inkscape:collect="always">
      <stop id="stop4103" style="stop-color:#216778;stop-opacity:.99216" offset="0"/>
      <stop id="stop4105" style="stop-color:#164450;stop-opacity:.99216" offset="1"/>
    </linearGradient>
  </defs>
  <sodipodi:namedview id="base" fit-margin-left="0" inkscape:zoom="0.90713641" borderopacity="1.0" inkscape:current-layer="layer2" inkscape:cx="-99.444222" inkscape:cy="316.97791" inkscape:object-paths="false" inkscape:window-maximized="1" showgrid="false" fit-margin-right="0" inkscape:guide-bbox="true" showguides="true" bordercolor="#666666" inkscape:window-x="0" inkscape:window-y="0" inkscape:object-nodes="false" fit-margin-bottom="0" inkscape:window-width="1920" inkscape:pageopacity="0.0" inkscape:pageshadow="2" pagecolor="#ffffff" inkscape:document-units="px" inkscape:window-height="1152" fit-margin-top="0"/>
  <g id="layer2" style="opacity:.99216" inkscape:label="Réteg" inkscape:groupmode="layer" transform="translate(-171.35 -131.06)">
    <path id="path3051" sodipodi:nodetypes="cccsssssssssccc" style="fill:#216778" inkscape:connector-curvature="0" d="m261.81 195.82v19.843l-45.748 9.3702c-12.126 1.1024-46.3 17.087-44.646 36.929 1.6536 19.843 13.78 170.32 15.984 176.93 2.2047 6.6142 15.984 25.355 25.906 33.071 9.9213 7.7166 31.694 22.28 35.638 24.252 4.9607 2.4803 19.205 2.7559 23.063 1.6536 3.8583-1.1024 87.363-42.992 97.835-51.26 10.473-8.2678 22.874-21.221 23.701-31.142 0.36619-4.3942 11.575-161.77 12.126-167.28 1.1024-11.024-14.331-25.906-44.646-33.071-17.693-4.182-36.929-7.1654-36.929-7.1654l0.55119-13.228z"/>
    <path id="path3909" sodipodi:nodetypes="ccccscsscssccc" style="opacity:.5;fill:url(#radialGradient3922)" inkscape:connector-curvature="0" d="m280.56 202.44-18.75 8.9375v4.2812l-45.75 9.375c-12.126 1.1024-46.31 17.095-44.656 36.938 0.29963 3.5956 1.2277 14.897 2.0938 25.438l6.8132 12.391c4.2823 7.7879 72.905 16.685 83.157 13.983l140.06-36.91c1.161-15.975 2.0164-27.289 2.1562-28.688 1.1024-11.024-14.341-25.897-44.656-33.062-17.693-4.182-36.938-7.1875-36.938-7.1875l0.15625-4.0312z"/>
    <path id="path3088" sodipodi:nodetypes="ccccsscc" style="fill:url(#linearGradient3096)" inkscape:connector-curvature="0" d="m322.16 217.88 4.9688 3.0312-41.344 62.562 119.41-28.906c0.2172-2.879 0.4489-5.864 0.5-6.375 1.1024-11.024-14.341-25.897-44.656-33.062-17.693-4.182-36.938-7.1875-36.938-7.1875-4.9948-2.7184-2.1513 7.1825-1.9375 9.9375z"/>
    <path id="path3053" sodipodi:nodetypes="scscscscssass" style="fill:#216778" inkscape:connector-curvature="0" d="m250.51 138.77v3.495c-0.82678 0.1378-1.5158 1.4656-1.5158 3.946v59.39s16.673 11.713 47.54 8.9568c30.866-2.7559 39.134-8.819 39.134-8.819l1.2667-58.956c0.0397-1.8498 0.21079-3.879-2.1152-4.8436l-0.25381-2.067c-0.42465-3.4583-3.3071-6.3386-8.2678-6.8898-4.9607-0.55118-21.293-1.9501-31.969-1.9291-12.888 0.0253-35.827 1.378-38.583 2.4803-2.7559 1.1024-5.2492 2.4258-5.2363 5.2363z"/>
    <path id="path3098" sodipodi:nodetypes="sscscss" style="fill:url(#radialGradient4022)" inkscape:connector-curvature="0" d="m294.34 131.06c-12.888 0.0253-35.838 1.3664-38.594 2.4688-2.3367 0.93467-4.471 2.0383-5.0625 4.0625 4.2809 3.5952 33.105 4.2217 42.267 4.2217 8.5943 0 31.381-2.1555 41.514-3.7217-0.5678-4.4924-3.7255-4.6014-8.1562-5.0938-4.9607-0.55118-21.293-1.9585-31.969-1.9375z"/>
    <path id="path3074" sodipodi:nodetypes="ccscc" style="fill:url(#linearGradient3082)" inkscape:connector-curvature="0" d="m326.44 134.64-33.209 5.2363s22.003 0.10174 34.173-1.1024c4.7581-0.47073 5.2363-2.2047 5.2363-2.2047s-0.27559-2.7559-6.2008-1.9291z"/>
    <path id="path3084" sodipodi:nodetypes="cccc" style="fill:#79b9ac" inkscape:connector-curvature="0" d="m333.86 203.01 1.1024 0.28253c-0.58462 1.559-4.383 2.9716-10.386 3.3515 5.507-1.0227 7.1614-1.4264 9.2837-3.634z"/>
    <path id="path3111" sodipodi:nodetypes="ccccccccccccc" style="opacity:.5;fill:url(#linearGradient3122)" inkscape:connector-curvature="0" d="m262.78 140.17 0.31 66.83c-3.3212-0.87519-6.5266-1.789-9.0774-2.921l-1.5625 0.375c2.5018 1.6294 6.4712 2.9635 8.4837 3.3272l0.15625 3.1562c1.1493 0.38644 3.4742 2.4155 4.7899 2.7786l36.71 0.22144c2.0341-0.23172 3.9415-0.46225 5.75-0.71875l0.16-3.11-2.5625-0.96875 1.0901-69.092c-15.137 0.30419-29.593 0.67109-44.243 0.11042z"/>
    <path id="path3086" sodipodi:nodetypes="ccsccsssscccccc" style="fill:#164450" inkscape:connector-curvature="0" d="m324.47 209.94c-20.549 5.2368-53.247 4.0599-62.938 1.1562 0 0 0.84646 4.9798 1.3438 6.25 0.18986 0.48498 6.7423 1.2939 14.531 1.9375l-55.25 8.7812s18.721 15.183 30.218 19.471c2.9442 1.0978 13.762-3.6553 17.704-7.9726 7.3657-8.0671 34.433-16.847 39.165-17.63 3.013-0.49876 21.252 0.58659 20.881-0.89888-0.38975-1.559-5.8438-3.6875-5.8438-3.6875zm-20.281 9.1562s2.2945 1.1814 4.0625 2.0938l-14.469-1.0312c5.5272 0.0737 9.7461-0.18226 10.406-1.0625z"/>
    <path id="path4006" sodipodi:nodetypes="cscsccccccccccc" style="fill-opacity:.99216;fill:#377d89" inkscape:connector-curvature="0" d="m221.77 215.19s22.839 1.4448 36.734-1.4616c1.2271-0.25667 3.0205-2.241 3.0205-2.241s1.1692 4.677 21.241 4.4821c20.072-0.19487 37.123-3.0205 41.313-4.4821l0.36341-1.4054 4.2161-1.5177 1.4616 1.559 0.77949 2.5334-6.0411 3.8975-20.267 3.7026-27.087 10.913-24.359 9.5488-14.031-0.38974z"/>
    <path id="path4008" sodipodi:nodetypes="cccscscccccccccc" style="fill-opacity:.99216;fill:#164450" inkscape:connector-curvature="0" d="m326.53 209.34-2.0938 0.75-0.375 1.375c-4.1898 1.4616-21.241 4.3051-41.312 4.5-20.072 0.19487-21.219-4.5-21.219-4.5s-1.8041 1.9933-3.0312 2.25c-1.8542 0.38782-3.8716 0.69086-5.9688 0.9375l-15.575 5.0123 0.79424 15.206 37.656-2.9062c3.3412-1.2871 6.6499-2.6567 9.9688-4l18.031-7.5312 18.531-3.875 5.5938-1.7188 1.7812-1.1562c-0.35136-0.88482-1.2797-2.9884-2.7812-4.3438z"/>
    <path id="path3128" sodipodi:nodetypes="csscsssssc" style="fill:url(#linearGradient3907)" inkscape:connector-curvature="0" d="m393.53 415.59c-17.926 9.5538-104.84 54.296-109.54 56.734-16.48 8.563-25.8 10.396-44.686-0.18213-3.8686-2.167-42.69-27.957-52.373-35.708 0.18047 1.2105 0.34614 2.1009 0.46875 2.4688 2.2047 6.6142 15.985 25.346 25.906 33.062 9.9213 7.7166 33.351 23.369 37.295 25.341 3.8583 1.9292 15.628 2.7618 19.487 1.6595 3.8583-1.1024 89.277-44.076 99.75-52.344 10.429-8.2337 22.769-21.126 23.688-31.031z"/>
    <path id="path3938" d="m393.53 415.59c-17.926 9.5538-104.84 54.296-109.54 56.734-16.48 8.563-25.8 10.396-44.686-0.18213-3.8686-2.167-42.69-27.957-52.373-35.708 0.18047 1.2105 0.34614 2.1009 0.46875 2.4688 2.2047 6.6142 15.985 25.346 25.906 33.062 9.9213 7.7166 33.351 23.369 37.295 25.341 3.8583 1.9292 15.628 2.7618 19.487 1.6595 3.8583-1.1024 89.277-44.076 99.75-52.344 10.429-8.2337 22.769-21.126 23.688-31.031z" sodipodi:nodetypes="csscsssssc" style="fill:url(#linearGradient3940)" inkscape:connector-curvature="0"/>
    <path id="path3944" sodipodi:nodetypes="ccccc" style="opacity:.3;fill:url(#linearGradient3948)" inkscape:connector-curvature="0" d="m230.06 258.77 5.7402 210.53c12.465 11.996 40.683 12.217 53.395 0.38975l-6.4251-213.81c-14.148-10.564-37.134-12.138-52.71 2.8897z"/>
    <path id="path3957" sodipodi:nodetypes="ccccccccccc" style="block-progression:tb;text-indent:0;color:#000000;text-transform:none;fill:url(#linearGradient3969)" inkscape:connector-curvature="0" d="m295.82 148.33c-2.2334 0.19499-4.5859 2.986-4.6117 4.933l0.1378 56.328 1.7579 0.82678-0.0689-58.276c0.13182-1.8478 1.168-3.3227 2.6875-3.6407 1.6988 0.21643 2.6405 2.3606 2.6562 3.7657l0.1378 57.48h1.689l-0.1378-56.36c-0.14634-2.1832-2.1218-5.0056-4.2478-5.058z"/>
    <path id="path3963" d="m293.03 209.87v-57.724c0.13182-1.8478 1.168-3.3227 2.6875-3.6407 1.6988 0.21643 2.6405 2.3606 2.6562 3.7657v57.756c-2.0152 1.2348-3.8471 1.4613-5.3438-0.15625z" sodipodi:nodetypes="cccccc" style="block-progression:tb;text-indent:0;color:#000000;text-transform:none;fill:url(#linearGradient4075)" inkscape:connector-curvature="0"/>
    <path id="path3981" sodipodi:nodetypes="cccccc" style="block-progression:tb;text-indent:0;color:#000000;text-transform:none;fill:url(#linearGradient4073)" inkscape:connector-curvature="0" d="m319.92 207.85-0.58463-56.289c0.13182-1.8478 1.0705-5.0766 2.5901-5.3946 1.6988 0.21643 2.4456 2.5554 2.4614 3.9606l0.0974 56.71c-1.0771 1.6619-3.5154 1.6275-4.5642 1.013z"/>
    <path id="path3987" d="m264.67 146.74c-2.2334 0.19499-4.5859 2.986-4.6117 4.933v55.364h1.8268v-56.484c0.13182-1.8478 1.168-3.3227 2.6875-3.6407 1.6988 0.21643 2.6405 2.3606 2.6562 3.7657v57.003l2.1762-0.29231-0.48718-55.59c-0.14634-2.1832-2.1218-5.0056-4.2478-5.058z" sodipodi:nodetypes="ccccccccccc" style="block-progression:tb;text-indent:0;color:#000000;text-transform:none;fill:url(#linearGradient3991)" inkscape:connector-curvature="0"/>
    <path id="path3989" sodipodi:nodetypes="cccccc" style="block-progression:tb;text-indent:0;color:#000000;text-transform:none;fill:url(#linearGradient4077)" inkscape:connector-curvature="0" d="m261.89 207.04v-56.484c0.13182-1.8478 1.168-3.3227 2.6875-3.6407 1.6988 0.21643 2.6405 2.3606 2.6562 3.7657l-0.0974 57.003c-2.8381 0.60032-4.9093 0.0844-5.2463-0.64343z"/>
    <path id="path3997" sodipodi:nodetypes="ccsscccc" style="fill:url(#linearGradient4097)" inkscape:connector-curvature="0" d="m260.94 207.8-11.527-6.1922s-26.771-9.102-34.761-3.2558c-7.9898 5.8462-7.9197 22.354-1.6536 26.188l27.672 17.733-4.0923-10.913 5.6513-17.539z"/>
    <path id="path3999" style="fill:url(#linearGradient4004)" inkscape:connector-curvature="0" d="m220.81 196.47c-2.5184 0.20365-4.6582 0.77884-6.1562 1.875-6.5339 4.7809-7.6959 16.69-4.4688 22.969l28.594 15.969-2.2188-5.9062 5.6562-17.562 9.2812-2.9688-30.562-14.375c-0.0401 0.003-0.0851-0.003-0.125 0z"/>
    <path id="path3995" sodipodi:nodetypes="cassccssscc" style="fill:#216778" inkscape:connector-curvature="0" d="m283.32 209.98c-7.5788 0.96458-33.627-6.9568-42.843 4.0353-6.1552 7.3417-7.4017 28.177 2.3385 28.646 20.25 0.9751 40.759-15.183 61.775-20.851 8.1454-2.1969 24.164-2.3385 24.359-6.236 0 0 3.118-2.1436 1.3641-5.6513 0.77949 6.236-16.969 5.7984-25.139 8.1847-20.201 5.9002-40.368 21.316-61.19 20.851-7.4686-0.1665-5.2067-16.871-0.19487-22.41 7.7538-8.5706 32.352-1.4713 40.646-3.2892z"/>
  </g>
  <metadata>
    <rdf:RDF>
      <cc:Work>
        <dc:format>image/svg+xml</dc:format>
        <dc:type rdf:resource="http://purl.org/dc/dcmitype/StillImage"/>
        <cc:license rdf:resource="http://creativecommons.org/licenses/publicdomain/"/>
        <dc:publisher>
          <cc:Agent rdf:about="http://openclipart.org/">
            <dc:title>Openclipart</dc:title>
          </cc:Agent>
        </dc:publisher>
        <dc:title>canteen</dc:title>
        <dc:date>2011-09-11T09:13:07</dc:date>
        <dc:description/>
        <dc:source>https://openclipart.org/detail/159931/canteen-by-tzunghaor</dc:source>
        <dc:creator>
          <cc:Agent>
            <dc:title>tzunghaor</dc:title>
          </cc:Agent>
        </dc:creator>
        <dc:subject>
          <rdf:Bag>
            <rdf:li>bottle</rdf:li>
            <rdf:li>camping</rdf:li>
            <rdf:li>canteen</rdf:li>
            <rdf:li>container</rdf:li>
            <rdf:li>drink</rdf:li>
            <rdf:li>hiking</rdf:li>
            <rdf:li>liquid</rdf:li>
            <rdf:li>water</rdf:li>
          </rdf:Bag>
        </dc:subject>
      </cc:Work>
      <cc:License rdf:about="http://creativecommons.org/licenses/publicdomain/">
        <cc:permits rdf:resource="http://creativecommons.org/ns#Reproduction"/>
        <cc:permits rdf:resource="http://creativecommons.org/ns#Distribution"/>
        <cc:permits rdf:resource="http://creativecommons.org/ns#DerivativeWorks"/>
      </cc:License>
    </rdf:RDF>
  </metadata>
</svg>